<?xml version="1.0" encoding="utf-8"?>
<!-- Generator: Adobe Illustrator 19.1.0, SVG Export Plug-In . SVG Version: 6.00 Build 0)  -->
<svg version="1.1" id="Layer_1" xmlns="http://www.w3.org/2000/svg" xmlns:xlink="http://www.w3.org/1999/xlink" x="0px" y="0px"
	 viewBox="0 0 112.7 97.6" enable-background="new 0 0 112.7 97.6" xml:space="preserve">
<g>
	<path d="M88.2,0l-5.1,26.5L67.8,0H44.3l5,43.6L24.2,0H0l56.3,97.6l11.9-20.7l0-34.4l9.9,17.2L112.7,0H88.2z M56.3,93.6L3.5,2H23
		l43.1,74.6L56.3,93.6z M66.2,72.9L51.8,48L47,5.7l19.3,33.4V72.9z M78.2,55.7L47.1,2h19.5l21.3,36.8L78.2,55.7z M89.1,36.8
		l-4.4-7.6l4.9-25.4l9.3,16.1L89.1,36.8z M90.8,2h18.4l-9.1,15.7L90.8,2z"/>
</g>
</svg>
