<svg viewBox="0 0 216 144" xmlns="http://www.w3.org/2000/svg"><g fill="#231f20"><path d="m74 82.51a9 9 0 0 1 -1.38 1.88 1.37 1.37 0 0 1 -.89.69 1.1 1.1 0 0 1 -.5-.74 83 83 0 0 1 -5.55-16c-1.68-8.05-1.87-14.34-1.52-15.34s-3.41 3.81-5.59 6.54c-2 2.43-5.4 6.34-5.15 6.34h9.8c.55 0 1.24 0 1.39.45.35.74-.4 1.24-.64 2-.54 1.58-.61 3.84-1.3 3.54-.45-.25 0-.84.1-1.24.2-.64.31-.72 0-1.12a.9.9 0 0 0 -.83-.51h-10.3a7.67 7.67 0 0 0 -.94.1c-.64.05-4.91 5.63-8.63 8.45-1.83 1.39-5.75 3.9-5.75 4.05a2.53 2.53 0 0 0 1-.06h.59c6-.2 10.41 1.57 16.54 1.12 4.36-.35 7.66-2.62 8.75-6.92.15-.69-.1-1.73.4-1.78s.59 1.14.59 1.83c-.15 2.23-2.82 5.1-5.69 7a13.06 13.06 0 0 1 -7 2.33c-2.62.18-8.67-1.12-14.36-1.12h-5.94c-.45 0-1.29.1-1.24-.15a4.31 4.31 0 0 1 .94-1.39c.4-.59.62-1.85 1-1.95a30.61 30.61 0 0 0 7.87-3.76c13.22-9 24.3-28.36 27.8-29 .59-.12 0 1.23-.14 1.82-1.24 7.23 1.8 18.19 2.35 20.27 1.19 4.55 3.69 11.37 4 11.42 1.39.2 2.18-1.78 2.38-1.29.48.81-1 .96-2.16 2.54z"/><path d="m104.25 71.18c-2.72 6.09-4.21 9-4.5 10.5a.93.93 0 0 0 .74 1.09c.74 0 1.83-1.29 2-.79.3.69-4.31 2.72-4.6 2.87s-1.89 1.15-1.66-.6c.44-3.32 1.68-6 3.17-9.6.59-1.24 2.92-6.34 3.32-7.23a.43.43 0 0 0 -.35-.64c-.69 0-4.16 3-6.29 5.49-3.31 3.86-6.08 11.18-6.29 11.53s-3.12 1.39-3.51 1.14c-.15-.1 2.67-6.59 4.26-10.74 1-2.72 2.13-5.49 2.57-7.13.2-.59-.3-.69-.64-.74-.54-.1-4.06 3.22-6.09 5.74-3 3.66-6 11.58-6.34 11.68a22.1 22.1 0 0 1 -3.51 1.25c-.3 0 2.67-6.5 4.47-10.65a54.19 54.19 0 0 0 2.66-7.35c0-.49-.1-.59-.55-.59-.79-.05-1.34.84-2 .49-.49-.3 2.38-1.54 3.91-2.28.84-.45 1.63-1.14 2.13-1s.2 2-.15 3.22a31.48 31.48 0 0 1 -2.38 6l-.4.74 1.09-1.29a38.78 38.78 0 0 1 4.8-5.15c2-1.49 3-2.77 5.64-3.07.69-.1 1 1 .89 1.68a42 42 0 0 1 -2.53 7.48l-.25.54.79-.89c2.67-3.07 4.16-5 7.38-7.43a7.68 7.68 0 0 1 3.61-1.45 1.19 1.19 0 0 1 1 1.44 53.64 53.64 0 0 1 -2.39 5.74z"/><path d="m128.82 66c-.5.3-5.45-.1-6.78.15-7.18 1.44-12.28 5.74-13.76 13.66-.39 1.88.4 3.12 1.78 3 2.23-.15 4.95-3.12 7.38-6.73 2-3 2.72-7.67 3.56-8.32s.94 1.58.94 2.43c0 1.44-2.38 4.75-1.93 4.85.79.15 1.63-.54 2.13-.4s-.94 2.77-1.49 4.5c-.3 1.14-1.19 2.62-.79 3 .79.94 2.92-1.24 3.22-.84s-5.74 3.56-6.29 3.32-.84-.59.15-3.86c.3-1.14 1.19-2.58 1.44-3.91-1.88 2.48-8.52 8.37-11.63 8.22-1.24-.1-1.83-1.49-1.78-2.72.05-3 2.13-6.29 4.6-9.51 1-1.24 8.71-7.87 13.76-8.76 1.19-.2 5.54-.69 5.74-.3a2.52 2.52 0 0 1 -.25 2.22z"/><path d="m140 78.6c-4.6 4-9.65 6.53-14.45 6.48a.82.82 0 0 1 -.79-.84c.49-1.14 3.86-8.42 6-13.81 2.62-6.34 6.83-15.5 6.34-16.49s-2.82.84-3.07 0 1.39-.79 4.9-2.13a23.74 23.74 0 0 0 2.43-1.29c1.19-.45-2.13 7.08-3.76 11.44-1.19 3.07-3.27 7.57-3.42 8l-.49 1.29.84-.79a30.17 30.17 0 0 1 6.47-4.88c1.78-1.09 3.17-1.54 4.85-1a2.49 2.49 0 0 1 1.63 3c-1.24 5.33-3.62 7.66-7.48 11.02zm2.13-12c-2.57-.59-5.89 3.07-8.42 6.19-2.72 3.37-4 6.78-5.3 9.8-.2.59 1.09.4 1.73.35a13.29 13.29 0 0 0 7.86-3.54c3-3.27 5.4-7 5.69-11 .08-1.33-.07-1.48-1.61-1.78z"/><path d="m156.59 66.92c-.5 1.73-3 6.88-4.85 11-.79 1.78-2.08 4.31-1.78 4.8.89 1.09 2.43-.84 2.67-.25s-2.23 1.33-3.63 1.93c-.84.35-1.93 1.14-2.28.84a1.54 1.54 0 0 1 -.35-1.24 67.14 67.14 0 0 1 3.56-9.06c0-.25 4.11-7.77 3.22-8.27s-3 .64-3 0c.1-.84 3-1.14 4.75-1.83.84-.35 1.29-1 2.23-.89.69.05-.2 1.93-.54 2.97z"/><path d="m165.85 68.21c-3.61 8-5.15 12.38-5.15 13a1.84 1.84 0 0 0 .64 1.83c.89.64 2.87-2.38 3.32-1.68.25.35-4.56 4.21-5.94 3.81-1.19-.3-1.54-.89-1.54-2.38 0-2.77 3.37-10 5.94-16 2.13-5 5.74-12.62 5.45-13-1-1.34-2.48.49-2.87-.35s2.23-.94 3.76-1.63c.64-.3 2.13-1.44 2.72-1.09 1.35.75-3.01 10.16-6.33 17.49z"/><path d="m184.1 68.11c-1.53 1.54-6.63 4.26-8.37 4.31-2.38.1-2.28-1-2.38-.74s-2.87 5.35-3 8.27c-.1 2.28 1.44 2.72 2.33 2.72a7.59 7.59 0 0 0 4.41-2 15.72 15.72 0 0 0 3.79-4.67c.49-.89.84-2.23 1.34-2.23s0 1.73-.44 2.62-3.76 4.41-6.68 6.49c-1.78 1.24-2.92 2.28-5 2.13-1.63-.1-2.72-1.53-2.62-3.42a20.62 20.62 0 0 1 3.57-10c3.12-4.5 8.56-7.82 11.73-8.07 1-.1 2.18-.2 2.67.74.55 1.47-.45 2.91-1.35 3.85zm-3.1-2.82a8.25 8.25 0 0 0 -3.91 1.49 14.61 14.61 0 0 0 -2.92 3.51l-.49.84.49.1a7.42 7.42 0 0 0 1.49 0 13.69 13.69 0 0 0 4.6-1.19 4.64 4.64 0 0 0 2.28-3.42 1.45 1.45 0 0 0 -1.54-1.33z"/></g><path d="m152.81 57.7 1.79 1.76-.45.61s2.24-.21 2.21.13-.48 2-.48 2h.45a7.7 7.7 0 0 1 .43-2 3.86 3.86 0 0 1 2 .47l-.23-.83 2.16-1a1.9 1.9 0 0 1 -.4-.41 3 3 0 0 1 .43-1 2.29 2.29 0 0 1 -1.2.21.74.74 0 0 1 -.19-.75s-.93 1-1.17.85 1-2.24 1-2.24a1.49 1.49 0 0 1 -1 .27 2.31 2.31 0 0 1 -.35-1.39 3.77 3.77 0 0 1 -.93 1.2 1.72 1.72 0 0 1 -.93-.61s.32 2.32.08 2.48-.88-1.15-.88-1.15a1.18 1.18 0 0 1 -.45.69 5 5 0 0 1 -1.41-.69 2.9 2.9 0 0 1 .11 1.33.56.56 0 0 1 -.59.07z" fill="#c9232c"/><g fill="#231f20"><path d="m78.3 95.74a4 4 0 0 1 -1.16.17c-1.64 0-2.71-.89-2.29-2.89a4.6 4.6 0 0 1 4.45-3.65 3.43 3.43 0 0 1 1.4.29l-.42.78a2.59 2.59 0 0 0 -1.13-.27 3.48 3.48 0 0 0 -3.38 2.9 1.53 1.53 0 0 0 1.67 2 3.23 3.23 0 0 0 1.15-.22z"/><path d="m82.11 89h.83l-1.13 2.75a2.09 2.09 0 0 1 1.56-.69 1.08 1.08 0 0 1 1.2 1.45 5.18 5.18 0 0 1 -.28.84l-1 2.43h-.82l1.13-2.78a3.54 3.54 0 0 0 .14-.43.63.63 0 0 0 -.64-.84 2.6 2.6 0 0 0 -2 1.71l-1 2.33h-.79z"/><path d="m88.35 91.09a1.49 1.49 0 0 1 1.57 2 3.26 3.26 0 0 1 -3.1 2.81 1.5 1.5 0 0 1 -1.62-2.05 3.27 3.27 0 0 1 3.15-2.76zm-1.35 4.14a2.61 2.61 0 0 0 2-2.13 1 1 0 0 0 -.87-1.33c-1.1 0-1.9 1.19-2.1 2.15a.92.92 0 0 0 .97 1.31z"/><path d="m92 91.19h.83l-1.83 4.62h-.87zm1.32-1h-.9l.39-1h.93z"/><path d="m94.12 91.9c.08-.19.18-.43.27-.71h.78l-.29.73a2.18 2.18 0 0 1 1.71-.84 1 1 0 0 1 .36.08l-.34.75a1 1 0 0 0 -.33-.09 2.6 2.6 0 0 0 -2 1.71l-.94 2.27h-.82z"/><path d="m99.62 92a1.86 1.86 0 0 0 -.85-.24.87.87 0 0 0 -1 .56c-.16.79 1.36.82 1.09 2.11a2 2 0 0 1 -2 1.47 2.89 2.89 0 0 1 -1.27-.22l.35-.68a2.33 2.33 0 0 0 1 .26 1 1 0 0 0 1.06-.75c.16-.79-1.34-.91-1.1-2.07a1.93 1.93 0 0 1 2-1.36 2.72 2.72 0 0 1 1.12.25z"/><path d="m105.48 91.09a1.49 1.49 0 0 1 1.57 2 3.26 3.26 0 0 1 -3.1 2.81 1.5 1.5 0 0 1 -1.62-2.05 3.27 3.27 0 0 1 3.15-2.76zm-1.39 4.14a2.61 2.61 0 0 0 2.08-2.13 1 1 0 0 0 -.87-1.33c-1.1 0-1.9 1.19-2.1 2.15a.92.92 0 0 0 .89 1.31z"/><path d="m109.33 91.88h-1.08l.27-.69h1.09l.2-.45a2.44 2.44 0 0 1 2.19-1.83 2 2 0 0 1 .61.1l-.31.68a1.09 1.09 0 0 0 -.38-.09 1.48 1.48 0 0 0 -1.28 1.17l-.18.43h1.19l-.28.69h-1.21l-1.65 3.93h-.83z"/><path d="m115.76 89.49h.89l-2.31 5.51h2.56l-.32.8h-3.46z"/><path d="m121.15 91.09a1.49 1.49 0 0 1 1.57 2 3.27 3.27 0 0 1 -3.1 2.81 1.5 1.5 0 0 1 -1.62-2.04 3.27 3.27 0 0 1 3.15-2.77zm-1.39 4.14a2.61 2.61 0 0 0 2.08-2.13 1 1 0 0 0 -.87-1.33c-1.1 0-1.9 1.19-2.1 2.15a.92.92 0 0 0 .89 1.31z"/><path d="m124.48 91.9c.08-.19.18-.43.27-.71h.78l-.29.73a2.19 2.19 0 0 1 1.71-.84 1.08 1.08 0 0 1 1.2 1.45 5.18 5.18 0 0 1 -.28.84l-1 2.43h-.87l1.17-2.8a3.45 3.45 0 0 0 .13-.43.63.63 0 0 0 -.64-.84 2.6 2.6 0 0 0 -2 1.71l-1 2.33h-.83z"/><path d="m132.78 94.28c-.21.52-.41 1-.57 1.53h-.78c.09-.22.18-.47.3-.71a1.93 1.93 0 0 1 -1.7.81c-1.08 0-1.48-.89-1.26-1.94.3-1.45 1.4-2.9 2.93-2.9a1.17 1.17 0 0 1 1.26.87l1.2-2.93h.84zm-2.32.95c1 0 1.79-1.33 2-2.2a.91.91 0 0 0 -.86-1.26c-1 0-1.76 1.28-1.94 2.14s.04 1.32.8 1.32z"/><path d="m137.3 91.09a1.49 1.49 0 0 1 1.57 2 3.26 3.26 0 0 1 -3.1 2.81 1.5 1.5 0 0 1 -1.62-2.05 3.27 3.27 0 0 1 3.15-2.76zm-1.39 4.14a2.61 2.61 0 0 0 2.09-2.13 1 1 0 0 0 -.87-1.33c-1.1 0-1.9 1.19-2.1 2.15a.92.92 0 0 0 .88 1.31z"/><path d="m140.63 91.9c.08-.19.18-.43.27-.71h.78l-.29.73a2.19 2.19 0 0 1 1.71-.84 1.08 1.08 0 0 1 1.2 1.45 5.18 5.18 0 0 1 -.28.84l-1 2.43h-.83l1.13-2.8a3.44 3.44 0 0 0 .13-.43.63.63 0 0 0 -.64-.84 2.6 2.6 0 0 0 -2 1.71l-1 2.33h-.81z"/><path d="m144.82 94.8h1.06l-1.69 2.2h-.83z"/><path d="m153.69 95.74a4 4 0 0 1 -1.16.17c-1.64 0-2.71-.89-2.29-2.89a4.6 4.6 0 0 1 4.45-3.65 3.43 3.43 0 0 1 1.4.29l-.42.78a2.59 2.59 0 0 0 -1.13-.27 3.48 3.48 0 0 0 -3.38 2.9 1.53 1.53 0 0 0 1.67 2 3.23 3.23 0 0 0 1.17-.17z"/><path d="m156.6 91.32a5 5 0 0 1 1.3-.24c.91 0 1.71.36 1.47 1.47a4.64 4.64 0 0 1 -.23.72c-.35.86-.71 1.72-1 2.53h-.77l.31-.77a2.1 2.1 0 0 1 -1.65.88 1 1 0 0 1 -1.17-1.28c.27-1.31 1.51-1.68 3-1.68h.59a1.77 1.77 0 0 0 .11-.3c.14-.66-.23-.91-.84-.91a3.25 3.25 0 0 0 -1.46.39zm.93 2.27a1.65 1.65 0 0 0 -1.78 1 .52.52 0 0 0 .61.62 2.23 2.23 0 0 0 1.81-1.64h-.63z"/><path d="m161.19 91.9c.08-.19.18-.43.27-.71h.78l-.29.73a2.19 2.19 0 0 1 1.71-.84 1.08 1.08 0 0 1 1.2 1.45 5.18 5.18 0 0 1 -.28.84l-1 2.43h-.83l1.14-2.8a3.44 3.44 0 0 0 .13-.43.63.63 0 0 0 -.64-.84 2.6 2.6 0 0 0 -2 1.71l-1 2.33h-.83z"/><path d="m166.88 91.32a5 5 0 0 1 1.3-.24c.91 0 1.7.36 1.47 1.47a4.69 4.69 0 0 1 -.23.72c-.35.86-.71 1.72-1 2.53h-.77l.35-.8a2.1 2.1 0 0 1 -1.65.88 1 1 0 0 1 -1.17-1.28c.27-1.31 1.51-1.68 3-1.68h.59a1.73 1.73 0 0 0 .11-.3c.14-.66-.23-.91-.84-.91a3.25 3.25 0 0 0 -1.46.39zm.93 2.27a1.65 1.65 0 0 0 -1.78 1 .52.52 0 0 0 .61.62 2.23 2.23 0 0 0 1.81-1.64h-.63z"/><path d="m174.4 94.28c-.21.52-.41 1-.57 1.53h-.83c.09-.22.18-.47.3-.71a1.93 1.93 0 0 1 -1.7.81c-1.08 0-1.48-.89-1.26-1.94.3-1.45 1.4-2.9 2.93-2.9a1.17 1.17 0 0 1 1.26.87l1.2-2.93h.83zm-2.32.95c1 0 1.79-1.33 2-2.2a.91.91 0 0 0 -.86-1.26c-1 0-1.76 1.28-1.94 2.14s.04 1.32.8 1.32z"/><path d="m177.16 91.32a5 5 0 0 1 1.3-.24c.91 0 1.7.36 1.47 1.47a4.69 4.69 0 0 1 -.23.72c-.35.86-.71 1.72-1 2.53h-.77l.31-.77a2.1 2.1 0 0 1 -1.65.88 1 1 0 0 1 -1.17-1.28c.27-1.31 1.51-1.68 3-1.68l.58.05a1.73 1.73 0 0 0 .11-.3c.14-.66-.23-.91-.84-.91a3.25 3.25 0 0 0 -1.46.39zm.93 2.27a1.65 1.65 0 0 0 -1.78 1 .52.52 0 0 0 .61.62 2.23 2.23 0 0 0 1.81-1.64h-.63z"/></g></svg>