<svg viewBox="0 0 216 144" xmlns="http://www.w3.org/2000/svg"><g fill="#665f70"><path d="m29.06 58.81h2.28l4.66 26.41h-2.12l-.88-5.34h-5.25l-.75 5.34h-2.18zm3.65 19.19-2.42-14.95-2.29 14.95h4.69z"/><path d="m51.16 58.81h2.48v26.41h-2v-11.34l.33-10.63-3.81 21.39h-2.16l-3.9-21.39.33 10.63v11.28h-2v-26.35h2.48l4.14 22.19z"/><path d="m62.38 58.81h2.28l4.69 26.41h-2.15l-.85-5.35h-5.28l-.78 5.35h-2.09zm3.62 19.19-2.39-14.95-2.28 14.95z"/><path d="m81.61 58.81h2v26.41h-1.8l-6.07-19.88.13 7.11v12.77h-2.08v-26.41h1.56l6.46 20.41-.2-9.06z"/><path d="m89.63 58.81h4q3.52 0 4.5 2.93a14.53 14.53 0 0 1 .59 4.63v11.29q0 4.11-1.17 5.87c-.78 1.17-2.15 1.7-4 1.7h-4v-26.42h.07zm6.91 7.3a9.56 9.56 0 0 0 -.65-4.17 2.21 2.21 0 0 0 -2.09-1.3h-2v22.63h1.83a2.34 2.34 0 0 0 2.41-1.7 13.62 13.62 0 0 0 .46-4.17v-11.28z"/><path d="m107 58.81h2.28l4.72 26.41h-2.15l-.85-5.34h-5.28l-.72 5.34h-2.09zm3.69 19.19-2.41-14.93-2.22 14.93z"/><path d="m135.47 58.81h2.48v26.41h-2v-11.34l.33-10.63-3.78 21.39h-2.15l-3.91-21.39.33 10.63v11.28h-2v-26.35h2.48l4.11 22.19z"/><path d="m146.69 58.81h2.31l4.69 26.41h-2.15l-.85-5.35h-5.28l-.78 5.35h-2.09zm3.65 19.19-2.41-14.93-2.22 14.93z"/><path d="m158.1 58.81h4.5c1.83 0 3 .39 3.65 1.11a3.75 3.75 0 0 1 .85 2.08 24.88 24.88 0 0 1 .2 3.59 12.44 12.44 0 0 1 -.52 3.85 2.66 2.66 0 0 1 -1.89 1.83 3.77 3.77 0 0 1 .91.33 1.61 1.61 0 0 1 .65.78c.59 1.17.91 4 .91 8.48a32 32 0 0 0 .07 3.26c.07.26.13.65.26 1h-2.22a4.53 4.53 0 0 1 -.26-1.7c0-.85-.07-2.15-.07-4v-2.87a12.32 12.32 0 0 0 -.33-3.52c-.2-.52-.91-.72-2-.72l-2.35-.13v13h-2.22v-26.37zm7 6.39a16.2 16.2 0 0 0 -.2-2.93 1.72 1.72 0 0 0 -.65-1.24 2.74 2.74 0 0 0 -1.43-.33h-2.48v10h2.35a2.27 2.27 0 0 0 1.56-.39 3.45 3.45 0 0 0 .65-1.3 21.28 21.28 0 0 0 .2-3.65z"/><path d="m173.16 58.81h2.22v26.41h-2.22z"/><path d="m184.38 58.81h2.28l4.69 26.41h-2.15l-.85-5.35h-5.28l-.78 5.35h-2.09zm3.62 19.19-2.41-14.93-2.19 14.93z"/></g></svg>