<svg viewBox="0 0 216 144" xmlns="http://www.w3.org/2000/svg" xmlns:xlink="http://www.w3.org/1999/xlink"><linearGradient id="a" gradientTransform="matrix(1 0 0 -1 0 664.8)" gradientUnits="userSpaceOnUse" x1="44.97" x2="44.97" y1="583.02" y2="593.4"><stop offset=".25" stop-color="#e4252d"/><stop offset="1" stop-color="#f06530"/></linearGradient><linearGradient id="b" gradientTransform="matrix(1 0 0 -1 0 664.8)" gradientUnits="userSpaceOnUse" x1="48.11" x2="48.11" y1="569.76" y2="615.8"><stop offset=".3" stop-color="#e52127"/><stop offset="1" stop-color="#f36d23"/></linearGradient><linearGradient id="c" gradientTransform="matrix(1 0 0 -1 0 664.8)" gradientUnits="userSpaceOnUse" x1="44.68" x2="44.68" y1="583.02" y2="593.4"><stop offset="0" stop-color="#d1d3d4"/><stop offset="1" stop-color="#a7a9ac"/></linearGradient><linearGradient id="d" x1="44.68" x2="44.68" xlink:href="#c" y1="80.46" y2="72.09"/><ellipse cx="44.97" cy="76.58" fill="url(#a)" rx="5.67" ry="5.18"/><path d="m71.1 69.67c-.49-16.9-2-19.52-19.47-20.58-.86 0-2.1-.1-3.53-.1a23 23 0 1 0 23 23c0-1.77.05-.99 0-2.32z" fill="url(#b)"/><path d="m44.72 60a3.63 3.63 0 1 0 3.85 3.63 3.73 3.73 0 0 0 -3.85-3.63z" fill="#e6e7e8"/><path d="m96.47 50.23h-8.57l-9.7 27.88h6.59l1.73-5.45h11.4l1.85 5.45h6.49zm-8.54 18.09 4.34-12.73 4.42 12.73z"/><path d="m107.57 78.09v-19.77h5.53l-.1 1.88s1.48-2.2 5.65-2.1 5.45 1.33 6.61 2.94a4.91 4.91 0 0 1 .81 2.76v14.26h-5.65v-12.16c0-1.73.15-3.33-3.13-3.33s-4.17 1.23-4.17 4.64v10.88h-5.58z"/><path d="m139.25 69.85v1.38c0 .64.1 2.57-1.6 2.57s-1.78-1.21-1.78-3.16v-8h7.57v-4.34h-7.57v-4.3h-5.63v4.3h-2.59v4.32h2.59v9.87c0 3.43 1.83 5.8 6.69 5.8s7.28-1.68 7.28-5.85v-2.59h-5z"/><path d="m151.69 66.27v11.79h-5.69v-19.78h5.72l-.17 1.6s1.37-1.88 4.77-1.88 4.84 1.92 5.28 3.58a11.39 11.39 0 0 1 .4 3.42v1.48h-5.45a6.73 6.73 0 0 0 .1-2.2 1.93 1.93 0 0 0 -2.15-1.78c-1.56-.03-2.81 1.1-2.81 3.77z"/><path d="m163.58 58.23h5.72v19.84h-5.72z"/><path d="m163.58 50.23h5.7v4.64h-5.7z"/><path d="m184.23 64.37h5.5s.17-2.59-.72-3.9-2.1-2.25-7.18-2.39-9.25.3-10 3.87.3 7.08 3.36 7.77a34.34 34.34 0 0 0 5.72.57c1.6 0 3.8-.17 3.8 1.83s-1.85 2.2-3.87 2.2-3.68-.3-3.68-1.78a6.51 6.51 0 0 1 .27-1.38h-6a11.9 11.9 0 0 0 .37 3.48c.47 1.48 1.36 3.85 8.76 3.7s9.7-1.51 9.92-6.64-3.13-5.72-8.19-5.95-4.81-.17-5-1.6 1.11-2.15 3.63-2.1 2.86.2 3.11 1.28a4.18 4.18 0 0 1 .2 1.04z"/><path d="m80.9 92.4a8.49 8.49 0 0 1 .27-1l2.42-7.4h1.33l.81 7.11c0 .25.07.79.07 1.18h.1a9.1 9.1 0 0 1 .25-1l1.85-5.29c.1-.27.27-.72.39-1a7.72 7.72 0 0 1 -.89-.12 3.71 3.71 0 0 1 -.07-.72h2.67a2.91 2.91 0 0 1 -.2.76l-.66.08-3.06 8.44h-1.29l-.79-7.28a10.11 10.11 0 0 1 0-1.21h-.1c0 .37-.22 1-.3 1.26l-2.32 7.25h-1.38l-1.25-8.46a5.74 5.74 0 0 1 -.69-.12 3.81 3.81 0 0 1 -.1-.74h3.21a2.73 2.73 0 0 1 -.22.76c-.32 0-.76.07-1.13.1a6.18 6.18 0 0 1 .27 1.21l.64 4.89a11 11 0 0 1 .07 1.31h.1z"/><path d="m90.67 90.52v.39c0 1.09.37 1.6 1.09 1.6a4.1 4.1 0 0 0 2-.62 2 2 0 0 1 -.15.72 3.47 3.47 0 0 1 -2.29.84c-1.16 0-1.78-.84-1.78-2.22a5.34 5.34 0 0 1 1-3.31 2.92 2.92 0 0 1 2.27-1.09 1.36 1.36 0 0 1 1.51 1.46c-.08 1.05-.72 2.11-3.65 2.23zm.49-2.15a3.64 3.64 0 0 0 -.44 1.38c2.17-.07 2.47-.74 2.47-1.41a.68.68 0 0 0 -.69-.79 1.61 1.61 0 0 0 -1.34.83z"/><path d="m96.24 84.82a4.16 4.16 0 0 1 .5-.82 1.37 1.37 0 0 1 .44 0 3.18 3.18 0 0 1 .89.15 15.94 15.94 0 0 1 -1.58 3.18 2.64 2.64 0 0 1 -.49-.41 10.71 10.71 0 0 0 .74-2z"/><path d="m98.14 87.88a1.42 1.42 0 0 1 .22-.67 2.92 2.92 0 0 1 1.28-.27 1.44 1.44 0 0 1 .47.07l.64 4.24a11.62 11.62 0 0 1 .12 1.33h.13a40.77 40.77 0 0 0 2-4.58.72.72 0 0 0 0-.22l-1.09.1a1.39 1.39 0 0 1 .3-.72 5.71 5.71 0 0 1 1.53-.27 1.74 1.74 0 0 1 .42.86 59.78 59.78 0 0 1 -3 5.85l-1-.27-1-5.5z"/><path d="m105.89 90.52v.39c0 1.09.37 1.6 1.09 1.6a4.1 4.1 0 0 0 2-.62 2 2 0 0 1 -.15.72 3.47 3.47 0 0 1 -2.29.84c-1.16 0-1.78-.84-1.78-2.22a5.34 5.34 0 0 1 1-3.31 2.92 2.92 0 0 1 2.24-1.07 1.36 1.36 0 0 1 1.51 1.46c-.02 1.03-.68 2.09-3.62 2.21zm.52-2.15a3.64 3.64 0 0 0 -.44 1.38c2.17-.07 2.47-.74 2.47-1.41a.68.68 0 0 0 -.69-.79 1.55 1.55 0 0 0 -1.34.83z"/><path d="m119.17 89.69c-.54 0-1.16 0-1.65-.12a3.83 3.83 0 0 1 -.07-.76h4c0 .27-.12.57-.17.79a6.37 6.37 0 0 1 -1 .1l-.28 3.19a10.45 10.45 0 0 1 -3.13.64c-2.29 0-3.5-1.46-3.5-3.82 0-3.55 1.95-5.82 5-5.82a4.2 4.2 0 0 1 2.44.69 12.6 12.6 0 0 1 -.37 2 2.48 2.48 0 0 1 -.89-.22l.12-1.28a2.72 2.72 0 0 0 -1.51-.42c-2 0-3.55 1.7-3.55 4.79 0 2.1 1.11 3.13 2.71 3.13a7.71 7.71 0 0 0 1.63-.2z"/><path d="m122.18 90.94a4.88 4.88 0 0 1 .67-2.64 2.88 2.88 0 0 1 2.47-1.46c1.33 0 2.17.89 2.17 2.47a5.24 5.24 0 0 1 -.81 3 2.79 2.79 0 0 1 -2.32 1.18c-1.42-.03-2.18-.89-2.18-2.55zm3.65.84a5.08 5.08 0 0 0 .52-2.37c0-1.06-.39-1.8-1.13-1.8a1.7 1.7 0 0 0 -1.48 1.06 5 5 0 0 0 -.39 2.17c0 1.13.39 1.88 1.16 1.88a1.65 1.65 0 0 0 1.32-.94z"/><path d="m130 85.42a1.93 1.93 0 0 1 .84-.22l-.2 1.88h1.8a.84.84 0 0 1 0 .25 3.36 3.36 0 0 1 0 .52h-1.9l-.37 3.73c-.07.69.1 1 .64 1a3.45 3.45 0 0 0 1.11-.25 1.5 1.5 0 0 1 -.17.69 3.41 3.41 0 0 1 -1.53.42 1.11 1.11 0 0 1 -1.22-1.29c0-.74.35-3 .57-4.34h-.94a1.66 1.66 0 0 1 .25-.69 3.25 3.25 0 0 1 .74-.22z"/><path d="m139.3 88.87a6.81 6.81 0 0 1 .42-.86l1.28-2.12a6.62 6.62 0 0 1 .64-.91 7.85 7.85 0 0 1 -.84-.1 3.59 3.59 0 0 1 -.07-.74h2.57a3 3 0 0 1 -.15.76l-.62.07-3 4.74-.22 2.71c.37 0 .79.07 1.13.12a1.75 1.75 0 0 1 0 .72h-3.58a2.53 2.53 0 0 1 .22-.69 7.14 7.14 0 0 1 1.09-.17l.27-2.71-1.83-4.69-.64-.1a2.69 2.69 0 0 1 -.07-.76h3.1a3.26 3.26 0 0 1 -.17.74c-.3 0-.72.07-1.06.1a7.45 7.45 0 0 1 .44.89l.79 2.13a6.67 6.67 0 0 1 .22.89z"/><path d="m142.7 90.94a4.88 4.88 0 0 1 .67-2.64 2.88 2.88 0 0 1 2.47-1.46c1.33 0 2.17.89 2.17 2.47a5.24 5.24 0 0 1 -.81 3 2.79 2.79 0 0 1 -2.32 1.18c-1.41-.03-2.18-.89-2.18-2.55zm3.65.84a5.08 5.08 0 0 0 .52-2.37c0-1.06-.39-1.8-1.13-1.8a1.7 1.7 0 0 0 -1.48 1.06 5 5 0 0 0 -.39 2.17c0 1.13.39 1.88 1.16 1.88a1.58 1.58 0 0 0 1.33-.94z"/><path d="m153.12 92.45a2.31 2.31 0 0 1 -2 1 1.4 1.4 0 0 1 -1.51-1.6 40.71 40.71 0 0 1 .52-4.07l-1 .1a1.47 1.47 0 0 1 .25-.67 3.1 3.1 0 0 1 1.31-.3 3.7 3.7 0 0 1 .54 0c-.17 1.38-.49 3.95-.49 4.47a.9.9 0 0 0 .91 1.11 1.85 1.85 0 0 0 1.58-1l.49-3.8-.91.1a1.56 1.56 0 0 1 .25-.69 2.78 2.78 0 0 1 1.26-.3 3.36 3.36 0 0 1 .52 0l-.59 5.28a.94.94 0 0 0 .07.25l1-.1a1.61 1.61 0 0 1 -.22.74 5.77 5.77 0 0 1 -1.55.3 2.86 2.86 0 0 1 -.32-1h-.1v.07z"/><path d="m158.22 88.3a1.92 1.92 0 0 1 1.78-1.45 1.75 1.75 0 0 1 .64.12 1.57 1.57 0 0 1 .1.59 2.12 2.12 0 0 1 -.1.59 1.56 1.56 0 0 0 -.89-.27 1.74 1.74 0 0 0 -1.55 1.28l-.39 4a4.24 4.24 0 0 1 -.64 0 2.77 2.77 0 0 1 -.49 0l.72-5.43-1 .1a1.47 1.47 0 0 1 .25-.67 2.5 2.5 0 0 1 1.21-.3 2.44 2.44 0 0 1 .44 0l-.17 1.33h.1z"/><path d="m169.13 88.43a1.92 1.92 0 0 1 1.75 1.92c0 2.12-1.73 2.94-3.7 2.94-1.18 0-2.54 0-3.55-.07a3.9 3.9 0 0 1 .2-.69 6.34 6.34 0 0 1 1-.17l.76-7.43a6 6 0 0 1 -.94 0 3 3 0 0 1 .07-.79c1-.07 2.12-.1 3.08-.1 1.73 0 3.08.72 3.08 2.15a2.19 2.19 0 0 1 -1.73 2.22v.07zm-3.16 4a9.31 9.31 0 0 0 1.18 0c1.6 0 2.52-.64 2.52-2 0-1.11-.91-1.58-2.15-1.58h-1.21zm.39-4.34h1.18c1.33 0 2.12-.54 2.12-1.83 0-1-.89-1.46-2.17-1.46-.2 0-.57 0-.84 0z"/><path d="m175.59 92.5a2.31 2.31 0 0 1 -1.85 1c-1 0-1.7-.69-1.7-2.34a5.11 5.11 0 0 1 .86-3 3 3 0 0 1 2.44-1.31 3.33 3.33 0 0 1 1.95.59l-.64 4.81a1.11 1.11 0 0 0 .07.27l1-.1a1.61 1.61 0 0 1 -.22.72 6 6 0 0 1 -1.55.3 3.2 3.2 0 0 1 -.35-1zm.59-4.76a1.94 1.94 0 0 0 -.86-.2 1.89 1.89 0 0 0 -1.6 1 5.3 5.3 0 0 0 -.57 2.44c0 1.11.44 1.6 1.11 1.6a1.68 1.68 0 0 0 1.38-1z"/><path d="m182.7 87.81a1.31 1.31 0 0 0 -.67-.2 1.68 1.68 0 0 0 -1.43.84 4.25 4.25 0 0 0 -.54 2.32c0 1.23.39 1.73 1.18 1.73a4.87 4.87 0 0 0 1.92-.57 2.48 2.48 0 0 1 -.17.76 3.93 3.93 0 0 1 -2.17.76c-1.31 0-1.95-.91-1.95-2.39a5 5 0 0 1 .91-3 3.06 3.06 0 0 1 2.42-1.21 2.36 2.36 0 0 1 1.48.47 3.7 3.7 0 0 1 -.35 1.58 1.61 1.61 0 0 1 -.72-.17z"/><path d="m185.24 93.26a2.77 2.77 0 0 1 -.49 0l1-8.64-.94.1a1.47 1.47 0 0 1 .25-.67 3 3 0 0 1 1.28-.3 3.7 3.7 0 0 1 .54 0l-.68 6.65a12.49 12.49 0 0 0 2.8-2.4.76.76 0 0 0 0-.2h-.94a1.43 1.43 0 0 1 .27-.74 7 7 0 0 1 1.48-.15 2.42 2.42 0 0 1 .35.84 8.8 8.8 0 0 1 -2.34 2.42 12.1 12.1 0 0 0 1.48 2.42l.76-.15a2 2 0 0 1 -.15.74 4.12 4.12 0 0 1 -1.26.35 13.21 13.21 0 0 1 -1.63-2.91 9.1 9.1 0 0 1 -.81.44l-.22 2.12a5.63 5.63 0 0 1 -.75.08z"/><path d="m46.47 72.09h-3.57v2.39h-2.4v3.58h2.4v2.4h3.57v-2.4h2.4v-3.58h-2.4z" fill="url(#c)"/><path d="m62.78 61.31a33.09 33.09 0 0 0 -18.14 9.6l-.17.2-.22-.11c-6-3.73-6.46-11-6.37-14.16a25.38 25.38 0 0 0 -1.55 14c1.36 8.69 9.72 16.58 10.44 17.25a5.38 5.38 0 0 0 1.55.22 6.57 6.57 0 0 0 3.5-1.09 21.81 21.81 0 0 1 -1.16-9.8c.55-4.81 3.14-11.35 12.12-16.11z" fill="#e6e7e8"/><path d="m48.87 78.06h-2.4v2.4h-3.57v-2.4h-2.4v-3.58h2.4v-2.39h3.57v2.39h2.4z" fill="url(#d)"/></svg>