<svg viewBox="0 0 216 144" xmlns="http://www.w3.org/2000/svg"><g fill="#231f20"><path d="m108.65 32.5c-8.13 0-14.72 8.68-14.72 19.4 0 9.6 5.3 17.55 12.26 19.1a6.55 6.55 0 0 0 .58-4.47c-.56-2.44-2.45-4.32-3.65-6.52a12.48 12.48 0 0 1 .08-11.86 18.9 18.9 0 0 0 5.11 13.3c.35-3.54-1.2-7-2.62-10.21-1.2-2.75-2.39-5.69-2.25-8.75a13.65 13.65 0 0 1 2.56-7.33 13.15 13.15 0 0 1 2.49-2.58 16.93 16.93 0 0 0 -.89 11.71 32.73 32.73 0 0 0 5.4 10.71 22 22 0 0 1 -2.41-7.51 9.71 9.71 0 0 1 2.16-7.39c-1 2.42-.42 5.17.45 7.62s2 4.84 2.36 7.42a14 14 0 0 1 -2.4 9.23 24.11 24.11 0 0 1 -7 6.67 11.31 11.31 0 0 0 2.45.29c8.13 0 14.72-8.68 14.72-19.4s-6.55-19.43-14.68-19.43z"/><path d="m28.15 92.83.85-.1a2.73 2.73 0 0 0 .79-.17.3.3 0 0 0 .21-.24v-12.78a.19.19 0 0 0 0-.12.36.36 0 0 0 -.15-.09 1.7 1.7 0 0 0 -.36-.08l-.64-.06-.67-.09-.07-.37h12l.16 4.56h-.59l-.23-.76a8 8 0 0 0 -.71-1.53 3.4 3.4 0 0 0 -.94-1 3.53 3.53 0 0 0 -1.33-.56 9.7 9.7 0 0 0 -1.93-.16h-1.53v6.5h.88a5.07 5.07 0 0 0 2-.39 2.05 2.05 0 0 0 1-1.3l.28-.76h.46l-.54 5.47h-.46l-.07-.72a3.09 3.09 0 0 0 -.19-.86 1.18 1.18 0 0 0 -.45-.55 2.32 2.32 0 0 0 -.84-.31 7.12 7.12 0 0 0 -1.34-.1h-.72v6.18a.25.25 0 0 0 .19.22 3.9 3.9 0 0 0 1 .13l1.06.09.07.37h-7.26z"/><path d="m42.53 92.83.95-.09q1-.09 1-.42v-12.78a.19.19 0 0 0 0-.12.37.37 0 0 0 -.16-.09 2 2 0 0 0 -.37-.08l-.64-.06-.76-.09-.07-.37h7.06l-.07.37-.95.09a2.08 2.08 0 0 0 -.8.17.35.35 0 0 0 -.22.24v12.79a.24.24 0 0 0 .21.21 5.69 5.69 0 0 0 1 .14l.76.09.07.37h-7z"/><path d="m51.83 92.83 1-.09a2.65 2.65 0 0 0 .74-.16.35.35 0 0 0 .28-.25v-12.79a.19.19 0 0 0 0-.12.37.37 0 0 0 -.16-.09 2 2 0 0 0 -.37-.08l-.64-.06-.76-.09-.07-.37h6.9a8.4 8.4 0 0 1 4.42.93 3 3 0 0 1 1.46 2.73 3.22 3.22 0 0 1 -.94 2.31 5.14 5.14 0 0 1 -2.62 1.3l3 4.75q.35.56.61.91a3.58 3.58 0 0 0 .52.58 1.76 1.76 0 0 0 .53.32 2.88 2.88 0 0 0 .65.15l.37.07.09.37h-4.84l-.42-.81-3.46-6.13-.66-.12a2.76 2.76 0 0 1 -.65-.09v6.41q0 .26 1.16.35l.83.09.07.37h-7.11zm6.17-7.13a3.65 3.65 0 0 0 2.44-.86 3.07 3.07 0 0 0 .88-2.38 3.16 3.16 0 0 0 -.9-2.46 3.64 3.64 0 0 0 -2.69-.83h-.48-.44v6.3l.62.12a4 4 0 0 0 .57.11z"/><path d="m68.33 92.83.83-.09a3.22 3.22 0 0 0 .8-.17.31.31 0 0 0 .24-.24v-12.79a.19.19 0 0 0 0-.12.37.37 0 0 0 -.2-.09 2 2 0 0 0 -.37-.08l-.63-.06-.65-.09-.07-.37h12l.16 4.75h-.6l-.21-.76a7.84 7.84 0 0 0 -.63-1.72 3.31 3.31 0 0 0 -.91-1 3.43 3.43 0 0 0 -1.38-.58 10.24 10.24 0 0 0 -2-.16h-1.55v6.34h.86a4.77 4.77 0 0 0 2-.42 2.14 2.14 0 0 0 1-1.32l.25-.74h.49l-.58 5.56h-.46l-.09-.72a2.93 2.93 0 0 0 -.19-.84 1.19 1.19 0 0 0 -.45-.54 2.32 2.32 0 0 0 -.83-.31 8.25 8.25 0 0 0 -1.33-.13h-.69v6.6l1.92.07a7.63 7.63 0 0 0 2.06-.24 4.43 4.43 0 0 0 1.47-.71 4.22 4.22 0 0 0 1-1.12 7.64 7.64 0 0 0 .72-1.49l.23-.69h.6l-.6 4.74h-12.28z"/><path d="m83.59 92.83 1-.09a2.65 2.65 0 0 0 .74-.16.35.35 0 0 0 .28-.25v-12.79a.19.19 0 0 0 0-.12.37.37 0 0 0 -.16-.09 2 2 0 0 0 -.45-.08l-.64-.06-.76-.09-.07-.37h6.9a8.4 8.4 0 0 1 4.42.93 3 3 0 0 1 1.46 2.73 3.22 3.22 0 0 1 -.94 2.31 5.14 5.14 0 0 1 -2.55 1.3l3 4.75q.35.56.61.91a3.58 3.58 0 0 0 .52.58 1.76 1.76 0 0 0 .53.32 2.88 2.88 0 0 0 .65.15l.37.07.09.37h-4.84l-.42-.81-3.46-6.13-.66-.12a2.76 2.76 0 0 1 -.65-.09v6.41q0 .26 1.16.35l.83.09.07.37h-7.1zm6.21-7.13a3.65 3.65 0 0 0 2.44-.86 3.07 3.07 0 0 0 .88-2.38 3.16 3.16 0 0 0 -.94-2.46 3.64 3.64 0 0 0 -2.69-.83h-.49-.44v6.3l.62.12a4 4 0 0 0 .61.11z"/><path d="m106.41 93.52a8.73 8.73 0 0 1 -3.14-.54 7.25 7.25 0 0 1 -2.45-1.53 6.91 6.91 0 0 1 -1.61-2.37 7.87 7.87 0 0 1 -.58-3.08 6.9 6.9 0 0 1 .64-2.93 7.91 7.91 0 0 1 1.73-2.39 8.16 8.16 0 0 1 5.65-2.24 8.73 8.73 0 0 1 3.14.54 7.26 7.26 0 0 1 2.45 1.53 6.93 6.93 0 0 1 1.61 2.37 7.94 7.94 0 0 1 .58 3.08 6.89 6.89 0 0 1 -.64 2.93 7.78 7.78 0 0 1 -1.72 2.41 8.23 8.23 0 0 1 -2.55 1.63 8 8 0 0 1 -3.11.59zm.19-.49a3.81 3.81 0 0 0 3.32-1.74 9.38 9.38 0 0 0 1.18-5.29 12.31 12.31 0 0 0 -.34-3 7 7 0 0 0 -.95-2.23 4.3 4.3 0 0 0 -1.47-1.38 4.08 4.08 0 0 0 -5.25 1.26 9.3 9.3 0 0 0 -1.2 5.26 9.11 9.11 0 0 0 1.28 5.25 4 4 0 0 0 3.42 1.84z"/><path d="m117.63 89.3q-.35 1-.53 1.67a2.26 2.26 0 0 0 -.12 1 .67.67 0 0 0 .4.52 3.55 3.55 0 0 0 1 .22l.62.07v.42h-5.16l.07-.42.44-.07a3.11 3.11 0 0 0 .84-.22 1.65 1.65 0 0 0 .65-.61 7.66 7.66 0 0 0 .67-1.34q.36-.88.91-2.4l2.64-7.33-.16-.81a2.47 2.47 0 0 0 .59-.24 5 5 0 0 0 .61-.4 4.21 4.21 0 0 0 .54-.5 1.89 1.89 0 0 0 .36-.54h.42l4.12 12q.25.72.45 1.16a2.81 2.81 0 0 0 .42.69 1.3 1.3 0 0 0 .46.36 1.82 1.82 0 0 0 .59.13l.69.09.07.42h-7.17l.07-.42.67-.07a1.84 1.84 0 0 0 .64-.16.53.53 0 0 0 .28-.37 1.62 1.62 0 0 0 0-.66 8 8 0 0 0 -.29-1l-1-3.11h-4.1zm2.82-7.84h-.09l-1.9 5.46h3.75z"/><path d="m135.64 93.5a12.46 12.46 0 0 1 -2.48-.19 14.11 14.11 0 0 1 -2.11-.55l-.25-3.94h.56l1 2.29a3.92 3.92 0 0 0 3.45 1.9 3.13 3.13 0 0 0 2.24-.8 2.7 2.7 0 0 0 .79-2 2.47 2.47 0 0 0 -.28-1.22 3 3 0 0 0 -.75-.88 4.8 4.8 0 0 0 -1.12-.66q-.65-.28-1.41-.53t-1.61-.65a5.41 5.41 0 0 1 -1.31-.83 3.66 3.66 0 0 1 -.88-1.15 3.52 3.52 0 0 1 -.32-1.57 4 4 0 0 1 .35-1.66 4 4 0 0 1 1-1.36 4.93 4.93 0 0 1 1.57-.93 5.84 5.84 0 0 1 2.06-.35 9.61 9.61 0 0 1 1.77.15q.8.15 1.42.34l1-.32.07 4.28h-.51l-1.67-3.33a4.46 4.46 0 0 0 -.95-.43 4 4 0 0 0 -1.25-.17 2.73 2.73 0 0 0 -1.92.66 2.13 2.13 0 0 0 -.72 1.63 2.08 2.08 0 0 0 .27 1.08 2.53 2.53 0 0 0 .72.78 5.33 5.33 0 0 0 1.06.58q.61.25 1.31.51a16.19 16.19 0 0 1 1.75.71 5.79 5.79 0 0 1 1.39.91 3.75 3.75 0 0 1 .91 1.25 4.14 4.14 0 0 1 .32 1.71 4.22 4.22 0 0 1 -.39 1.78 4.81 4.81 0 0 1 -1.1 1.52 5.3 5.3 0 0 1 -1.71 1.05 6.16 6.16 0 0 1 -2.27.39z"/><path d="m146.58 92.83 1.09-.09a2.27 2.27 0 0 0 .76-.16.33.33 0 0 0 .23-.25v-13.14h-.56a3.91 3.91 0 0 0 -1.47.31 4.25 4.25 0 0 0 -1.16.74 5.37 5.37 0 0 0 -.87 1 7.43 7.43 0 0 0 -.62 1.13l-.25.83h-.62l.6-4.49h13.08l.3 4.47h-.56l-.25-.81a8.05 8.05 0 0 0 -.61-1.2 4.57 4.57 0 0 0 -.86-1 4.09 4.09 0 0 0 -1.13-.71 3.65 3.65 0 0 0 -1.42-.27h-.6v13.2a.24.24 0 0 0 .21.21 5.69 5.69 0 0 0 1 .14l.9.09.07.37h-7.29z"/><path d="m159.36 92.83.83-.09a3.22 3.22 0 0 0 .8-.17.31.31 0 0 0 .24-.24v-12.79a.19.19 0 0 0 0-.12.37.37 0 0 0 -.16-.09 2 2 0 0 0 -.37-.08l-.7-.06-.65-.09-.07-.37h12l.16 4.75h-.6l-.21-.76a7.84 7.84 0 0 0 -.65-1.67 3.31 3.31 0 0 0 -.94-1.09 3.43 3.43 0 0 0 -1.38-.58 10.24 10.24 0 0 0 -2-.16h-1.55v6.34h.86a4.77 4.77 0 0 0 2-.42 2.15 2.15 0 0 0 1-1.32l.25-.74h.49l-.58 5.56h-.46l-.09-.72a2.93 2.93 0 0 0 -.19-.84 1.19 1.19 0 0 0 -.45-.54 2.32 2.32 0 0 0 -.83-.31 8.25 8.25 0 0 0 -1.33-.13h-.69v6.6l1.92.07a7.63 7.63 0 0 0 2.06-.24 4.43 4.43 0 0 0 1.47-.71 4.22 4.22 0 0 0 1-1.12 7.64 7.64 0 0 0 .72-1.49l.23-.69h.6l-.6 4.74h-12.2z"/><path d="m174.38 92.8.86-.09a3 3 0 0 0 .79-.17.31.31 0 0 0 .23-.24v-12.76a.24.24 0 0 0 -.21-.21 5.8 5.8 0 0 0 -1-.14l-.65-.09-.07-.37h3.33 3.26a11.26 11.26 0 0 1 3.56.47 7.24 7.24 0 0 1 2.6 1.42 6 6 0 0 1 1.6 2.24 7.58 7.58 0 0 1 .54 2.92 7 7 0 0 1 -.6 2.88 7.09 7.09 0 0 1 -1.69 2.34 8.12 8.12 0 0 1 -2.71 1.61 10.28 10.28 0 0 1 -3.59.59h-6.32zm8.66-.62a5 5 0 0 0 1.61-1.41 6.36 6.36 0 0 0 1-2 8.93 8.93 0 0 0 .34-2.48 11.4 11.4 0 0 0 -.34-2.87 6.26 6.26 0 0 0 -1-2.22 4.74 4.74 0 0 0 -1.75-1.43 5.77 5.77 0 0 0 -2.52-.51h-1.09v13.1l1.58.39a4.52 4.52 0 0 0 2.13-.57z"/><path d="m55.44 104.06a2.66 2.66 0 0 1 2.77-2.73 2.38 2.38 0 0 1 2.12 1.19l-.79.4a1.57 1.57 0 0 0 -1.33-.77 1.91 1.91 0 0 0 0 3.81 1.55 1.55 0 0 0 1.33-.77l.79.4a2.39 2.39 0 0 1 -2.12 1.19 2.66 2.66 0 0 1 -2.77-2.72z"/><path d="m63.68 104.06a2.7 2.7 0 1 1 2.7 2.73 2.62 2.62 0 0 1 -2.7-2.73zm4.44 0a1.75 1.75 0 1 0 -1.74 1.94 1.75 1.75 0 0 0 1.75-1.94z"/><path d="m72.82 106.69v-5.27h3.61v.81h-2.68v1.37h2.63v.81h-2.63v2.28z"/><path d="m80.12 106.69v-5.27h3.61v.81h-2.73v1.37h2.63v.81h-2.63v2.28z"/><path d="m87.41 106.69v-5.27h3.59v.81h-2.66v1.37h2.66v.81h-2.66v1.46h2.66v.81h-3.59z"/><path d="m94.82 106.69v-5.27h3.61v.81h-2.68v1.37h2.63v.81h-2.63v1.46h2.69v.81h-3.62z"/><path d="m106.88 104.06a2.66 2.66 0 0 1 2.77-2.73 2.39 2.39 0 0 1 2.12 1.19l-.79.4a1.57 1.57 0 0 0 -1.33-.77 1.91 1.91 0 0 0 0 3.81 1.55 1.55 0 0 0 1.33-.77l.79.4a2.39 2.39 0 0 1 -2.12 1.19 2.66 2.66 0 0 1 -2.77-2.72z"/><path d="m115.12 104.06a2.7 2.7 0 1 1 2.7 2.73 2.62 2.62 0 0 1 -2.7-2.73zm4.44 0a1.75 1.75 0 1 0 -1.75 1.91 1.75 1.75 0 0 0 1.76-1.91z"/><path d="m128.82 106.69v-3.91l-1.62 3.91h-.4l-1.61-3.91v3.91h-.93v-5.27h1.3l1.43 3.47 1.44-3.47h1.3v5.27h-.93z"/><path d="m133.72 106.69v-5.27h2.28a1.65 1.65 0 1 1 0 3.3h-1.39v2h-.93zm3.09-3.62a.83.83 0 0 0 -.9-.84h-1.26v1.68h1.26a.83.83 0 0 0 .9-.84z"/><path d="m144.47 106.69-.39-1h-2.42l-.39 1h-1.05l2.07-5.27h1.15l2.07 5.27h-1.05zm-1.6-4.34-.95 2.51h1.9z"/><path d="m152.63 106.69-2.75-3.76v3.76h-.88v-5.27h.95l2.7 3.66v-3.66h.93v5.27h-.89z"/><path d="m159 106.69v-2.19l-2-3.08h1l1.45 2.26 1.44-2.26h1.11l-2 3.08v2.19z"/><path d="m28.06 103.83h22.1v.56h-22.1z"/><path d="m166.85 103.83h22.1v.56h-22.1z"/></g></svg>