<svg viewBox="0 0 216 144" xmlns="http://www.w3.org/2000/svg"><g fill="#231f20"><path d="m53.47 91.75h-3.16l-3.72-10.79-3.72 10.79h-3.15l-5.63-16.6h3.89l3.41 11.16 3.7-11.21h3.11l3.69 11.21 3.41-11.16h3.8z"/><path d="m68.24 91.91a8.44 8.44 0 0 1 -8.73-8.48 8.76 8.76 0 0 1 17.52 0 8.52 8.52 0 0 1 -8.78 8.52m5-8.52a5 5 0 0 0 -5-5.18 4.93 4.93 0 0 0 -4.94 5.13 5 5 0 0 0 5 5.18 4.93 4.93 0 0 0 4.94-5.13z"/><path d="m89.62 91.75-3.56-5.31h-2.87v5.31h-3.65v-16.6h7.59c3.91 0 6.26 2.06 6.26 5.48a5.16 5.16 0 0 1 -3.56 5.15l4.06 5.93h-4.27zm.07-10.94c0-1.57-1.09-2.37-2.87-2.37h-3.63v4.77h3.7c1.78 0 2.8-.95 2.8-2.35z"/><path d="m106.68 91.75-5.15-7.06-1.92 1.99v5.07h-3.65v-16.6h3.65v7.26l6.74-7.26h4.41l-6.76 7.04 7.07 9.56z"/><path d="m118.57 91.86a10.49 10.49 0 0 1 -7-2.64l2.14-2.57a7.56 7.56 0 0 0 4.92 2c1.48 0 2.38-.59 2.38-1.55 0-.92-.57-1.39-3.32-2.1-3.32-.85-5.46-1.77-5.46-5 0-3 2.4-5 5.77-5a9.54 9.54 0 0 1 6.12 2.1l-1.88 2.73a7.73 7.73 0 0 0 -4.24-1.71c-1.39 0-2.12.64-2.12 1.44 0 1.08.71 1.44 3.56 2.17 3.34.87 5.23 2.07 5.23 4.94 0 3.27-2.5 5.11-6.05 5.11"/><path d="m38.04 37.58h89.17v11.87h3.94v-15.81h-97.05v15.78h3.94z"/><path d="m127.26 103.67h-89.25v-8.1h-3.89v11.99h97.03v-32.46h-3.89z"/><path d="m34.14 53.39h3.92v17.84h-3.92z"/><path d="m65.64 53.4v10.98l-8.31-10.98h-3.87v10.98l-8.35-10.98h-3.61v17.82h3.87v-11.32l8.62 11.32h3.56v-11.32l8.63 11.32h3.33v-17.82z"/><path d="m81.88 71.53a9.13 9.13 0 0 1 -9.44-9.16v-.06a9.47 9.47 0 0 1 18.94-.05v.05a9.21 9.21 0 0 1 -9.49 9.22m5.4-9.22a5.41 5.41 0 0 0 -5.4-5.6 5.33 5.33 0 0 0 -5.35 5.55v.05a5.41 5.41 0 0 0 5.4 5.6 5.33 5.33 0 0 0 5.35-5.55z"/><path d="m102.03 71.35h-3.47l-7.2-17.95h4.33l4.65 12.55 4.66-12.55h4.23z"/><path d="m120.69 71.22-1.63-4h-7.53l-1.63 4h-4l7.64-17.95h3.61l7.64 17.95zm-5.4-13.22-2.37 5.78h4.74z"/><path d="m131.1 57.02v14.2h-3.92v-14.2h-5.42v-3.62h14.76v3.62z"/><path d="m138.69 53.4h3.92v17.82h-3.92z"/><path d="m154.45 71.53a9.13 9.13 0 0 1 -9.45-9.17v-.05a9.47 9.47 0 0 1 18.94-.05v.05a9.21 9.21 0 0 1 -9.5 9.22m5.4-9.22a5.41 5.41 0 0 0 -5.4-5.6 5.33 5.33 0 0 0 -5.35 5.55v.05a5.41 5.41 0 0 0 5.4 5.6 5.33 5.33 0 0 0 5.35-5.55z"/><path d="m178.57 71.22-8.63-11.32v11.32h-3.87v-17.82h3.62l8.35 10.98v-10.98h3.87v17.82z"/></g></svg>