<svg viewBox="0 0 216 144" xmlns="http://www.w3.org/2000/svg"><circle cx="139.8" cy="86.32" fill="#ff6500" r="7.01"/><path d="m107.94 26.11a45.89 45.89 0 1 0 26.85 83.1s2.59-1.41.62-3.53a38.77 38.77 0 0 0 -10.05-4.68c-1.43-.37-1.69.12-3.33 1.05a32 32 0 0 1 -14.09 3 33 33 0 1 1 31.37-43.41 13.88 13.88 0 0 0 1 2.84c.29.55 2.64 1.71 5.09 2.92 2.63 1.3 5.41 2.65 7.07 2.45 1-.12 1-3.25 1-3.25a45.89 45.89 0 0 0 -45.53-40.49z" fill="#ff6500"/><path d="m88.13 82.13v-19.27a2.57 2.57 0 0 1 .72-1.93 2.75 2.75 0 0 1 3.66 0 2.6 2.6 0 0 1 .7 1.95v19.25a2.59 2.59 0 0 1 -.7 1.94 2.75 2.75 0 0 1 -3.66 0 2.57 2.57 0 0 1 -.72-1.94zm16.36-22.13a13.64 13.64 0 0 1 2.74.33 7.78 7.78 0 0 1 2.74 1.1 2.29 2.29 0 0 1 1.16 2 2.65 2.65 0 0 1 -.63 1.78 2.05 2.05 0 0 1 -1.64.74 3.27 3.27 0 0 1 -1-.17q-.54-.17-1.11-.39a8.13 8.13 0 0 0 -1.14-.34 5.89 5.89 0 0 0 -1.25-.12 3.24 3.24 0 0 0 -2 .6 1.88 1.88 0 0 0 -.82 1.61q0 1.09 1.85 1.75t4.11 1.4a9.47 9.47 0 0 1 3.82 2.31 6.18 6.18 0 0 1 1.56 4.54 7.39 7.39 0 0 1 -1.18 4.12 7.81 7.81 0 0 1 -3.14 2.74 9.7 9.7 0 0 1 -4.34 1 18.24 18.24 0 0 1 -5.57-.85q-2.67-.85-2.67-3a2.46 2.46 0 0 1 .62-1.71 2.11 2.11 0 0 1 1.65-.69 4.1 4.1 0 0 1 1.09.17q.6.17 1.52.49t1.62.5a6 6 0 0 0 1.46.17 4.3 4.3 0 0 0 1.87-.37 2.72 2.72 0 0 0 1.18-1 2.83 2.83 0 0 0 .41-1.51 1.65 1.65 0 0 0 -.9-1.69q-.9-.4-4.15-1.42a13.33 13.33 0 0 1 -4.75-2.39 5 5 0 0 1 -1.51-4 7.22 7.22 0 0 1 1.15-4.06 7.61 7.61 0 0 1 3.08-2.64 9.4 9.4 0 0 1 4.17-1zm11.16 22.12v-19.04a2.65 2.65 0 0 1 .7-1.94 2.6 2.6 0 0 1 2-.71h6a9.7 9.7 0 0 1 4.44 1 7.56 7.56 0 0 1 3.13 2.86 8 8 0 0 1 1.08 4.24 8.07 8.07 0 0 1 -.67 3.34 7.53 7.53 0 0 1 -1.82 2.54 8.06 8.06 0 0 1 -2.72 1.59 9.56 9.56 0 0 1 -3.28.56h-3.77v5.56a2.59 2.59 0 0 1 -.7 1.94 2.75 2.75 0 0 1 -3.66 0 2.57 2.57 0 0 1 -.73-1.93zm5.08-17.23v7.18h3.46a3.34 3.34 0 0 0 2.52-1 3.58 3.58 0 0 0 1-2.58 3.87 3.87 0 0 0 -.43-1.83 3.21 3.21 0 0 0 -1.28-1.29 3.53 3.53 0 0 0 -1.84-.47h-3.46z" fill="#1f1f1f"/></svg>