<svg viewBox="0 0 216 144" xmlns="http://www.w3.org/2000/svg"><g fill="#231f20" fill-rule="evenodd"><path d="m49.27 50.77h6.81v27.5c0 5.35.11 15.62-14.29 15.62-11.24 0-15.4-4.85-15.4-15.41h7.61c0 4.66.37 13 7.83 13 6.71 0 7.44-5.91 7.44-11.1z"/><path d="m80.17 57.6h6.68v28.86h-14.85c-9 0-12.82-3.22-12.82-17v-12l6.22.14c0 22.72-2 26 14.77 26z"/><path d="m104.41 67.38 13.59-9.78h-6.87l-14.72 10.55v-10.55h-6.11v29.17h6.12v-13.86l3.41-2.42c6.44 0 11.52 7.12 11.52 16.29h4.91c-.01-11.69-6.32-19.4-11.85-19.4z"/><path d="m137 87.05h7.15l-15-30.75-5.73 2.58 1.58 3.51-10.74 22.85.94 1.54h2.59l5.34-11.46h8.37zm-12.09-15.61 2.38-5.15 2.4 5.15z"/><path d="m182.49 86.77h6.67l-14.7-29.77-5.55 2.58 1.64 3.51-12.26 23.68h5l5.36-10.77h8.35zm-12.05-14.63 2.37-5.14 2.4 5.15h-4.78z"/><path d="m155.94 58.37v6.21c-5.68-4.38-11.58-5.21-11.58-2.81 0 4.39 15.15 8.15 15.15 18 0 8.36-15.4 8.84-22.69 5.81.07 0 0-6.3 0-6.3s2.84 3.4 10 3.77c5.13.27 7.85-.45 7.81-3.49-.07-5.46-15.39-9.63-15.54-16.7-.09-5.81 9.14-7.5 16.85-4.49z"/></g></svg>