<svg viewBox="0 0 216 144" xmlns="http://www.w3.org/2000/svg"><g fill="#231f20"><path d="m71.27 97.42v.09c0 .44 0 1.16-.06 2.16v3.72.13 6.2.09c0 1.91 0 2.59.06 3.25h.19q1.31.09 2.91.09a25.73 25.73 0 0 0 5.57-.44l-.22 2.91h-11.51v-2.34-15.82z"/><path d="m90.83 109.74a3.64 3.64 0 0 1 -3.59 3.91 3.72 3.72 0 0 1 -3.72-3.87 3.67 3.67 0 0 1 3.72-3.78 3.56 3.56 0 0 1 3.59 3.74zm2.66 0a6.08 6.08 0 0 0 -6.19-6.09 6.18 6.18 0 0 0 -6.3 6.22 5.94 5.94 0 0 0 6.22 6 6.08 6.08 0 0 0 6.27-6.13z"/><path d="m96.2 105.28a12.38 12.38 0 0 1 5.53-1.5c2.75 0 4.31 1.75 4.31 4.78v2.34 4.72h-2.75l.12-6.47c0-2.25-.62-3-2.37-3a4.33 4.33 0 0 0 -2.16.59l-.09 6.44a10.7 10.7 0 0 0 .19 2.47h-2.75l.09-6.56a14.38 14.38 0 0 0 -.25-3.69z"/><path d="m117.22 107.15v4.62.23c0 1-1.06 1.66-2.62 1.66-1.84 0-3.31-1.75-3.31-4a3.35 3.35 0 0 1 3.31-3.65 3.64 3.64 0 0 1 2.62 1.14zm2.78-10.15-3 .2v.1c0 .59 0 1.34.09 2.31.06 1.69.09 3.37.09 3.81v1.07a5.71 5.71 0 0 0 -8.62 5.44 5.72 5.72 0 0 0 5.78 6 7.42 7.42 0 0 0 3-.66 6.35 6.35 0 0 1 2.56-.47h.12a18.88 18.88 0 0 1 -.37-4.94v-.06l.13-8.38v-.12c0-.09 0-.88.06-2.31 0-.53 0-1.12 0-1.87v-.12z"/><path d="m132.58 109.74a3.64 3.64 0 0 1 -3.59 3.91 3.72 3.72 0 0 1 -3.72-3.87 3.67 3.67 0 0 1 3.73-3.78 3.56 3.56 0 0 1 3.58 3.74zm2.66 0a6.08 6.08 0 0 0 -6.19-6.09 6.18 6.18 0 0 0 -6.31 6.22 5.94 5.94 0 0 0 6.22 6 6.08 6.08 0 0 0 6.28-6.13z"/><path d="m138 105.28a12.38 12.38 0 0 1 5.53-1.5c2.75 0 4.31 1.75 4.31 4.78v2.34 4.72h-2.75l.13-6.47c0-2.25-.62-3-2.37-3a4.32 4.32 0 0 0 -2.15.59l-.09 6.44a10.72 10.72 0 0 0 .19 2.47h-2.8l.09-6.56a14.47 14.47 0 0 0 -.25-3.69z"/><path d="m83.81 121a2.84 2.84 0 0 0 -2-.89 2.52 2.52 0 0 0 -2.47 2.65 2.49 2.49 0 0 0 1.12 2.2 2.55 2.55 0 0 0 1.43.47 2.51 2.51 0 0 0 1.82-.84l.68.75a3.91 3.91 0 0 1 -2.53.93 3.45 3.45 0 0 1 -3.48-3.5 3.52 3.52 0 0 1 3.5-3.53 4.1 4.1 0 0 1 2.53.94z"/><path d="m92.16 120.9.88 2h-1.74zm3.41 5.19-.38-.81-.52-1.06v-.05l-2-4.48v-.05l-.22-.53a.47.47 0 0 0 -.21-.33.22.22 0 0 0 -.13.17l-.08.21-3 6.92h1l1-2.31h2.49l1 2.31h1.15z"/><path d="m106 119.4v6.8c0 .13 0 .17-.07.17a.27.27 0 0 1 -.15-.12l-.42-.49-.4-.49-2-2.33-.87-1-.53-.59h-.05v2.67 1.2.9s0 0 0 0h-1v-.83-1.18-4.65c0-.28 0-.41.14-.41a.53.53 0 0 1 .25.2l4.2 4.75v-1-1.76l-.08-1.9z"/><path d="m114.08 120.9.88 2h-1.74zm3.41 5.19-.38-.81-.52-1.06v-.05l-2-4.48v-.05l-.22-.53a.47.47 0 0 0 -.21-.33.23.23 0 0 0 -.13.17l-.08.21-3 6.92h1l1-2.31h2.49l1 2.31h1.15z"/><path d="m123.38 125.21v-5h.44c1.66 0 2.62.88 2.62 2.4a2.53 2.53 0 0 1 -2.58 2.66 2 2 0 0 1 -.48-.06zm-1-5.77v.5s0 .41 0 .47v4.67 1h1.16a5.24 5.24 0 0 0 2.11-.35 3.48 3.48 0 0 0 1.78-3.2c0-2-1.39-3.22-3.68-3.22a8.71 8.71 0 0 0 -1.34.11z"/><path d="m135 120.9.88 2h-1.74zm3.41 5.19-.39-.81-.52-1.06v-.05l-2-4.48v-.05l-.22-.53a.47.47 0 0 0 -.21-.33.22.22 0 0 0 -.13.17l-.08.21-3 6.92h1l1-2.31h2.49l1 2.31h1.15z"/><path d="m132.2 17.63h-61v60.37c0 6.67 5.94 12.17 12.6 12.17h61.35v-60.47c.02-6.7-6.28-12.07-12.95-12.07zm-.34 36.81a7.33 7.33 0 0 1 -5.94 3.49c-1.53-.18-2.93-.24-4.14-1.28a7.22 7.22 0 0 1 7.55-3.74 10.45 10.45 0 0 1 2.33.82c.22.13.52.47.2.71zm-19.46 1.77c-1-1-2.21-2.37-2.25-3.92a3 3 0 0 1 .82-.18 6.87 6.87 0 0 1 5 .86 7.42 7.42 0 0 1 3 3.48 5.26 5.26 0 0 1 .24 1.06 7.23 7.23 0 0 1 -6.81-1.3zm5.36 10.79-.14.16a7.35 7.35 0 0 1 -5.26-4.36 6.83 6.83 0 0 1 -.06-5.06 7.54 7.54 0 0 1 5.26 4.3 7.34 7.34 0 0 1 .2 4.96zm-19.64-8.87a1.53 1.53 0 0 1 -1.06-.38 7.13 7.13 0 0 1 5.6-5.6 7.27 7.27 0 0 1 3.58.14l.08.14a7.12 7.12 0 0 1 -8.2 5.7zm4 8a7.75 7.75 0 0 1 -2.93 1.37 6.54 6.54 0 0 1 0-5.16 7.38 7.38 0 0 1 4.81-4.34c.34-.1.42.2.44.44a7.29 7.29 0 0 1 -2.36 7.67zm-5.59 2.17a7 7 0 0 1 -2.63 2.35 1.53 1.53 0 0 1 -.48-.65 7.35 7.35 0 0 1 .88-8.09l.28-.2a9 9 0 0 1 2-1.43 6.55 6.55 0 0 1 .87 1.47 7.19 7.19 0 0 1 -.92 6.51zm-4.53-13.96a6.43 6.43 0 0 1 2.55 2.45.67.67 0 0 1 .24.34c-.14.54-.94.62-1.35.9a7.2 7.2 0 0 1 -7.73-1.85 6 6 0 0 1 -1-1.44l.06-.2a7.31 7.31 0 0 1 7.23-.2zm-2-2.81v-.2a7.51 7.51 0 0 1 6.27-2.15 6.72 6.72 0 0 1 4.16 2.21 6.33 6.33 0 0 1 -3.11 2.05 7.31 7.31 0 0 1 -5.12-.34 5.06 5.06 0 0 1 -2.2-1.57zm15.73 6.87a6.87 6.87 0 0 1 2.33-5 2.63 2.63 0 0 1 1.09 1 7 7 0 0 1 1 7.13 8.67 8.67 0 0 1 -1.57 2.43c-.16.26-.42.1-.58 0l-.48-.56h-.06a7.25 7.25 0 0 1 -1.71-4.26 2.14 2.14 0 0 1 .02-.74zm18.64-9a6.64 6.64 0 0 1 2.33 1.67 2.76 2.76 0 0 1 -.86 1 7.09 7.09 0 0 1 -6.49 1.19 5.44 5.44 0 0 1 -3.3-2.11 7.35 7.35 0 0 1 8.36-1.77zm-2.83-3.82.1-.34a7.34 7.34 0 0 1 7.83.28 7.17 7.17 0 0 1 2.15 2.59 7.1 7.1 0 0 1 -6.73.58 8 8 0 0 1 -3.31-3.13zm-3.15 1.37a7 7 0 0 1 -6.75 3.68 6 6 0 0 1 -1.61-.28 6.37 6.37 0 0 1 2-3.73 7.2 7.2 0 0 1 6.65-1.77c.16.16.3-.08.42.18a5.59 5.59 0 0 1 -.72 1.87zm-8-1a6.73 6.73 0 0 1 -2.15 3.52 7 7 0 0 1 -2.39-7.17 6.21 6.21 0 0 1 2.25-3.62 7.33 7.33 0 0 1 2.35 7.22zm8.84 15.38a3.79 3.79 0 0 1 .81-1.61 7.09 7.09 0 0 1 3.39 4.1 6.65 6.65 0 0 1 -.68 5.87l-.18.16a6.53 6.53 0 0 1 -3.21-3.54 6.8 6.8 0 0 1 -.58-2 6.16 6.16 0 0 1 .51-3.04zm12.53-23.94a3.51 3.51 0 0 1 -.3 1.3 7.14 7.14 0 0 1 -6.15 4.64 6.89 6.89 0 0 1 -2.83-.44 5.91 5.91 0 0 1 1.15-2.73v-.16a7.33 7.33 0 0 1 8.19-2.67zm-12.67-1.39a6.61 6.61 0 0 1 3.35-3.86 4.73 4.73 0 0 1 1.3 3 7.8 7.8 0 0 1 -1.81 5.64 7.36 7.36 0 0 1 -2.11 1.57 6.82 6.82 0 0 1 -.73-6.35zm-1.53.38a7.46 7.46 0 0 1 -1.71 5.9 8.49 8.49 0 0 1 -2.85 1.95 1.8 1.8 0 0 1 -1.19.18 9 9 0 0 1 -.32-2.81 11.24 11.24 0 0 1 .72-2.49 7.82 7.82 0 0 1 4.79-3.89c.62 0 .36.78.56 1.2zm-2.33-6.63a6.33 6.33 0 0 1 1.81-.1l.1.2a7 7 0 0 1 -3.82 6.25 6.89 6.89 0 0 1 -3.64.76 4.55 4.55 0 0 1 .16-1.71 7 7 0 0 1 5.39-5.36zm-9.46-1.87a7.31 7.31 0 0 1 2.23-3.69 2.3 2.3 0 0 1 .76.58 7.8 7.8 0 0 1 1.77 5.6 9.46 9.46 0 0 1 -.72 2.23c-.38.34-.16.66-.62.92a3.06 3.06 0 0 1 -1.28 1.16 5.82 5.82 0 0 1 -1.83-2.63 6.51 6.51 0 0 1 -.31-4.14zm-7 1.73a4.59 4.59 0 0 1 1.73 0 6.84 6.84 0 0 1 5.74 7.17 3.65 3.65 0 0 1 -1.73 0 7.14 7.14 0 0 1 -5.51-4.84 5.76 5.76 0 0 1 -.22-2.29zm.23 5.85a.61.61 0 0 1 .62.1l.48.1a14.07 14.07 0 0 1 2 1.05 4.56 4.56 0 0 1 .78.86 7.26 7.26 0 0 1 1.57 6.93c-.24.3-.52 0-.78 0a7.17 7.17 0 0 1 -5-6 7.06 7.06 0 0 1 .33-3.04zm2.83 9.62a7.47 7.47 0 0 1 4.64 5.16 2.06 2.06 0 0 1 -1.15.38 7.15 7.15 0 0 1 -7-3 7.74 7.74 0 0 1 -1-2.35c0-.4.52-.18.68-.38a8.51 8.51 0 0 1 3.84.19zm-8.17-12.29c.52-.24.94.38 1.36.58a5.59 5.59 0 0 1 1.81 2.25l.17.14a8.1 8.1 0 0 1 .48 4.54 5.34 5.34 0 0 1 -.8 2 .4.4 0 0 1 -.24.42 7 7 0 0 1 -3.82-6.83 6.78 6.78 0 0 1 1.04-3.1zm-8.16 4.74a6.92 6.92 0 0 1 5.5 1.24h.14a7.67 7.67 0 0 1 2.67 4.34 5.78 5.78 0 0 1 -3.35.48 7.36 7.36 0 0 1 -6-5.4c-.32-.66.69-.52 1.03-.66zm-.68 10.36a6.85 6.85 0 0 1 2.59-2.33 7.39 7.39 0 0 1 5.77-.56 5 5 0 0 1 1.53.78 1 1 0 0 1 -.28.48 7.2 7.2 0 0 1 -10 2.49 1.36 1.36 0 0 1 .39-.86zm-.32 17.45a4.94 4.94 0 0 1 .71-2.34l.28-.34a7.27 7.27 0 0 1 8.3-2.91 7.06 7.06 0 0 1 -4.79 5.59 6.67 6.67 0 0 1 -4.5 0zm23.69 17.59h-19.64s.52-1.58 5-1.58a24.43 24.43 0 0 0 8.45-1.67s2.87-1.41 2.87-7.73c0-5.41-.75-6.32-.75-6.32a7.72 7.72 0 0 0 1.07-2.63l3 4 3-4a7.73 7.73 0 0 0 1.08 2.58s-.75.91-.75 6.32c0 6.65 2.87 7.73 2.87 7.73a24.46 24.46 0 0 0 8.44 1.66c4.49 0 5 1.58 5 1.58h-19.64zm17.65-18.93a7.65 7.65 0 0 1 -3.17-4.58 6 6 0 0 1 5.64.34 6.19 6.19 0 0 1 2.87 2.63h.1a8.58 8.58 0 0 1 .82 2.23 6.91 6.91 0 0 1 -6.26-.62z"/></g></svg>