<svg viewBox="0 0 216 144" xmlns="http://www.w3.org/2000/svg"><path d="m182.24 52.86-1.24-.38-2.45-.76-1.06-.33a6.94 6.94 0 0 0 -3.21-5.39 10.73 10.73 0 0 0 -4.36-1.59l-.51-.06a14.36 14.36 0 0 0 -2.72-.11c-.81 0-1.64.13-2.47.25-.54.08-1.12.19-1.72.32s-1.13.27-1.73.43a25.82 25.82 0 0 0 -3.12 1.1l1-3.06 1.2-3.65.6-1.82.55-1.81-1.84.27-1.84.27-3.67.55-4.51.68-4.56.68-1.87.28-.94.14-.94.14-.3.93-.3.93-.61 1.86-1.9 5.87a16.19 16.19 0 0 0 -2.51.18l-.41.06-.45.07h-.31-.08a21.07 21.07 0 0 0 -4 1.36s0-.05 0-.08a6.48 6.48 0 0 0 -2.55-5.35 9.62 9.62 0 0 0 -3.18-1.6 6.5 6.5 0 0 0 -.75-.19h-.19-.1-.19a11 11 0 0 0 -1.8-.12 13.08 13.08 0 0 0 -1.76.14h-.26-.26-.11-.12-.06-.11a14.66 14.66 0 0 0 -3.73 1.44 11.48 11.48 0 0 0 -3.93 3.52v.06a9.8 9.8 0 0 0 -1 2.08 8.18 8.18 0 0 0 -.45 2 10.45 10.45 0 0 0 -1.77.11 14.57 14.57 0 0 0 -1.75.38 12.76 12.76 0 0 0 -2.07.79 20.58 20.58 0 0 0 -2.44 1.35l-.64-.23a12.4 12.4 0 0 0 -4.79-.55 11.34 11.34 0 0 0 -1.22.11 11 11 0 0 0 -1.17.24l-.46.11a9.85 9.85 0 0 0 -1.32-3.83 9.4 9.4 0 0 0 -4.33-3.7 20.18 20.18 0 0 0 -8-1.7 61.9 61.9 0 0 0 -11.42.83 58.77 58.77 0 0 0 -10.21 2.72 54.32 54.32 0 0 0 -9.2 4 40.6 40.6 0 0 0 -7.62 5.45 20.56 20.56 0 0 0 -5.29 7.26 13.12 13.12 0 0 0 -.91 2.82 13.54 13.54 0 0 0 -.22 2.67 9 9 0 0 0 2.53 6.52 8.55 8.55 0 0 0 7.21 2.34 12 12 0 0 1 -.93 1.14l-.33.37-.33.38-3 3.44-1.48 1.81-1.5 1.72 2 .37 2 .37 3.67.67.46.18.22.09a13.14 13.14 0 0 0 4 .83 20.2 20.2 0 0 0 4.3-.2l.68-.1a10.53 10.53 0 0 0 1.26-.27 24.19 24.19 0 0 0 7.08-2.89 13.16 13.16 0 0 0 6-7.25c.26-.74.51-1.48.75-2.23s.46-1.38.7-2.07v-.06-.08l.1-.3.37-.05c.77-.11 1.56-.25 2.36-.41s1.62-.35 2.42-.55h.06q1.28-.34 2.54-.79l.9.22 1.2.3 2.43.5 1.63.41-.65 1.9-1.23 3.69-.63 1.84-.64 1.86 1.86-.28 1.86-.28 3.71-.56 8.84-1.31 1.87-.27.94-.14.94-.14.3-.94.3-.94.6-1.87.09-.27.12-.37.07-.22.07-.21v-.05c.21-.6.41-1.2.59-1.8s.29-.94.46-1.46c.31-1 .66-1.94 1-2.9l.24.08v.39a9.72 9.72 0 0 0 1.47 5.3 7.77 7.77 0 0 0 5.34 3.44 11.16 11.16 0 0 0 2.45.23 16 16 0 0 0 2.13-.18h.21.21.29a19.1 19.1 0 0 0 4.8-1.68 17.2 17.2 0 0 0 2.51-1.7 10.56 10.56 0 0 0 2.09.78 14.09 14.09 0 0 0 5.24.31h.14a16.84 16.84 0 0 0 5.6-1.93l.68-.4.47.15a11.83 11.83 0 0 0 5.09.3 17.39 17.39 0 0 0 8.93-3.9 14.89 14.89 0 0 0 3.34 1.06h.1a22.21 22.21 0 0 0 2.74.29 19.78 19.78 0 0 0 2.72-.07 8.32 8.32 0 0 0 1.05-.09l.57-.09a26.11 26.11 0 0 0 4.55-1.11 23.32 23.32 0 0 0 4.51-2.11 19.91 19.91 0 0 0 6-5.68 40.45 40.45 0 0 0 3.18-5.64l1.21-2.6.6-1.3.6-1.3z" fill="#d3d5d6"/><path d="m182.24 50.58-1.24-.39-2.45-.76-1.06-.33a6.94 6.94 0 0 0 -3.22-5.41 10.71 10.71 0 0 0 -4.36-1.59l-.5-.1a14.36 14.36 0 0 0 -2.72-.11c-.81 0-1.64.13-2.47.25-.54.08-1.12.19-1.72.32s-1.13.27-1.73.43a25.81 25.81 0 0 0 -3.12 1.1l1-3.06 1.2-3.65.6-1.82.6-1.83-1.84.28-1.84.27-3.67.55-4.51.68-4.56.68-1.87.28-.94.14-.94.14-.3.93-.3.93-.61 1.86-1.9 5.87a16.19 16.19 0 0 0 -2.51.18l-.41.06-.45.07h-.31-.08a21 21 0 0 0 -4.01 1.45s0-.05 0-.08a6.47 6.47 0 0 0 -2.55-5.35 9.63 9.63 0 0 0 -3.18-1.6 6.5 6.5 0 0 0 -.75-.19h-.19-.1-.23a11.13 11.13 0 0 0 -1.8-.12 13.16 13.16 0 0 0 -1.76.14h-.26-.26-.11-.12-.06-.11a14.69 14.69 0 0 0 -3.73 1.44 11.48 11.48 0 0 0 -3.93 3.52v.06a9.8 9.8 0 0 0 -1 2.08 8.18 8.18 0 0 0 -.45 2.05 10.47 10.47 0 0 0 -1.77.11 14.48 14.48 0 0 0 -1.75.37 12.68 12.68 0 0 0 -2.07.79 20.46 20.46 0 0 0 -2.44 1.35l-.64-.24a12.4 12.4 0 0 0 -4.94-.33 11.34 11.34 0 0 0 -1.22.11 10.9 10.9 0 0 0 -1.17.24l-.46.11a9.85 9.85 0 0 0 -1.32-3.83 9.41 9.41 0 0 0 -4.33-3.7 20.19 20.19 0 0 0 -8-1.7 61.89 61.89 0 0 0 -11.42.83 58.81 58.81 0 0 0 -10.06 2.44 54.39 54.39 0 0 0 -9.2 4 40.58 40.58 0 0 0 -7.62 5.5 20.55 20.55 0 0 0 -5.29 7.26 13.14 13.14 0 0 0 -.86 2.74 13.55 13.55 0 0 0 -.27 2.64 9 9 0 0 0 2.53 6.52 8.55 8.55 0 0 0 7.21 2.34 12 12 0 0 1 -.93 1.22l-.33.37-.33.38-3 3.44-1.5 1.72-1.5 1.72 2 .37 2 .37 3.67.67.49.24.22.09a13.17 13.17 0 0 0 4 .83 20.23 20.23 0 0 0 4.3-.2l.68-.1a10.28 10.28 0 0 0 1.26-.27 24.17 24.17 0 0 0 7.08-2.89 13.16 13.16 0 0 0 6-7.25c.26-.74.51-1.48.75-2.23s.46-1.38.7-2.07v-.06-.08l.1-.3.37-.05c.77-.12 1.56-.26 2.36-.41s1.62-.35 2.42-.55h.07q1.28-.34 2.54-.79l.9.22 1.2.3 2.39.6 1.63.41-.63 1.8-1.23 3.73-.63 1.84-.63 1.84 1.86-.28 1.86-.28 3.71-.56 8.83-1.29 1.88-.28.94-.14.94-.14.3-.93.3-.94.6-1.87.04-.3.12-.37.07-.22.07-.21v-.05c.21-.6.41-1.2.59-1.8s.29-.94.46-1.46c.31-1 .66-1.94 1-2.9l.24.08v.39a9.72 9.72 0 0 0 1.47 5.3 7.77 7.77 0 0 0 5.34 3.44 11.11 11.11 0 0 0 2.45.23 16.1 16.1 0 0 0 2.13-.18h.21.21.29a19.11 19.11 0 0 0 4.8-1.68 17.2 17.2 0 0 0 2.55-1.69 10.57 10.57 0 0 0 2.09.78 14.07 14.07 0 0 0 5.24.31h.14a16.81 16.81 0 0 0 5.6-1.93l.63-.44.47.15a11.81 11.81 0 0 0 5.09.3 17.39 17.39 0 0 0 8.92-3.89 14.9 14.9 0 0 0 3.34 1.06h.1a22.12 22.12 0 0 0 2.74.29 19.71 19.71 0 0 0 2.72-.07 8 8 0 0 0 1.05-.09l.57-.09a26.19 26.19 0 0 0 4.55-1.11 23.35 23.35 0 0 0 4.51-2.11 19.89 19.89 0 0 0 6-5.68 40.37 40.37 0 0 0 3.24-5.61l1.21-2.6.6-1.3.6-1.3z" fill="#a764a6"/><path d="m180.47 51.47-2.47-.77-1.77-.55c0-.06 0-.12 0-.18a6 6 0 0 0 -2.77-5.13 9.62 9.62 0 0 0 -3.92-1.43l-.47-.06h-.07a13.08 13.08 0 0 0 -2.48-.1c-.77 0-1.56.12-2.34.24-.52.08-1.07.18-1.63.3s-1.09.26-1.65.41a24.7 24.7 0 0 0 -5.4 2.25l.16-.5 1.72-5.23 1.2-3.65.6-1.82-1.84.28-3.67.55-4.51.68-4.56.68-1.87.28-.94.14-.3.93-.6 1.86-2.27 7a14.44 14.44 0 0 0 -3.38.12l-.41.06-.45.07h-.2-.09a19.88 19.88 0 0 0 -4.79 1.76c-.34.18-.68.37-1 .56l.08-.24v-.08-.05-.06c.06-.26.11-.51.15-.77a6.19 6.19 0 0 0 .06-.88 5.38 5.38 0 0 0 -2.12-4.45 8.63 8.63 0 0 0 -2.85-1.43 5.58 5.58 0 0 0 -.61-.15h-.18-.11-.09a9.74 9.74 0 0 0 -1.6-.1 11.8 11.8 0 0 0 -1.58.13h-.26-.26-.11-.11-.1a13.17 13.17 0 0 0 -3.35 1.29 9.87 9.87 0 0 0 -3.38 3 8.28 8.28 0 0 0 -.87 1.75 6.55 6.55 0 0 0 -.4 2.21 6.1 6.1 0 0 0 .1 1.07c-.23-.05-.47-.09-.71-.12a9 9 0 0 0 -2.44 0 13.39 13.39 0 0 0 -1.58.34 11.43 11.43 0 0 0 -1.85.7 19.08 19.08 0 0 0 -2.89 1.67 8 8 0 0 0 -1.15-.48 11.18 11.18 0 0 0 -4.36-.5 9.79 9.79 0 0 0 -1.1.1 9.56 9.56 0 0 0 -1.06.22 15.13 15.13 0 0 0 -1.79.51s0 0 0-.06a8.94 8.94 0 0 0 -1.24-4.66 8.37 8.37 0 0 0 -3.86-3.28 19.13 19.13 0 0 0 -7.57-1.59 60.6 60.6 0 0 0 -11.17.81 57.37 57.37 0 0 0 -9.82 2.38 52.81 52.81 0 0 0 -8.94 3.93 39.06 39.06 0 0 0 -7.27 5.19 19 19 0 0 0 -4.91 6.96 11.68 11.68 0 0 0 -.82 2.52 12.18 12.18 0 0 0 -.24 2.38 7.86 7.86 0 0 0 2.16 5.72 7.54 7.54 0 0 0 6.5 2l.64-.08q.53-.08 1-.2l-.3.94v.05a4.5 4.5 0 0 1 -.5 1.09 13.43 13.43 0 0 1 -1.13 1.5l-.31.42-.33.38-3 3.44-1.5 1.72 2 .37 3.83.69a3.39 3.39 0 0 0 .5.2l.23.09a12 12 0 0 0 3.63.75 19 19 0 0 0 4-.19l.68-.1a8.61 8.61 0 0 0 1.14-.27 22.66 22.66 0 0 0 6.68-2.72 11.63 11.63 0 0 0 5.33-6.41c.25-.73.5-1.47.74-2.2s.46-1.4.7-2.09v-.06l.4-1.26 1.31-.17c.75-.11 1.52-.25 2.29-.4s1.56-.33 2.36-.53a33 33 0 0 0 4.42-1.53l-.35 1 1.2.3 2.39.6 2.47.47.41.1-1.07 3.15-1.25 3.75-.63 1.84 1.86-.28 3.71-.56 8.85-1.33 1.88-.28.94-.14.3-.94.6-1.87.09-.27.11-.35.14-.44v-.08c.2-.57.39-1.16.57-1.75s.31-1 .48-1.51c.37-1.17.81-2.35 1.29-3.51q.21-.5.44-1l.16.02a6.29 6.29 0 0 0 2.06.77c0 .43-.07.85-.07 1.25a8.57 8.57 0 0 0 1.29 4.67 6.76 6.76 0 0 0 4.65 3 9.9 9.9 0 0 0 2.18.2 14.76 14.76 0 0 0 2-.16h.21.21.22a17.62 17.62 0 0 0 4.43-1.55 15.56 15.56 0 0 0 2.82-2.03 9.38 9.38 0 0 0 2.55 1.07 12.88 12.88 0 0 0 4.78.29h.1a15.35 15.35 0 0 0 5.11-1.76q.62-.34 1.21-.74a6.49 6.49 0 0 0 1 .36 10.62 10.62 0 0 0 4.57.27 15.66 15.66 0 0 0 8.82-4.19 13.34 13.34 0 0 0 3.86 1.36 21.35 21.35 0 0 0 2.59.27 18.58 18.58 0 0 0 2.59-.07 6.64 6.64 0 0 0 .93-.08l.57-.09a24.82 24.82 0 0 0 4.3-1 21.79 21.79 0 0 0 4.22-2 18.29 18.29 0 0 0 5.56-5.21 38.75 38.75 0 0 0 3.06-5.42l1.21-2.6.6-1.3z" fill="#eb212e"/><path d="m177.48 51.97-2.39-.74-.17-.05a8 8 0 0 0 0-1 4.92 4.92 0 0 0 -2.26-4.18 8.52 8.52 0 0 0 -3.47-1.27l-.45-.05h-.08a11.81 11.81 0 0 0 -2.25-.09c-.73 0-1.47.11-2.22.22-.5.07-1 .17-1.54.28s-1 .24-1.57.39a23.51 23.51 0 0 0 -7.13 3.4c-.26.18-.5.37-.74.56l1.22-3.72 1.72-5.23 1.2-3.65-3.67.55-4.51.68-4.56.68-1.87.28-.6 1.86-2.67 8.24-.47-.13a12.91 12.91 0 0 0 -3.77 0l-.41.06-.45.07h-.1-.1a18.47 18.47 0 0 0 -4.43 1.63 18.19 18.19 0 0 0 -3.86 2.66l-.36.34.68-2.14a6.69 6.69 0 0 0 .93-1.91v-.08-.08c.05-.21.09-.42.12-.64a4.92 4.92 0 0 0 .05-.69 4.29 4.29 0 0 0 -1.69-3.54 7.59 7.59 0 0 0 -2.52-1.27 4.18 4.18 0 0 0 -.48-.12h-.17-.1-.07a8.54 8.54 0 0 0 -1.4-.09 10.3 10.3 0 0 0 -1.41.11h-.26-.26-.11-.11a11.66 11.66 0 0 0 -3 1.15 8.27 8.27 0 0 0 -2.84 2.54 6.78 6.78 0 0 0 -.71 1.43 5.14 5.14 0 0 0 -.31 1.74 4.73 4.73 0 0 0 .69 2.49l-.89.13-.12.37a6.78 6.78 0 0 0 -1.93-.54 7.76 7.76 0 0 0 -2.1 0 11.84 11.84 0 0 0 -1.41.3 9.85 9.85 0 0 0 -1.59.6 17.61 17.61 0 0 0 -2.91 1.7l-.49.36a6.74 6.74 0 0 0 -1.63-.78 10 10 0 0 0 -3.91-.44 8.6 8.6 0 0 0 -1 .09 7.84 7.84 0 0 0 -.94.2 13.24 13.24 0 0 0 -3.37 1.2 11 11 0 0 0 .17-1.84 7.78 7.78 0 0 0 -1.08-4.06 7.33 7.33 0 0 0 -3.39-2.86 18 18 0 0 0 -7.14-1.49 59.34 59.34 0 0 0 -10.92.8 56 56 0 0 0 -9.6 2.6 51.45 51.45 0 0 0 -8.69 3.81 37.44 37.44 0 0 0 -7 5 17.36 17.36 0 0 0 -4.47 6.19 10.22 10.22 0 0 0 -.73 2.23 10.76 10.76 0 0 0 -.22 2.11 6.76 6.76 0 0 0 1.9 4.92 6.45 6.45 0 0 0 5.57 1.68l.58-.07a9.43 9.43 0 0 0 3-1l-1 3.24a6.06 6.06 0 0 1 -.7 1.52 15 15 0 0 1 -1.27 1.68l-.33.37-.33.37-3 3.44 3.92.72.15.06a2.27 2.27 0 0 0 .44.17l.26.11a10.9 10.9 0 0 0 3.28.68 17.66 17.66 0 0 0 3.75-.18l.68-.1a7.4 7.4 0 0 0 1-.22 21.14 21.14 0 0 0 6.27-2.55 10.07 10.07 0 0 0 4.64-5.53c.25-.72.5-1.45.73-2.18s.47-1.41.71-2.11v-.08q.32-1 .67-2.09l.05-.19c.74-.05 1.48-.14 2.22-.25s1.49-.24 2.22-.39 1.51-.32 2.27-.51a31.66 31.66 0 0 0 6.77-2.69l-.87 2.4 2.39.6 2.39.6 1.58.4-1.49 4.4-1.25 3.68 3.71-.56 8.9-1.31 1.88-.28.6-1.87.09-.27.11-.34.17-.55c.19-.55.38-1.12.56-1.7s.31-1 .5-1.56c.39-1.22.84-2.44 1.34-3.64a16.52 16.52 0 0 1 1.4-2.66 4.35 4.35 0 0 0 1.11.93 5.11 5.11 0 0 0 2.75.72c-.06.29-.1.57-.14.85a11.42 11.42 0 0 0 -.09 1.43 7.41 7.41 0 0 0 1.12 4 5.76 5.76 0 0 0 4 2.5 8.74 8.74 0 0 0 1.92.18 13.44 13.44 0 0 0 1.78-.15h.21.21.07.07a16.18 16.18 0 0 0 4.06-1.42 13.77 13.77 0 0 0 3.28-2.54 8.26 8.26 0 0 0 3 1.45 11.64 11.64 0 0 0 4.33.26h.07a13.89 13.89 0 0 0 4.63-1.6 13.61 13.61 0 0 0 1.78-1.11 5.45 5.45 0 0 0 1.42.64 9.41 9.41 0 0 0 4 .24 13.89 13.89 0 0 0 8.77-4.56 11.73 11.73 0 0 0 4.32 1.73h.06a20.23 20.23 0 0 0 2.44.26 17.21 17.21 0 0 0 2.47-.07 5.59 5.59 0 0 0 .8-.06l.57-.09a23.31 23.31 0 0 0 4.05-1 20.22 20.22 0 0 0 3.91-1.82 16.69 16.69 0 0 0 5.08-4.75 37.12 37.12 0 0 0 2.93-5.19l1.21-2.6z" fill="#fff"/><path d="m82.35 63.94a28.52 28.52 0 0 1 -7.74 3.36q-1.09.27-2.15.48t-2.09.37q-1 .15-2.06.23l-2 .16q-.38 1.09-.73 2.17l-.68 2.11q-.38 1.09-.73 2.17t-.73 2.17a6.94 6.94 0 0 1 -3.22 3.84 18.12 18.12 0 0 1 -5.48 2.21 4.38 4.38 0 0 1 -.68.16l-.68.1a15.07 15.07 0 0 1 -3.2.15 8.49 8.49 0 0 1 -2.61-.53l-.19-.09-.19-.08a.1.1 0 0 1 -.08 0l-.11-.09a1.26 1.26 0 0 1 -.3-.09 1.4 1.4 0 0 0 -.3-.09l.33-.37.33-.37a18.07 18.07 0 0 0 1.55-2.05 9.1 9.1 0 0 0 1.06-2.3q1.41-4.39 2.85-8.71t2.85-8.65a19.86 19.86 0 0 1 1.06-2.58 21.85 21.85 0 0 1 1.38-2.41q-.71.32-1.49.74t-1.55.91a22 22 0 0 0 -4 3.27 9.47 9.47 0 0 0 -2.47 4l-.19.9a3.57 3.57 0 0 0 -.08.72 1.65 1.65 0 0 0 .35 1.11 3.63 3.63 0 0 0 1 .75 6.76 6.76 0 0 0 .68.31c.23.09.5.21.79.34a15.12 15.12 0 0 1 -2.63 2.74 6.26 6.26 0 0 1 -3.42 1.3 4.3 4.3 0 0 1 -3.72-1 4.53 4.53 0 0 1 -1.28-3.31 8 8 0 0 1 .2-1.67 7.27 7.27 0 0 1 .54-1.63 14.08 14.08 0 0 1 3.72-5.06 34 34 0 0 1 6.38-4.54 48.13 48.13 0 0 1 8.17-3.58 52.81 52.81 0 0 1 9.1-2.2 56.48 56.48 0 0 1 10.43-.77 15.9 15.9 0 0 1 6.24 1.26 5.29 5.29 0 0 1 2.5 2 5.44 5.44 0 0 1 .76 2.85 8.24 8.24 0 0 1 -.14 1.46 10.86 10.86 0 0 1 -.41 1.55 11.28 11.28 0 0 1 -4.94 6.28zm-3.35-9.79a4.51 4.51 0 0 0 .14-1.05 1.63 1.63 0 0 0 -.79-1.54 3.84 3.84 0 0 0 -2.35-.21 5.93 5.93 0 0 0 -3.75 2.05 11.37 11.37 0 0 0 -2.17 3.83q-.71 2.06-1.36 4.11l-1.3 4.11a16.16 16.16 0 0 0 7-3.4 16.91 16.91 0 0 0 4.29-6.64 9.84 9.84 0 0 0 .29-1.26z" fill="#eb212e"/><path d="m111.8 58.54v.53a4.24 4.24 0 0 1 -1.07 3 4 4 0 0 1 -2.36 1.38h-.14a2.84 2.84 0 0 1 -1.93-.45 3 3 0 0 1 -1.29-2 1.35 1.35 0 0 0 -.36-.59.5.5 0 0 0 -.5-.09 2 2 0 0 0 -1.07.71 11.62 11.62 0 0 0 -1.26 1.69 19.51 19.51 0 0 0 -2 3.59q-.82 2.02-1.4 3.98-.29.85-.53 1.65t-.53 1.61l-.19.6-.19.6-8.84 1.32 4-11.68a.86.86 0 0 0 .1-.35v-.23a.57.57 0 0 0 -.41-.63 1.92 1.92 0 0 0 -.93 0 4.28 4.28 0 0 0 -2.2 1.48 12.33 12.33 0 0 0 -1.58 2.39q-.14.26-.29.57c-.09.21-.18.39-.24.56l-2.39-.6a21.89 21.89 0 0 1 3.65-6.4 10.2 10.2 0 0 1 6-3.7 5.15 5.15 0 0 1 .69-.15 6.09 6.09 0 0 1 .74-.06 7.56 7.56 0 0 1 3 .33 4.38 4.38 0 0 1 2.32 1.73q1.05-.92 2.22-1.77a14.34 14.34 0 0 1 2.41-1.41 6.82 6.82 0 0 1 1.12-.43 8.63 8.63 0 0 1 1.07-.23 5.15 5.15 0 0 1 1.41 0 4.44 4.44 0 0 1 1.31.38 2.61 2.61 0 0 1 1 .9 3.78 3.78 0 0 1 .5 1.21 1.64 1.64 0 0 1 .16.56z" fill="#f0662f"/><path d="m87.45 64.81c.17-.23.35-.46.54-.69a5.43 5.43 0 0 1 2.8-1.86l.31-.06a2.66 2.66 0 0 1 1.07 0 1.35 1.35 0 0 1 1 1.43v.17q3.8-.62 7.7-1.21l.19-.28a12.69 12.69 0 0 1 1.38-1.84 3.13 3.13 0 0 1 1.65-1h.17a1.31 1.31 0 0 1 1.08.29 2.08 2.08 0 0 1 .59.93v.06a3.06 3.06 0 0 0 .51 1.1l3.74-.52a3.21 3.21 0 0 0 .66-2.07v-.58a.78.78 0 0 0 0-.26 3 3 0 0 0 -.39-1 1.83 1.83 0 0 0 -.67-.63 3.6 3.6 0 0 0 -1-.3 4.24 4.24 0 0 0 -1.16 0 7.86 7.86 0 0 0 -1 .21 6 6 0 0 0 -1 .37 13.19 13.19 0 0 0 -2.22 1.3c-.75.54-1.47 1.11-2.13 1.7l-.83.73-.59-.8a3.59 3.59 0 0 0 -1.91-1.43 6.7 6.7 0 0 0 -2.68-.3h-.06a5 5 0 0 0 -.62.05 4.25 4.25 0 0 0 -.56.12h-.08a9 9 0 0 0 -5.39 3.3 21.51 21.51 0 0 0 -2.2 3.26z" fill="#fff" opacity=".25"/><path d="m126.72 62.43-.26.49q-.76 1.65-1.67 3.22a15.11 15.11 0 0 1 -2.2 2.92 10.46 10.46 0 0 1 -2.79 2 13.15 13.15 0 0 1 -3.32 1.17h-.21-.21a10.81 10.81 0 0 1 -1.43.12 6.33 6.33 0 0 1 -1.38-.13 3.7 3.7 0 0 1 -2.58-1.55 5.07 5.07 0 0 1 -.76-2.78 8.54 8.54 0 0 1 .09-.99 10.79 10.79 0 0 1 .21-1.16c.06-.2.12-.39.17-.58s.1-.37.17-.58q.72-2.31 1.45-4.58t1.5-4.61l2.32-.35 2.36-.35 2.36-.35 2.32-.35q-.29.91-.6 1.84t-.6 1.84q-.62 1.82-1.22 3.66t-1.15 3.67a5.77 5.77 0 0 0 -.24.73 2.67 2.67 0 0 0 -.1.66.53.53 0 0 0 .21.45.92.92 0 0 0 .74 0 2.46 2.46 0 0 0 1-.45 7.51 7.51 0 0 0 1.19-1.07 10.8 10.8 0 0 0 1.41-2q.55-1 1-2.17l.41.13.41.13q.38.14.79.24a6.93 6.93 0 0 1 .84.28 4.62 4.62 0 0 1 -.23.5zm-3.13-11.36a6.6 6.6 0 0 1 -1.59 1.12l-.33.12-.29.11-.79.21a7.18 7.18 0 0 1 -.79.17 8.45 8.45 0 0 1 -2.1.05 4.31 4.31 0 0 1 -1.86-.61 2.91 2.91 0 0 1 -1-1 2.39 2.39 0 0 1 -.36-1.26 2.33 2.33 0 0 1 .14-.79 3.65 3.65 0 0 1 .38-.77 5.06 5.06 0 0 1 1.74-1.55 8.69 8.69 0 0 1 2.22-.86h.26.26a7.66 7.66 0 0 1 1.05-.09 6.26 6.26 0 0 1 1 .06l.29.02.24.06a5.39 5.39 0 0 1 1.84.92 2.07 2.07 0 0 1 .84 1.74 2.29 2.29 0 0 1 0 .31c0 .11 0 .24-.07.37a3.7 3.7 0 0 1 -1.08 1.67z" fill="#e7d337"/><path d="m123.26 47.79a4.65 4.65 0 0 0 -1.57-.79h-.11l-.28-.05a5.35 5.35 0 0 0 -.84-.05 6.8 6.8 0 0 0 -.92.07h-.26l-.28.03a7.7 7.7 0 0 0 -1.91.74 3.87 3.87 0 0 0 -1.33 1.17 2.54 2.54 0 0 0 -.25.52 1.31 1.31 0 0 0 -.08.44 1.53 1.53 0 0 0 .24.81 2.13 2.13 0 0 0 .72.72 3.47 3.47 0 0 0 1.51.49 7.5 7.5 0 0 0 1.87 0 6.19 6.19 0 0 0 .68-.14l.69-.19.34-.13.22-.08a5.46 5.46 0 0 0 1.3-.91 2.55 2.55 0 0 0 .72-1.12c0-.09 0-.17 0-.23a1.41 1.41 0 0 0 0-.18 1.26 1.26 0 0 0 -.46-1.12zm-5.06 7.84-2.36.35-1.64.25q-.65 2-1.28 3.93l-.26.8q3.68-.49 7.27-.93c.28-.86.57-1.71.85-2.54q.29-.91.6-1.85l.17-.51-1 .15z" fill="#fff" opacity=".25"/><path d="m150.24 64.7a10.86 10.86 0 0 1 -7 3.55 6.92 6.92 0 0 1 -3-.17 3.23 3.23 0 0 1 -2.08-1.84 10.65 10.65 0 0 1 -3.13 2.62 10.92 10.92 0 0 1 -3.65 1.26 9.17 9.17 0 0 1 -3.42-.21 6.19 6.19 0 0 1 -2.89-1.67 5.58 5.58 0 0 1 -1.24-1.75 7.36 7.36 0 0 1 -.57-2 4.1 4.1 0 0 0 0-.45 3.47 3.47 0 0 1 0-.4 9.37 9.37 0 0 1 1.15-4.35 13.83 13.83 0 0 1 3.06-3.92 15 15 0 0 1 3.2-2.2 15.46 15.46 0 0 1 3.73-1.37l.45-.07.41-.06a10.37 10.37 0 0 1 3 0 6.18 6.18 0 0 1 2.65 1l3.68-11.35 4.56-.68 4.51-.68-3.44 10.45-3.44 10.45a.63.63 0 0 1 0 .17.76.76 0 0 0 0 .27 1 1 0 0 0 -.07.25 1.51 1.51 0 0 0 0 .24.48.48 0 0 0 0 .2v.19a1 1 0 0 0 .07.37.29.29 0 0 0 .22.21.71.71 0 0 0 .21 0 .54.54 0 0 0 .26-.06 1.61 1.61 0 0 0 .5-.17 6.19 6.19 0 0 0 .55-.32 7.93 7.93 0 0 0 1.07-1q.55-.63 1-1.28a10.4 10.4 0 0 0 .74-1.16 9.54 9.54 0 0 0 .45-.93l.19-.41.19-.41 2.44.73a29 29 0 0 1 -4.36 6.95zm-11.77-5c.08-.25.17-.54.26-.88s.18-.54.26-.83a5.35 5.35 0 0 0 .17-.86 3.63 3.63 0 0 0 .12-.66c0-.21 0-.41 0-.6a2.28 2.28 0 0 0 -.29-1.22 1 1 0 0 0 -1.1-.34l-.26.06-.26.11a4.8 4.8 0 0 0 -1.86 1.5 21 21 0 0 0 -1.67 2.38q-.48.89-.88 1.71t-.6 1.33l-.14.43c-.06.19-.13.39-.19.63a6.4 6.4 0 0 0 -.24.87c-.06.31-.13.63-.19 1v.48a4.63 4.63 0 0 0 0 .48 2.32 2.32 0 0 0 .29 1.2.86.86 0 0 0 1 .38 4.12 4.12 0 0 0 2.6-1.51 13.75 13.75 0 0 0 1.79-2.73q.33-.62.6-1.21t.45-1.09a5.26 5.26 0 0 0 .14-.6z" fill="#6dbc4c"/><path d="m132.73 58.61.27-.61a22.09 22.09 0 0 1 1.77-2.51 6 6 0 0 1 2.3-1.83l.34-.14a2.39 2.39 0 0 1 .45-.11 1.75 1.75 0 0 1 1.93.69 3.12 3.12 0 0 1 .41 1.68v.68a4.6 4.6 0 0 1 -.13.77 6.51 6.51 0 0 1 -.07.77q3.6-.3 7-.53l1.36-4.12 1-3 1.7-5.35 1.28-3.89-3.17.48-3.88.58-3.46 10.67-.45 1.39-1.07-.74a5.42 5.42 0 0 0 -2.31-.9 9.5 9.5 0 0 0 -2.76 0l-.41.06-.42.06a14.44 14.44 0 0 0 -3.41 1.29 13.87 13.87 0 0 0 -3 2 12.74 12.74 0 0 0 -2.65 3.33q3.77-.33 7.38-.72z" fill="#fff" opacity=".25"/><path d="m173.7 59.26a13.46 13.46 0 0 1 -4.11 3.82 17.14 17.14 0 0 1 -3.32 1.55 20.24 20.24 0 0 1 -3.56.87l-.57.09a2.68 2.68 0 0 1 -.53 0 14.76 14.76 0 0 1 -2.24.07 17.72 17.72 0 0 1 -2.15-.23 9 9 0 0 1 -4.56-2.23 5.73 5.73 0 0 1 -1.79-4.36 8.28 8.28 0 0 1 .12-1.38 10.53 10.53 0 0 1 .36-1.46 9.68 9.68 0 0 1 3.87-5 20.36 20.36 0 0 1 6.21-3q.72-.2 1.41-.35t1.36-.25q1-.15 2-.2a9.23 9.23 0 0 1 1.77.07h.26.26a6.29 6.29 0 0 1 2.6.95 2.74 2.74 0 0 1 1.27 2.39 5.2 5.2 0 0 1 -2.15 4.38 18.93 18.93 0 0 1 -4.92 2.89 21.57 21.57 0 0 1 -2.87 1 17 17 0 0 1 -2.39.45 3.45 3.45 0 0 0 1.31 2.45 3.77 3.77 0 0 0 2.84.51 10.65 10.65 0 0 0 6-2.91 17.09 17.09 0 0 0 3.82-5.61l2.39.74a33.92 33.92 0 0 1 -2.69 4.75zm-6.5-9.92a2 2 0 0 0 -1.24-.2 4.61 4.61 0 0 0 -3.06 1.8 12 12 0 0 0 -2 3.35 9 9 0 0 0 -.38 1.2q-.14.6-.24 1.09.57-.13 1.2-.32a9.71 9.71 0 0 0 1.24-.47 11.82 11.82 0 0 0 3.32-2.07 4.35 4.35 0 0 0 1.55-3.29 1.18 1.18 0 0 0 -.39-1.09z" fill="#598dc7"/><path d="m174.43 55a18.8 18.8 0 0 1 -1 1.83h.76c.31-.54.61-1.09.89-1.66zm-4-5.83a5.5 5.5 0 0 0 -2.27-.83h-.15-.36a8.42 8.42 0 0 0 -1.58-.06c-.61 0-1.23.09-1.86.19-.42.06-.86.14-1.3.24s-.88.21-1.35.34a19.38 19.38 0 0 0 -5.87 2.8 8.47 8.47 0 0 0 -3.42 4.44c-.1.32-.18.63-.24.94q3.81-.21 7.33-.32l.05-.27c.07-.35.15-.73.25-1.13a10.07 10.07 0 0 1 .42-1.33 13.2 13.2 0 0 1 2.15-3.67 5.75 5.75 0 0 1 3.64-2.19h.14a2.82 2.82 0 0 1 1.77.32 1.94 1.94 0 0 1 .8 1.8 5.45 5.45 0 0 1 -1.94 4.1 13 13 0 0 1 -3.64 2.12l-.13.05h3a17.89 17.89 0 0 0 3.76-2.34 4.06 4.06 0 0 0 1.72-3.49 1.93 1.93 0 0 0 -.89-1.75z" fill="#fff" opacity=".25"/><g fill="#a764a6"><path d="m36.83 104.76.48-8.61 1.91-.28-.39 7 3-.45-.05 1.58z"/><path d="m54.16 97.94a5 5 0 0 1 -.45 1.8 5.66 5.66 0 0 1 -1.11 1.6 6.56 6.56 0 0 1 -1.6 1.21 5.67 5.67 0 0 1 -1.82.61 4.64 4.64 0 0 1 -1.58 0 4 4 0 0 1 -1.39-.55 3.27 3.27 0 0 1 -1.2-1.36 3.77 3.77 0 0 1 -.34-1.87 4.92 4.92 0 0 1 .45-1.8 5.71 5.71 0 0 1 1.08-1.58 6.37 6.37 0 0 1 1.61-1.21 5.74 5.74 0 0 1 1.84-.62 4.53 4.53 0 0 1 1.79.08 3.76 3.76 0 0 1 1.56.75 3.25 3.25 0 0 1 .95 1.3 3.89 3.89 0 0 1 .21 1.64zm-4.91 3.58a3.33 3.33 0 0 0 2-1.12 3.47 3.47 0 0 0 .9-2.17 2.36 2.36 0 0 0 -.68-1.94 2.2 2.2 0 0 0 -1.95-.54 3.34 3.34 0 0 0 -2.06 1.13 3.49 3.49 0 0 0 -.91 2.18 2.35 2.35 0 0 0 .67 1.94 2.25 2.25 0 0 0 2.03.52z"/><path d="m57.78 101.66.48-8.66 2-.29 3.67 4.42a2.88 2.88 0 0 1 .34.54 8.89 8.89 0 0 1 .37.85q0-.37-.06-.74t0-.94l.27-4.82 1.82-.27-.48 8.61-1.87.28-3.77-4.5a2.77 2.77 0 0 1 -.34-.54c-.12-.24-.25-.52-.37-.86a7.21 7.21 0 0 1 .06.73q0 .38 0 1l-.28 4.92z"/><path d="m70.93 99.7.48-8.61 2.43-.36a10.31 10.31 0 0 1 2.26-.14 3.3 3.3 0 0 1 1.42.43 2.79 2.79 0 0 1 1.15 1.28 4.18 4.18 0 0 1 .31 2 5.27 5.27 0 0 1 -.54 2.1 5 5 0 0 1 -1.34 1.6 5.22 5.22 0 0 1 -1.39.81 10.7 10.7 0 0 1 -2.2.51l-.68.1zm2-1.84 1.07-.15a3.72 3.72 0 0 0 2.22-1 3.34 3.34 0 0 0 .8-2.19 2.34 2.34 0 0 0 -.57-2 2.66 2.66 0 0 0 -2.15-.34l-1.06.16z"/><path d="m91.95 92.33a4.94 4.94 0 0 1 -.45 1.8 5.7 5.7 0 0 1 -1.11 1.6 6.53 6.53 0 0 1 -1.62 1.21 5.65 5.65 0 0 1 -1.82.61 4.64 4.64 0 0 1 -1.58 0 4 4 0 0 1 -1.37-.55 3.27 3.27 0 0 1 -1.2-1.36 3.78 3.78 0 0 1 -.34-1.87 4.92 4.92 0 0 1 .45-1.8 5.69 5.69 0 0 1 1.09-1.62 6.35 6.35 0 0 1 1.61-1.21 5.74 5.74 0 0 1 1.84-.62 4.55 4.55 0 0 1 1.79.08 3.77 3.77 0 0 1 1.5.75 3.26 3.26 0 0 1 .95 1.3 3.89 3.89 0 0 1 .26 1.68zm-4.95 3.58a3.32 3.32 0 0 0 2-1.12 3.47 3.47 0 0 0 .9-2.17 2.36 2.36 0 0 0 -.68-1.94 2.2 2.2 0 0 0 -1.95-.54 3.34 3.34 0 0 0 -2.06 1.13 3.49 3.49 0 0 0 -.91 2.18 2.35 2.35 0 0 0 .67 1.94 2.25 2.25 0 0 0 2.03.52z"/><path d="m95.56 96 .44-8.56 2-.29 3.67 4.42a2.91 2.91 0 0 1 .34.54 9.1 9.1 0 0 1 .37.85c0-.25 0-.5-.06-.74s0-.56 0-.94l.27-4.82 1.82-.27-.41 8.61-1.87.28-3.77-4.5a2.83 2.83 0 0 1 -.36-.58q-.18-.36-.38-.86a7 7 0 0 1 .06.74v1l-.27 4.92z"/><path d="m114.3 93.27.48-8.61 5.25-.78-.09 1.55-3.35.5-.1 1.77 3.35-.5-.09 1.56-3.35.5-.19 3.74z"/><path d="m123.52 91.9.48-8.61 5.25-.78-.09 1.55-3.35.5-.1 1.77 3.35-.5-.06 1.57-3.35.5-.12 2.16 3.35-.5-.09 1.56z"/><path d="m132.63 89.46 1.13-1.32a1.18 1.18 0 0 0 .6.65 1.66 1.66 0 0 0 1 .12 2 2 0 0 0 1.08-.46 1.24 1.24 0 0 0 .44-.88q0-.61-1.23-1l-.65-.23a3.73 3.73 0 0 1 -1.56-.91 1.74 1.74 0 0 1 -.38-1.27 2.67 2.67 0 0 1 1-1.88 4.34 4.34 0 0 1 2.31-1 3 3 0 0 1 1.38.07 2.11 2.11 0 0 1 1 .7l-1.19 1.21a1 1 0 0 0 -.5-.48 1.46 1.46 0 0 0 -.79-.07 1.74 1.74 0 0 0 -.93.41 1.08 1.08 0 0 0 -.39.76q0 .68 1.31 1l.37.12a3.58 3.58 0 0 1 1.62.88 1.76 1.76 0 0 1 .47 1.35 3 3 0 0 1 -1 2.06 4.21 4.21 0 0 1 -2.34 1.06 3.8 3.8 0 0 1 -1.74-.08 1.74 1.74 0 0 1 -1.01-.81z"/><path d="m146.11 81.56-.39 7-1.91.28.39-7-2.18.32.09-1.56 6.28-.93-.09 1.56z"/><path d="m151.43 87.76.48-8.61 1.91-.28-.48 8.61z"/><path d="m159.88 86.5-2.81-8.12 2.11-.31 1.44 5.11c0 .1.07.3.12.59s.11.62.16 1q.11-.56.23-1t.23-.73l2.06-5.57 2.08-.31-3.8 9.1z"/><path d="m166.93 85.46 3.88-9.11 2.19-.35 3 8.1-2.17.32-.62-1.72-3.46.51-.75 1.94zm5.86-4.12-.79-2.64a3.91 3.91 0 0 1 -.09-.41c0-.19-.07-.43-.1-.71q-.1.43-.19.77c-.06.23-.11.38-.13.46l-1.12 2.89z"/><path d="m179.14 83.64.48-8.64 1.91-.28-.39 7 3-.45-.09 1.56z"/></g><path d="m44.85 71.29h.39a5 5 0 0 0 2.46-1 13 13 0 0 0 1.57-1.52l-.49-.23a4.39 4.39 0 0 1 -1.15-.92 2.47 2.47 0 0 1 -.55-1.67 4.67 4.67 0 0 1 .1-.93l.19-.9v-.12a10.67 10.67 0 0 1 2.76-4.5 23.16 23.16 0 0 1 4.25-3.43c.53-.35 1.08-.67 1.64-1s1.06-.54 1.55-.77l2.77-1.27-1.74 2.63a20.83 20.83 0 0 0 -1.31 2.28 18.76 18.76 0 0 0 -1 2.42c-.94 2.89-1.9 5.8-2.85 8.66l-1 3c4-1 8.29-2 12.75-2.92l.26-.76.25-.7.71-.06 2-.16c.66 0 1.33-.12 2-.22s1.36-.22 2-.36 1.39-.3 2.08-.47a27.58 27.58 0 0 0 7.44-3.23 10.07 10.07 0 0 0 4.42-5.63 9.89 9.89 0 0 0 .37-1.4 7.31 7.31 0 0 0 .12-1.28 4.23 4.23 0 0 0 -2.79-4.14 15.19 15.19 0 0 0 -5.91-1.18 56 56 0 0 0 -10.24.76 52 52 0 0 0 -8.9 2.15 47.19 47.19 0 0 0 -8 3.5 33.09 33.09 0 0 0 -6.16 4.38 13 13 0 0 0 -3.42 4.63v.07a6.16 6.16 0 0 0 -.46 1.38 7 7 0 0 0 -.14 1.38 3.7 3.7 0 0 0 1 2.73 3.5 3.5 0 0 0 3.03.8zm21.63-6 1.3-4.11c.44-1.38.9-2.78 1.36-4.13a12.57 12.57 0 0 1 2.39-4.21 7 7 0 0 1 4.47-2.44 4.6 4.6 0 0 1 3 .31 2.43 2.43 0 0 1 1.13 2.29 5.55 5.55 0 0 1 -.13 1.24 10.85 10.85 0 0 1 -.45 1.39 18.12 18.12 0 0 1 -4.6 7.09 17.32 17.32 0 0 1 -7.42 3.66l-1.53.37z" fill="#fff" opacity=".25"/></svg>