<svg viewBox="0 0 216 144" xmlns="http://www.w3.org/2000/svg"><g fill="#231f20"><path d="m182.24 50.58-1.24-.39-2.45-.76-1.06-.33a6.94 6.94 0 0 0 -3.22-5.41 10.71 10.71 0 0 0 -4.36-1.59l-.5-.1a14.36 14.36 0 0 0 -2.72-.11c-.81 0-1.64.13-2.47.25-.54.08-1.12.19-1.72.32s-1.13.27-1.73.43a25.81 25.81 0 0 0 -3.12 1.1l1-3.06 1.2-3.65.6-1.82.6-1.83-1.84.28-1.84.27-3.67.55-4.51.68-4.56.68-1.87.28-.94.14-.94.14-.3.93-.3.93-.61 1.86-1.9 5.87a16.2 16.2 0 0 0 -2.51.18l-.41.06-.45.07h-.31-.08a21 21 0 0 0 -4.01 1.45s0-.05 0-.08a6.47 6.47 0 0 0 -2.55-5.35 9.63 9.63 0 0 0 -3.18-1.6 6.49 6.49 0 0 0 -.75-.19h-.19-.1-.23a11.13 11.13 0 0 0 -1.8-.12 13.16 13.16 0 0 0 -1.76.14h-.26-.26-.11-.12-.06-.11a14.7 14.7 0 0 0 -3.73 1.44 11.48 11.48 0 0 0 -3.93 3.52v.06a9.8 9.8 0 0 0 -1 2.08 8.17 8.17 0 0 0 -.45 2.05 10.46 10.46 0 0 0 -1.77.11 14.48 14.48 0 0 0 -1.75.37 12.68 12.68 0 0 0 -2.07.79 20.45 20.45 0 0 0 -2.44 1.35l-.64-.24a12.4 12.4 0 0 0 -4.94-.33 11.32 11.32 0 0 0 -1.22.11 10.9 10.9 0 0 0 -1.17.24l-.46.11a9.85 9.85 0 0 0 -1.32-3.83 9.4 9.4 0 0 0 -4.32-3.69 20.22 20.22 0 0 0 -8-1.7 61.9 61.9 0 0 0 -11.42.83 58.82 58.82 0 0 0 -10.06 2.44 54.39 54.39 0 0 0 -9.2 4 40.58 40.58 0 0 0 -7.63 5.49 20.55 20.55 0 0 0 -5.29 7.26 13.14 13.14 0 0 0 -.86 2.74 13.55 13.55 0 0 0 -.27 2.64 9 9 0 0 0 2.53 6.52 8.55 8.55 0 0 0 7.21 2.34 12 12 0 0 1 -.93 1.22l-.33.37-.33.38-3 3.44-1.5 1.72-1.5 1.72 2 .37 2 .37 3.67.67.49.24.22.09a13.17 13.17 0 0 0 4 .83 20.23 20.23 0 0 0 4.3-.2l.68-.1a10.29 10.29 0 0 0 1.26-.27 24.17 24.17 0 0 0 7.08-2.89 13.16 13.16 0 0 0 6-7.25c.26-.74.51-1.48.75-2.23s.46-1.38.7-2.07v-.06-.08l.1-.3.37-.05c.77-.12 1.56-.26 2.36-.41s1.62-.35 2.42-.55h.07q1.28-.34 2.54-.79l.9.22 1.2.3 2.39.6 1.63.41-.63 1.8-1.23 3.73-.63 1.84-.63 1.84 1.86-.28 1.86-.28 3.71-.56 8.83-1.29 1.88-.28.94-.14.94-.14.3-.93.3-.94.6-1.87.04-.3.12-.37.07-.22.07-.21v-.05c.21-.6.41-1.2.59-1.8s.29-.94.46-1.46c.31-1 .66-1.94 1-2.9l.24.08v.39a9.72 9.72 0 0 0 1.47 5.3 7.77 7.77 0 0 0 5.34 3.44 11.11 11.11 0 0 0 2.45.23 16.08 16.08 0 0 0 2.13-.18h.21.21.29a19.12 19.12 0 0 0 4.8-1.68 17.2 17.2 0 0 0 2.55-1.69 10.56 10.56 0 0 0 2.09.78 14.07 14.07 0 0 0 5.24.31h.14a16.81 16.81 0 0 0 5.6-1.93l.63-.44.47.15a11.81 11.81 0 0 0 5.09.3 17.39 17.39 0 0 0 8.92-3.89 14.89 14.89 0 0 0 3.34 1.06h.1a22.13 22.13 0 0 0 2.74.29 19.72 19.72 0 0 0 2.72-.07 8 8 0 0 0 1.05-.09l.57-.09a26.18 26.18 0 0 0 4.55-1.11 23.35 23.35 0 0 0 4.51-2.11 19.89 19.89 0 0 0 6-5.68 40.37 40.37 0 0 0 3.24-5.61l1.21-2.6.6-1.3.6-1.3zm-3.53 4.76a37.12 37.12 0 0 1 -2.93 5.19 16.69 16.69 0 0 1 -5.08 4.75 20.22 20.22 0 0 1 -3.91 1.82 23.31 23.31 0 0 1 -4.05 1l-.57.09a5.59 5.59 0 0 1 -.8.06 17.21 17.21 0 0 1 -2.47.07 20.22 20.22 0 0 1 -2.44-.26h-.06a11.73 11.73 0 0 1 -4.4-1.74 13.89 13.89 0 0 1 -8.78 4.55 9.41 9.41 0 0 1 -4-.24 5.45 5.45 0 0 1 -1.42-.64 13.62 13.62 0 0 1 -1.8 1.15 13.89 13.89 0 0 1 -4.63 1.6h-.07a11.64 11.64 0 0 1 -4.33-.26 8.26 8.26 0 0 1 -2.97-1.48 13.77 13.77 0 0 1 -3.35 2.4 16.18 16.18 0 0 1 -4.06 1.42h-.07-.07-.21-.21a13.44 13.44 0 0 1 -1.78.15 8.74 8.74 0 0 1 -1.92-.18 5.76 5.76 0 0 1 -4-2.5 7.41 7.41 0 0 1 -1.12-4 11.41 11.41 0 0 1 .09-1.43c0-.28.09-.57.14-.85a5.11 5.11 0 0 1 -2.75-.72 4.35 4.35 0 0 1 -1.11-.93 16.52 16.52 0 0 0 -1.4 2.66c-.5 1.2-1 2.42-1.34 3.64-.18.55-.35 1.08-.49 1.56s-.36 1.15-.56 1.7l-.17.55-.11.34-.09.27-.6 1.87-1.82.42-8.84 1.32-3.71.56 1.25-3.68 1.49-4.4-1.58-.4-2.39-.6-2.39-.6.87-2.4a31.66 31.66 0 0 1 -6.77 2.69c-.77.19-1.53.36-2.27.51s-1.48.28-2.22.39-1.55.24-2.28.24l-.06.17q-.35 1.07-.67 2.09v.08c-.25.7-.49 1.41-.71 2.11s-.48 1.46-.73 2.18a10.07 10.07 0 0 1 -4.64 5.56 21.14 21.14 0 0 1 -6.35 2.57 7.39 7.39 0 0 1 -1 .22l-.68.1a17.66 17.66 0 0 1 -3.75.18 10.9 10.9 0 0 1 -3.28-.68l-.26-.11a2.27 2.27 0 0 1 -.44-.17l-.15-.06-3.92-.72 3-3.44.33-.37.33-.37a15 15 0 0 0 1.27-1.68 6.06 6.06 0 0 0 .7-1.52l1-3.24a9.43 9.43 0 0 1 -3 1l-.58.07a6.45 6.45 0 0 1 -5.57-1.68 6.76 6.76 0 0 1 -1.9-4.92 10.76 10.76 0 0 1 .22-2.11 10.21 10.21 0 0 1 .82-2.26 17.36 17.36 0 0 1 4.5-6.16 37.44 37.44 0 0 1 7-5 51.45 51.45 0 0 1 8.66-3.84 56 56 0 0 1 9.58-2.32 59.34 59.34 0 0 1 10.92-.8 18 18 0 0 1 7.14 1.49 7.33 7.33 0 0 1 3.39 2.86 7.78 7.78 0 0 1 1.08 4.06 11 11 0 0 1 -.17 1.84 13.24 13.24 0 0 1 3.37-1.2 7.83 7.83 0 0 1 .94-.2 8.6 8.6 0 0 1 1-.09 10 10 0 0 1 3.91.44 6.74 6.74 0 0 1 1.63.78l.49-.36a17.61 17.61 0 0 1 2.91-1.7 9.84 9.84 0 0 1 1.59-.6 11.84 11.84 0 0 1 1.41-.3 7.76 7.76 0 0 1 2.1 0 6.78 6.78 0 0 1 1.93.54l.12-.37.89-.13a4.73 4.73 0 0 1 -.69-2.49 5.14 5.14 0 0 1 .31-1.73 6.78 6.78 0 0 1 .71-1.43 8.27 8.27 0 0 1 2.84-2.54 11.66 11.66 0 0 1 3-1.15h.11.11.26.26a10.3 10.3 0 0 1 1.41-.11 8.54 8.54 0 0 1 1.4.09h.07.1.17a4.17 4.17 0 0 1 .48.12 7.59 7.59 0 0 1 2.52 1.27 4.29 4.29 0 0 1 1.69 3.54 4.92 4.92 0 0 1 -.05.69c0 .21-.07.42-.12.64v.08.08a6.69 6.69 0 0 1 -.93 1.91l-.68 2.14.36-.34a18.19 18.19 0 0 1 3.86-2.66 18.46 18.46 0 0 1 4.43-1.63h.1.1l.45-.07.41-.06a12.91 12.91 0 0 1 3.79-.29l.44.08 2.67-8.24.6-1.86 1.87-.28 4.56-.68 4.51-.68 3.67-.55-1.2 3.65-1.72 5.23-1.22 3.72c.24-.19.48-.38.74-.56a23.51 23.51 0 0 1 7.13-3.4c.53-.15 1.07-.28 1.57-.39s1-.21 1.54-.28c.74-.11 1.49-.19 2.22-.22a11.81 11.81 0 0 1 2.25.09h.08l.45.05a8.52 8.52 0 0 1 3.5 1.32 4.92 4.92 0 0 1 2.26 4.22 8 8 0 0 1 0 1l.17.05 2.38.73 2.45.76z"/><path d="m82.35 63.94a28.52 28.52 0 0 1 -7.74 3.36q-1.09.27-2.15.48t-2.09.37q-1 .15-2.06.23l-2 .16q-.38 1.09-.73 2.17l-.68 2.11q-.38 1.09-.73 2.17t-.73 2.17a6.94 6.94 0 0 1 -3.22 3.84 18.12 18.12 0 0 1 -5.48 2.21 4.38 4.38 0 0 1 -.68.16l-.68.1a15.07 15.07 0 0 1 -3.2.15 8.49 8.49 0 0 1 -2.61-.53l-.19-.09-.19-.08a.1.1 0 0 1 -.08 0l-.11-.09a1.26 1.26 0 0 1 -.3-.09 1.4 1.4 0 0 0 -.3-.09l.33-.37.33-.37a18.07 18.07 0 0 0 1.55-2.05 9.1 9.1 0 0 0 1.06-2.3q1.41-4.39 2.85-8.71t2.85-8.65a19.86 19.86 0 0 1 1.06-2.58 21.85 21.85 0 0 1 1.38-2.41q-.71.32-1.49.74t-1.55.91a22 22 0 0 0 -4 3.27 9.47 9.47 0 0 0 -2.47 4l-.19.9a3.57 3.57 0 0 0 -.08.72 1.65 1.65 0 0 0 .35 1.11 3.63 3.63 0 0 0 1 .75 6.76 6.76 0 0 0 .68.31c.23.09.5.21.79.34a15.12 15.12 0 0 1 -2.63 2.74 6.26 6.26 0 0 1 -3.42 1.3 4.3 4.3 0 0 1 -3.72-1 4.53 4.53 0 0 1 -1.28-3.31 8 8 0 0 1 .2-1.67 7.27 7.27 0 0 1 .54-1.63 14.08 14.08 0 0 1 3.72-5.06 34 34 0 0 1 6.38-4.54 48.13 48.13 0 0 1 8.17-3.58 52.81 52.81 0 0 1 9.1-2.2 56.48 56.48 0 0 1 10.43-.77 15.9 15.9 0 0 1 6.24 1.26 5.29 5.29 0 0 1 2.5 2 5.44 5.44 0 0 1 .76 2.85 8.24 8.24 0 0 1 -.14 1.46 10.86 10.86 0 0 1 -.41 1.55 11.28 11.28 0 0 1 -4.94 6.28zm-3.35-9.79a4.51 4.51 0 0 0 .14-1.05 1.63 1.63 0 0 0 -.79-1.54 3.84 3.84 0 0 0 -2.35-.21 5.93 5.93 0 0 0 -3.75 2.05 11.37 11.37 0 0 0 -2.17 3.83q-.71 2.06-1.36 4.11l-1.3 4.11a16.16 16.16 0 0 0 7-3.4 16.91 16.91 0 0 0 4.29-6.64 9.84 9.84 0 0 0 .29-1.26z"/><path d="m111.8 58.54v.53a4.24 4.24 0 0 1 -1.07 3 4 4 0 0 1 -2.36 1.38h-.14a2.84 2.84 0 0 1 -1.93-.45 3 3 0 0 1 -1.29-2 1.35 1.35 0 0 0 -.36-.59.5.5 0 0 0 -.5-.09 2 2 0 0 0 -1.07.71 11.62 11.62 0 0 0 -1.26 1.69 19.51 19.51 0 0 0 -2 3.59q-.82 2.02-1.4 3.98-.29.85-.53 1.65t-.53 1.61l-.19.6-.19.6-8.84 1.32 4-11.68a.86.86 0 0 0 .1-.35v-.23a.57.57 0 0 0 -.41-.63 1.92 1.92 0 0 0 -.93 0 4.28 4.28 0 0 0 -2.2 1.48 12.33 12.33 0 0 0 -1.58 2.39q-.14.26-.29.57c-.09.21-.18.39-.24.56l-2.39-.6a21.89 21.89 0 0 1 3.65-6.4 10.2 10.2 0 0 1 6-3.7 5.15 5.15 0 0 1 .69-.15 6.09 6.09 0 0 1 .74-.06 7.56 7.56 0 0 1 3 .33 4.38 4.38 0 0 1 2.32 1.73q1.05-.92 2.22-1.77a14.34 14.34 0 0 1 2.41-1.41 6.82 6.82 0 0 1 1.12-.43 8.63 8.63 0 0 1 1.07-.23 5.15 5.15 0 0 1 1.41 0 4.44 4.44 0 0 1 1.31.38 2.61 2.61 0 0 1 1 .9 3.78 3.78 0 0 1 .5 1.21 1.64 1.64 0 0 1 .16.56z"/><path d="m115.81 52.26a4.31 4.31 0 0 0 1.86.61 8.45 8.45 0 0 0 2.1-.05 7.19 7.19 0 0 0 .79-.17l.79-.21.29-.11.33-.12a6.6 6.6 0 0 0 1.62-1.13 3.7 3.7 0 0 0 1-1.66 3.75 3.75 0 0 0 .07-.37 2.29 2.29 0 0 0 0-.31 2.07 2.07 0 0 0 -.76-1.74 5.39 5.39 0 0 0 -1.84-.92l-.24-.08h-.28a6.25 6.25 0 0 0 -1-.06 7.67 7.67 0 0 0 -1.05.09h-.26-.26a8.69 8.69 0 0 0 -2.22.86 5.06 5.06 0 0 0 -1.75 1.57 3.65 3.65 0 0 0 -.38.77 2.33 2.33 0 0 0 -.14.79 2.39 2.39 0 0 0 .36 1.26 2.91 2.91 0 0 0 .97.98z"/><path d="m152.06 57.05-.19.41-.19.41a9.55 9.55 0 0 1 -.45.93 10.4 10.4 0 0 1 -.74 1.16q-.48.65-1 1.28a7.93 7.93 0 0 1 -1.08 1 6.19 6.19 0 0 1 -.55.32 1.61 1.61 0 0 1 -.5.17.54.54 0 0 1 -.26.06.71.71 0 0 1 -.21 0 .29.29 0 0 1 -.22-.21 1 1 0 0 1 -.07-.37v-.21a.48.48 0 0 1 0-.2 1.51 1.51 0 0 1 0-.24 1 1 0 0 1 .07-.25.76.76 0 0 1 0-.27.64.64 0 0 0 0-.17l3.44-10.45 3.57-10.42-4.51.68-4.56.68-3.68 11.34a6.18 6.18 0 0 0 -2.65-1 10.37 10.37 0 0 0 -3 0l-.41.06-.45.07a15.45 15.45 0 0 0 -3.73 1.37 15 15 0 0 0 -3.2 2.2 13.83 13.83 0 0 0 -3.06 3.92 9.37 9.37 0 0 0 -1.15 4.35 11 11 0 0 1 -1.19 1.68 7.51 7.51 0 0 1 -1.19 1.07 2.46 2.46 0 0 1 -1 .45.92.92 0 0 1 -.74 0 .53.53 0 0 1 -.21-.45 2.67 2.67 0 0 1 .1-.66 5.76 5.76 0 0 1 .24-.73q.57-1.86 1.17-3.7t1.22-3.66q.29-.91.6-1.84t.6-1.84l-2.32.35-2.36.35-2.36.35-2.32.35q-.77 2.3-1.52 4.61t-1.51 4.61c-.06.2-.12.39-.17.58s-.1.37-.17.58a10.79 10.79 0 0 0 -.15 1.13 8.54 8.54 0 0 0 -.07 1.09 5.07 5.07 0 0 0 .76 2.78 3.7 3.7 0 0 0 2.58 1.55 6.32 6.32 0 0 0 1.39.13 10.81 10.81 0 0 0 1.43-.12h.21.21a13.15 13.15 0 0 0 3.32-1.17 10.46 10.46 0 0 0 2.79-2 15.21 15.21 0 0 0 1.6-2 5.69 5.69 0 0 0 .93 1.2 6.19 6.19 0 0 0 2.85 1.56 9.17 9.17 0 0 0 3.42.21 10.92 10.92 0 0 0 3.65-1.26 10.65 10.65 0 0 0 3.13-2.62 3.23 3.23 0 0 0 2.08 1.84 6.92 6.92 0 0 0 3 .17 10.86 10.86 0 0 0 7-3.55 29 29 0 0 0 4.25-6.92zm-12.78-.55a3.63 3.63 0 0 1 -.12.66 5.35 5.35 0 0 1 -.16.84c-.08.28-.17.56-.26.83s-.18.62-.26.88a5.25 5.25 0 0 1 -.22.58q-.19.51-.45 1.09t-.6 1.21a13.75 13.75 0 0 1 -1.79 2.73 4.12 4.12 0 0 1 -2.6 1.51.86.86 0 0 1 -1-.38 2.32 2.32 0 0 1 -.29-1.2 4.63 4.63 0 0 1 0-.48c0-.16 0-.32 0-.48.06-.33.13-.65.19-1a6.4 6.4 0 0 1 .24-.87c.06-.23.13-.44.19-.63l.14-.43q.19-.51.6-1.33t.88-1.71a21 21 0 0 1 1.76-2.32 4.8 4.8 0 0 1 1.86-1.5l.26-.11.26-.06a1 1 0 0 1 1.1.34 2.28 2.28 0 0 1 .29 1.22c.01.21 0 .41-.02.61z"/><path d="m173.7 59.26a13.46 13.46 0 0 1 -4.11 3.82 17.14 17.14 0 0 1 -3.32 1.55 20.24 20.24 0 0 1 -3.56.87l-.57.09a2.68 2.68 0 0 1 -.53 0 14.76 14.76 0 0 1 -2.24.07 17.72 17.72 0 0 1 -2.15-.23 9 9 0 0 1 -4.56-2.23 5.73 5.73 0 0 1 -1.79-4.36 8.28 8.28 0 0 1 .12-1.38 10.53 10.53 0 0 1 .36-1.46 9.68 9.68 0 0 1 3.87-5 20.36 20.36 0 0 1 6.21-3q.72-.2 1.41-.35t1.36-.25q1-.15 2-.2a9.23 9.23 0 0 1 1.77.07h.26.26a6.29 6.29 0 0 1 2.6.95 2.74 2.74 0 0 1 1.27 2.39 5.2 5.2 0 0 1 -2.15 4.38 18.93 18.93 0 0 1 -4.92 2.89 21.57 21.57 0 0 1 -2.87 1 17 17 0 0 1 -2.39.45 3.45 3.45 0 0 0 1.31 2.45 3.77 3.77 0 0 0 2.84.51 10.65 10.65 0 0 0 6-2.91 17.09 17.09 0 0 0 3.82-5.61l2.39.74a33.92 33.92 0 0 1 -2.69 4.75zm-6.5-9.92a2 2 0 0 0 -1.24-.2 4.61 4.61 0 0 0 -3.06 1.8 12 12 0 0 0 -2 3.35 9 9 0 0 0 -.38 1.2q-.14.6-.24 1.09.57-.13 1.2-.32a9.71 9.71 0 0 0 1.24-.47 11.82 11.82 0 0 0 3.32-2.07 4.35 4.35 0 0 0 1.55-3.29 1.18 1.18 0 0 0 -.39-1.09z"/><path d="m36.83 104.76.48-8.61 1.91-.28-.39 7 3-.45-.05 1.58z"/><path d="m54.16 97.94a5 5 0 0 1 -.45 1.8 5.66 5.66 0 0 1 -1.11 1.6 6.56 6.56 0 0 1 -1.6 1.21 5.67 5.67 0 0 1 -1.82.61 4.64 4.64 0 0 1 -1.58 0 4 4 0 0 1 -1.39-.55 3.27 3.27 0 0 1 -1.2-1.36 3.77 3.77 0 0 1 -.34-1.87 4.92 4.92 0 0 1 .45-1.8 5.71 5.71 0 0 1 1.08-1.58 6.37 6.37 0 0 1 1.61-1.21 5.74 5.74 0 0 1 1.84-.62 4.53 4.53 0 0 1 1.79.08 3.76 3.76 0 0 1 1.56.75 3.25 3.25 0 0 1 .95 1.3 3.89 3.89 0 0 1 .21 1.64zm-4.91 3.58a3.33 3.33 0 0 0 2-1.12 3.47 3.47 0 0 0 .9-2.17 2.36 2.36 0 0 0 -.68-1.94 2.2 2.2 0 0 0 -1.95-.54 3.34 3.34 0 0 0 -2.06 1.13 3.49 3.49 0 0 0 -.91 2.18 2.35 2.35 0 0 0 .67 1.94 2.25 2.25 0 0 0 2.03.52z"/><path d="m57.78 101.66.48-8.66 2-.29 3.67 4.42a2.88 2.88 0 0 1 .34.54 8.89 8.89 0 0 1 .37.85q0-.37-.06-.74t0-.94l.27-4.82 1.82-.27-.48 8.61-1.87.28-3.77-4.5a2.77 2.77 0 0 1 -.34-.54c-.12-.24-.25-.52-.37-.86a7.21 7.21 0 0 1 .06.73q0 .38 0 1l-.28 4.92z"/><path d="m70.93 99.7.48-8.61 2.43-.36a10.31 10.31 0 0 1 2.26-.14 3.3 3.3 0 0 1 1.42.43 2.79 2.79 0 0 1 1.15 1.28 4.18 4.18 0 0 1 .31 2 5.27 5.27 0 0 1 -.54 2.1 5 5 0 0 1 -1.34 1.6 5.22 5.22 0 0 1 -1.39.81 10.7 10.7 0 0 1 -2.2.51l-.68.1zm2-1.84 1.07-.15a3.72 3.72 0 0 0 2.22-1 3.34 3.34 0 0 0 .8-2.19 2.34 2.34 0 0 0 -.57-2 2.66 2.66 0 0 0 -2.15-.34l-1.06.16z"/><path d="m91.95 92.33a4.94 4.94 0 0 1 -.45 1.8 5.7 5.7 0 0 1 -1.11 1.6 6.53 6.53 0 0 1 -1.62 1.21 5.65 5.65 0 0 1 -1.82.61 4.64 4.64 0 0 1 -1.58 0 4 4 0 0 1 -1.37-.55 3.27 3.27 0 0 1 -1.2-1.36 3.78 3.78 0 0 1 -.34-1.87 4.92 4.92 0 0 1 .45-1.8 5.69 5.69 0 0 1 1.09-1.62 6.35 6.35 0 0 1 1.61-1.21 5.74 5.74 0 0 1 1.84-.62 4.55 4.55 0 0 1 1.79.08 3.77 3.77 0 0 1 1.5.75 3.26 3.26 0 0 1 .95 1.3 3.89 3.89 0 0 1 .26 1.68zm-4.95 3.58a3.32 3.32 0 0 0 2-1.12 3.47 3.47 0 0 0 .9-2.17 2.36 2.36 0 0 0 -.68-1.94 2.2 2.2 0 0 0 -1.95-.54 3.34 3.34 0 0 0 -2.06 1.13 3.49 3.49 0 0 0 -.91 2.18 2.35 2.35 0 0 0 .67 1.94 2.25 2.25 0 0 0 2.03.52z"/><path d="m95.56 96 .44-8.56 2-.29 3.67 4.42a2.91 2.91 0 0 1 .34.54 9.1 9.1 0 0 1 .37.85c0-.25 0-.5-.06-.74s0-.56 0-.94l.27-4.82 1.82-.27-.41 8.61-1.87.28-3.77-4.5a2.83 2.83 0 0 1 -.36-.58q-.18-.36-.38-.86a7 7 0 0 1 .06.74v1l-.27 4.92z"/><path d="m114.3 93.27.48-8.61 5.25-.78-.09 1.55-3.35.5-.1 1.77 3.35-.5-.09 1.56-3.35.5-.19 3.74z"/><path d="m123.52 91.9.48-8.61 5.25-.78-.09 1.55-3.35.5-.1 1.77 3.35-.5-.06 1.57-3.35.5-.12 2.16 3.35-.5-.09 1.56z"/><path d="m132.63 89.46 1.13-1.32a1.18 1.18 0 0 0 .6.65 1.66 1.66 0 0 0 1 .12 2 2 0 0 0 1.08-.46 1.24 1.24 0 0 0 .44-.88q0-.61-1.23-1l-.65-.23a3.73 3.73 0 0 1 -1.56-.91 1.74 1.74 0 0 1 -.38-1.27 2.67 2.67 0 0 1 1-1.88 4.34 4.34 0 0 1 2.31-1 3 3 0 0 1 1.38.07 2.11 2.11 0 0 1 1 .7l-1.19 1.21a1 1 0 0 0 -.5-.48 1.46 1.46 0 0 0 -.79-.07 1.74 1.74 0 0 0 -.93.41 1.08 1.08 0 0 0 -.39.76q0 .68 1.31 1l.37.12a3.58 3.58 0 0 1 1.62.88 1.76 1.76 0 0 1 .47 1.35 3 3 0 0 1 -1 2.06 4.21 4.21 0 0 1 -2.34 1.06 3.8 3.8 0 0 1 -1.74-.08 1.74 1.74 0 0 1 -1.01-.81z"/><path d="m146.11 81.56-.39 7-1.91.28.39-7-2.18.32.09-1.56 6.28-.93-.09 1.56z"/><path d="m151.43 87.76.48-8.61 1.91-.28-.48 8.61z"/><path d="m159.88 86.5-2.81-8.12 2.11-.31 1.44 5.11c0 .1.07.3.12.59s.11.62.16 1q.11-.56.23-1t.23-.73l2.06-5.57 2.08-.31-3.8 9.1z"/><path d="m166.93 85.46 3.88-9.11 2.19-.35 3 8.1-2.17.32-.62-1.72-3.46.51-.75 1.94zm5.86-4.12-.79-2.64a3.91 3.91 0 0 1 -.09-.41c0-.19-.07-.43-.1-.71q-.1.43-.19.77c-.06.23-.11.38-.13.46l-1.12 2.89z"/><path d="m179.14 83.64.48-8.64 1.91-.28-.39 7 3-.45-.09 1.56z"/></g></svg>