<svg viewBox="0 0 216 144" xmlns="http://www.w3.org/2000/svg"><path d="m32.41 94.91a6.53 6.53 0 0 1 -1.4-.18l5.64 5.66-.84.84-7.32-7.32h3.24a4 4 0 0 0 0-8h-3.8v15h-1.2v-16.23h4.95a5.09 5.09 0 0 1 5.15 5.15c0 2.79-2.04 5.08-4.42 5.08zm24.52-2.24a8.5 8.5 0 1 1 -8.57-8.43 8.44 8.44 0 0 1 8.58 8.43zm-1.2.07a7.3 7.3 0 1 0 -7.26 7.3 7.25 7.25 0 0 0 7.27-7.31zm12.07-7.3a7.29 7.29 0 0 1 5.28 2.15l.84-.84a8.5 8.5 0 1 0 -.07 12.05l-.85-.85a7.38 7.38 0 0 1 -5.1 2.09 7.3 7.3 0 0 1 -.09-14.61zm21.2-.23-.84-.84-7.9 7.9 8.94 8.94.84-.84-8.1-8.1zm-10.3 15.62h1.2v-16.15h-1.2v16.16zm15.78 0h1.2v-16.15h-1.2v16.16zm18.22-2.75-11.7-13.94v16.69h1.2v-13.4l11.7 13.94v-16.69h-1.2zm13.51-12.65a7.28 7.28 0 0 1 5.28 2.15l.84-.84a8.5 8.5 0 1 0 -.07 12.05v-4.88h-5.95v1.2h4.75v3.15a7.31 7.31 0 1 1 -4.84-12.83zm24.79 13.14-6.57-14.11-1.09.51 7.66 16.42 7.64-16.39-1.09-.51zm10.54 2.26h1.2v-16.15h-1.2v16.16zm15.69-4.66a4.53 4.53 0 0 1 -4.51 4.66h-4.72v-16.15h4a4.07 4.07 0 0 1 4.19 4 3.25 3.25 0 0 1 -.8 2.37 4.32 4.32 0 0 1 -1.42.82 4.49 4.49 0 0 1 3.22 4.3zm-8-4.48h3.44a2.93 2.93 0 0 0 -.6-5.81h-2.84zm6.77 4.51a3.2 3.2 0 0 0 -3-3.31h-3.73v6.75h3.44a3.35 3.35 0 0 0 3.29-3.44zm7.17 3.44v-6.75h4.83v-1.2h-4.88v-5.81h6.13v-1.2h-7.25v16.16h8.17v-1.2zm-57-43.95-13.23 17.59-19.69-12.11 1.55-9.76 10.77-7 11.88-4.41zm-20.47 3 6.81 12.16 3.75-17.85zm9.49-6.47-10.38-1.53.58 6.85zm1.36-10.6-10.18 3.76-1.37 4.09 11.53 1.7zm-11.75 4.68-6.57 4.29 5.48-1.14zm-8 5.79 7.37 5.17-.56-6.58zm-1.4 9.02 15.78 9.71-6.57-11.73zm18.5 8.89 10.67-14.17-7-3.21zm10.2-15.63-6.36-11.43-.07 8.5zm-29.48 5.7 8.83-1.94-7.67-5.38z" fill="#231f20"/></svg>