<svg viewBox="0 0 216 144" xmlns="http://www.w3.org/2000/svg"><g fill="#231f20"><path d="m23.25 75.29c0 2.07.7 2.63 5 2.63h16.91c3.81 0 4.61-.35 4.61-1.74 0-1.65-2.35-1.88-14.23-2-11-.14-16-.23-16-4.81 0-3.47 1.49-5.26 7.58-5.26h19.4c5.14 0 7.33 2.3 7.3 5.91h-4.17c0-1.79-.88-2.6-4.3-2.6h-17.08c-3.91 0-4.61.4-4.61 1.68 0 1.58 3.3 1.79 13.7 1.91 13.56.14 16.63.12 16.51 5 0 2.16-.37 5.23-7.56 5.23h-19.22c-6.4 0-8-1.93-8-5.91h4.14z"/><path d="m89.77 64.5h3.88l13.56 13 13.56-13h3.88v16.28h-4v-11.12l-11.48 11.12h-3.91l-11.53-11.12v11.12h-4v-16.28z"/><path d="m187.88 64.08c6.21 0 9.42 3 9.42 8.56s-3.21 8.56-9.42 8.56h-16c-6.21 0-9.42-3-9.42-8.56s3.21-8.56 9.42-8.56zm-.7 13.65c4 0 6-1.81 6-5.09s-2-5.09-6-5.09h-14.65c-4 0-6 1.81-6 5.09s2 5.09 6 5.09z"/><path d="m61.93 77.44h-3.96v3.34h26.96v-3.33h-23z"/><path d="m61.93 71.01v-.01h-3.96v3.26h3.96 23v-3.25z"/><path d="m63.02 67.82h21.91v-3.32h-26.96v3.31h5.05z"/><path d="m155.15 74.88c-.29 1.85-2.11 2.85-5.43 2.85h-11.2c-4 0-6-1.81-6-5.09s2-5.09 6-5.09h11.19c3.21 0 5 .92 5.41 2.66h4.17c-.32-4-3.31-6.13-8.89-6.13h-12.58c-6.21 0-9.42 3-9.42 8.56s3.21 8.56 9.42 8.56h12.59c5.67 0 8.67-2.16 8.91-6.31h-4.17z"/></g></svg>