<svg viewBox="0 0 216 144" xmlns="http://www.w3.org/2000/svg"><g fill="#de47a8"><path d="m43.18 53a5.89 5.89 0 0 0 4.45 1.65 14.05 14.05 0 0 0 4.37-.5l.24-.08v-4.8l-.54.34a5 5 0 0 1 -2.68.78 2.24 2.24 0 0 1 -1.87-.67 4.4 4.4 0 0 1 -.54-2.55v-7.61h5v-4.12h-5v-5.44l-5 1.82v3.6h-2.11v4.12h2.12v8.85a6.44 6.44 0 0 0 1.56 4.61z"/><path d="m57.73 41a3.75 3.75 0 0 1 1.35-1.09 4.21 4.21 0 0 1 2-.53 3.45 3.45 0 0 1 2.52.92 3.21 3.21 0 0 1 1 2.45v11.59h5v-11.56a7.71 7.71 0 0 0 -2-5.68 7.57 7.57 0 0 0 -5.57-2 7.35 7.35 0 0 0 -4.21 1.12v-8.66l-5 1.18v25.6h5v-13.34z"/><path d="m79 54.68c3.05 0 5.39-.64 6.95-1.9l.22-.18-2-3.93-.36.33a5.72 5.72 0 0 1 -4.19 1.41 5.14 5.14 0 0 1 -3.49-1.12 4.08 4.08 0 0 1 -1.35-2.76h13l.06-.27a12 12 0 0 0 .37-2.44 8.44 8.44 0 0 0 -2.51-6.26 9.76 9.76 0 0 0 -13.29.31 9.79 9.79 0 0 0 -2.77 7.21 9.58 9.58 0 0 0 2.54 7 9.3 9.3 0 0 0 6.82 2.6zm-4-12c.61-2.21 2-3.29 4.09-3.29 2.34 0 3.66 1.08 4 3.29z"/><path d="m45.45 80.93a7.62 7.62 0 0 0 4.28 1.21 9.1 9.1 0 0 0 7-2.77 9.26 9.26 0 0 0 2.18-4.12 9.2 9.2 0 0 0 2.09 4.18 8.61 8.61 0 0 0 6.74 2.71 8.65 8.65 0 0 0 6.69-2.68 8.49 8.49 0 0 0 1.35-2 9.44 9.44 0 0 0 14.74 2 10.23 10.23 0 0 0 2.44-7.15 10.17 10.17 0 0 0 -2.4-7.12 9.67 9.67 0 0 0 -13.36.1 8.89 8.89 0 0 0 -1.36 2 8.27 8.27 0 0 0 -1.37-2.05 8.71 8.71 0 0 0 -6.73-2.63 8.64 8.64 0 0 0 -6.63 2.73 9.14 9.14 0 0 0 -2.11 3.89 8.73 8.73 0 0 0 -2.24-4 9 9 0 0 0 -6.76-2.66 7.41 7.41 0 0 0 -3.37.79v-8.36l-5 1.19v25.95h2.94zm1.17-4v-9.2a3.44 3.44 0 0 1 2.53-.86c3.35 0 5 1.7 5 5.18a6.68 6.68 0 0 1 -1.2 4.44c-.79.89-2.17 1.34-4.11 1.34a2.82 2.82 0 0 1 -2.22-.88zm24-.4a3.38 3.38 0 0 1 -2.91 1.47c-2.69 0-4-1.85-4-5.66a6.81 6.81 0 0 1 1.11-4.15 3.41 3.41 0 0 1 2.89-1.42c2.68 0 4 1.82 4 5.57a7 7 0 0 1 -1.11 4.21zm16.1 0a3.38 3.38 0 0 1 -2.91 1.47c-2.69 0-4-1.85-4-5.66a6.82 6.82 0 0 1 1.11-4.15 3.41 3.41 0 0 1 2.89-1.42c2.68 0 4 1.82 4 5.57a7 7 0 0 1 -1.12 4.21z"/><path d="m98.1 68.47a3.89 3.89 0 0 1 1.21-1.11 3 3 0 0 1 1.56-.54 3 3 0 0 1 2.12.69 2.43 2.43 0 0 1 .73 1.88v12.41h5v-13.39a3 3 0 0 1 1.08-1.08 3.07 3.07 0 0 1 1.66-.51c2 0 2.87 1 2.87 3.23v11.75h5v-12.36a6.92 6.92 0 0 0 -1.8-5 6.7 6.7 0 0 0 -5-1.85 8.55 8.55 0 0 0 -3 .56 6.18 6.18 0 0 0 -2.12 1.26 7.72 7.72 0 0 0 -5.48-1.82 6.33 6.33 0 0 0 -4.51 1.7l-.74-1.36h-3.5v18.87h5v-13.33z"/><path d="m124.35 80.93a7.63 7.63 0 0 0 4.29 1.21 9.1 9.1 0 0 0 7-2.77 8.91 8.91 0 0 0 1.79-2.9 8.91 8.91 0 0 0 1.74 3 9.71 9.71 0 0 0 13.43 0 10.23 10.23 0 0 0 2.4-7.16 10.17 10.17 0 0 0 -2.4-7.12 9.67 9.67 0 0 0 -13.36.1 9 9 0 0 0 -1.75 2.8 8.71 8.71 0 0 0 -1.88-2.9 9 9 0 0 0 -6.72-2.63 7.42 7.42 0 0 0 -3.37.79v-8.35l-5 1.19v25.95h2.94zm3.65-14.06c3.35 0 5 1.7 5 5.18a6.68 6.68 0 0 1 -1.2 4.44c-.79.89-2.17 1.34-4.11 1.34a2.82 2.82 0 0 1 -2.19-.89v-9.21a3.44 3.44 0 0 1 2.5-.86zm13.83 5.44a6.81 6.81 0 0 1 1.17-4.15 3.41 3.41 0 0 1 2.89-1.42c2.68 0 4 1.82 4 5.57a7 7 0 0 1 -1.1 4.24 3.38 3.38 0 0 1 -2.92 1.45c-2.69 0-4-1.88-4-5.69z"/><path d="m152.18 81.8h5.94l4.05-5.69 4.51 5.69h6.09l-7.96-9.66 7.29-9.23h-5.76l-4.12 5.31-3.69-5.31h-5.77l6.71 9.23z"/><path d="m92.27 91.26h-6.09l-5.58 6.39v-14.28l-5 1.19v24.05l-.17-.11c-.87-.55-1.3-2-1.3-4.27v-3.89c0-3.65-.67-6.08-2.05-7.43s-3.5-2-6.37-2a12.45 12.45 0 0 0 -5.38 1.09l-.27.13 1.12 4 .38-.19a8.77 8.77 0 0 1 3.87-.76c2.34 0 3.53.77 3.71 2.41a7.06 7.06 0 0 0 -1.4-.16 11.51 11.51 0 0 0 -7 1.85 6.33 6.33 0 0 0 -1.47 1.53c0-.18 0-.36 0-.55a9.25 9.25 0 0 0 -2.56-6.71 9 9 0 0 0 -6.71-2.63 7.42 7.42 0 0 0 -3.37.79v-8.34l-5 1.19v25.93h2.94l.86-1.21a7.63 7.63 0 0 0 4.28 1.21 9.1 9.1 0 0 0 7-2.77 8.82 8.82 0 0 0 1.55-2.32 5.3 5.3 0 0 0 1.74 3.53 7.21 7.21 0 0 0 4.87 1.55 8.13 8.13 0 0 0 3.15-.63 5.09 5.09 0 0 0 1.8-1.19 4.16 4.16 0 0 0 .83 1 2.73 2.73 0 0 0 1.9.77 5.16 5.16 0 0 0 1.6-.23 2.63 2.63 0 0 0 1.42-1.2l.06-.1v1.28h5v-6.29l1.64-1.73 5.24 8h5.91l-7.68-11.62zm-23.08 10.27v1.41c0 2.37-1.11 3.47-3.49 3.47-1.7 0-2.5-.67-2.5-2.09 0-2 1.54-2.94 4.7-2.94a7.6 7.6 0 0 1 1.29.15zm-15-1.12a6.67 6.67 0 0 1 -1.2 4.44c-.79.89-2.17 1.34-4.11 1.34a2.82 2.82 0 0 1 -2.19-.88v-9.23a3.5 3.5 0 0 1 2.53-.86c3.32 0 4.95 1.7 4.95 5.19z"/><path d="m117.18 98.85a15 15 0 0 1 -3.06-1.46 1.25 1.25 0 0 1 -.6-1c0-.66.21-1.41 1.88-1.41a5.53 5.53 0 0 1 3.66 1.11l.38.32 1.56-4.04-.28-.14a12.08 12.08 0 0 0 -5.52-1.31 8 8 0 0 0 -4.83 1.38 4.54 4.54 0 0 0 -1.89 3.16 8.23 8.23 0 0 0 -1.55-2.09 9.75 9.75 0 0 0 -13.29.31 9.78 9.78 0 0 0 -2.77 7.21 9.58 9.58 0 0 0 2.54 7.05 9.31 9.31 0 0 0 6.86 2.54c3.05 0 5.39-.64 6.95-1.89l.22-.18-2-3.93-.34.34a5.73 5.73 0 0 1 -4.19 1.41 5.15 5.15 0 0 1 -3.49-1.12 4.09 4.09 0 0 1 -1.42-2.76h13l.06-.27a11.85 11.85 0 0 0 .37-2.44c0-.13 0-.26 0-.38a9 9 0 0 0 3.94 2.8 11.26 11.26 0 0 1 2.82 1.5 1.81 1.81 0 0 1 .63 1.43c0 .61-.22 1.41-2.14 1.41a6.46 6.46 0 0 1 -4.1-1.44l-.35-.28-1.84 4.09.29.15a14.78 14.78 0 0 0 2.9 1.24 12.06 12.06 0 0 0 3 .31 8.58 8.58 0 0 0 5.34-1.53 5.1 5.1 0 0 0 2-4.26 5.44 5.44 0 0 0 -1.13-3.46 8.43 8.43 0 0 0 -3.61-2.37zm-20.93-.39c.61-2.21 2-3.29 4.09-3.29 2.34 0 3.67 1.08 4 3.29z"/><path d="m165.42 90.92a5.84 5.84 0 0 0 -3.59 1.15v-.81h-5v9.3a10.13 10.13 0 0 0 -2.39-7 9.67 9.67 0 0 0 -13.36.1 9.16 9.16 0 0 0 -2.14 4 7.23 7.23 0 0 0 -2-4.7 7.57 7.57 0 0 0 -5.57-2 7.35 7.35 0 0 0 -4.15 1.04v-8.63l-5 1.18v25.59h5v-13.3a3.75 3.75 0 0 1 1.35-1.09 4.21 4.21 0 0 1 2-.53 3.45 3.45 0 0 1 2.52.92 3.21 3.21 0 0 1 1 2.45v11.56h5v-6.15a9.09 9.09 0 0 0 2 3.79 9.71 9.71 0 0 0 13.42 0 10.18 10.18 0 0 0 2.44-7v16.52h5v-7.4a8.86 8.86 0 0 0 3.31.61 9.3 9.3 0 0 0 6.74-2.52 9.68 9.68 0 0 0 2.52-7.13c-.01-6.61-3.07-9.95-9.1-9.95zm-14.8 14a3.38 3.38 0 0 1 -2.88 1.42c-2.69 0-4-1.85-4-5.66a6.82 6.82 0 0 1 1.11-4.15 3.41 3.41 0 0 1 2.89-1.42c2.68 0 4 1.82 4 5.57a7 7 0 0 1 -1.12 4.22zm11.21-8.69a3.36 3.36 0 0 1 2.38-1 5.43 5.43 0 0 1 4 1.21c.78.8 1.18 2.25 1.18 4.3a6.09 6.09 0 0 1 -1.2 4.18 5.24 5.24 0 0 1 -4 1.29 3.83 3.83 0 0 1 -2.36-.75v-9.25z"/></g></svg>