<svg viewBox="0 0 216 144" xmlns="http://www.w3.org/2000/svg"><g fill="#231f20"><path d="m56.62 53.18v12.58h-13.55v-12.58h-6.08v33.34h6.08v-15.24h13.55v15.24h6.07v-33.34z"/><path d="m74 53.57a4.05 4.05 0 0 0 -2.61-.85 4 4 0 0 0 -2.59.86 3.16 3.16 0 0 0 -1.11 2.58 3.2 3.2 0 0 0 1.1 2.59 3.93 3.93 0 0 0 2.6.87 4 4 0 0 0 2.61-.87 3.17 3.17 0 0 0 1.13-2.59 3.13 3.13 0 0 0 -1.13-2.59z"/><path d="m68.24 62.11h6.08v24.41h-6.08z"/><path d="m105.75 53.18-10.96 12.64-11-12.64h-4.02v33.34h6.07v-22.76l8.95 10.42 8.9-10.38v22.72h6.08v-33.34z"/><path d="m140.88 53.18-10.95 12.64-11.01-12.64h-4.02v33.34h6.08v-22.76l8.95 10.42 8.9-10.38v22.72h6.08v-33.34z"/><path d="m176.02 53.18-10.96 12.64-11-12.64h-4.02v33.34h6.07v-22.76l8.95 10.42 8.91-10.38v22.72h6.07v-33.34z"/></g></svg>