<svg viewBox="0 0 216 144" xmlns="http://www.w3.org/2000/svg" xmlns:xlink="http://www.w3.org/1999/xlink"><linearGradient id="a" gradientUnits="userSpaceOnUse" x1="60.65" x2="153.52" y1="66.35" y2="66.35"><stop offset="0" stop-color="#969696" stop-opacity="0"/><stop offset="1" stop-color="#969696"/></linearGradient><linearGradient id="b" gradientUnits="userSpaceOnUse" x1="60.64" x2="153.52" y1="75.27" y2="75.27"><stop offset="0" stop-color="#969696"/><stop offset="1" stop-color="#969696" stop-opacity="0"/></linearGradient><path d="m135.75 70.82a28.66 28.66 0 0 1 -57.33-.05s0 0 0 .06a29.37 29.37 0 0 1 .15-3 37.54 37.54 0 0 1 75 3 46.44 46.44 0 0 0 -92.87 0 37.55 37.55 0 0 0 75.1.05" fill="url(#a)"/><path d="m78.42 70.8a28.66 28.66 0 0 1 57.32.05s0 0 0-.06a29.14 29.14 0 0 1 -.15 3 37.54 37.54 0 0 1 -75-3 46.44 46.44 0 0 0 92.88 0 37.55 37.55 0 0 0 -75.1-.05" fill="url(#b)"/><g fill="#6e6f72"><path d="m44.54 67.07a.3.3 0 0 1 .31-.31h.37a.31.31 0 0 1 .31.31v3.61l4-3.79a.39.39 0 0 1 .24-.13h.63a.25.25 0 0 1 .15.45l-4 3.77 4.22 4.33a.25.25 0 0 1 -.22.39h-.7a.35.35 0 0 1 -.23-.09l-4.1-4.27v4.06a.31.31 0 0 1 -.31.31h-.37a.3.3 0 0 1 -.31-.31v-8.33z"/><path d="m56.3 75.37 3.88-8.59a.23.23 0 0 1 .22-.14h.13a.23.23 0 0 1 .22.14l3.85 8.59a.23.23 0 0 1 -.22.33h-.51a.23.23 0 0 1 -.22-.14l-.94-2.11h-4.53l-.93 2.11a.24.24 0 0 1 -.22.14h-.51a.23.23 0 0 1 -.22-.33zm6.06-2.71c-.63-1.39-1.24-2.79-1.86-4.18h-.1l-1.86 4.18h3.83z"/><path d="m71.1 67a.24.24 0 0 1 .24-.24h3.31a2.74 2.74 0 0 1 2.78 2.72 2.85 2.85 0 0 1 -1.89 2.6l1.75 3.24a.24.24 0 0 1 -.22.37h-.65a.22.22 0 0 1 -.2-.11l-1.7-3.38h-2.44v3.25a.25.25 0 0 1 -.24.24h-.5a.24.24 0 0 1 -.24-.24zm3.48 4.35a1.83 1.83 0 1 0 0-3.66h-2.47v3.66h2.48z"/><path d="m85.65 66.82a.24.24 0 0 1 .23-.18h.2a.24.24 0 0 1 .22.14l2.53 7h.06l2.49-7a.24.24 0 0 1 .22-.14h.2a.25.25 0 0 1 .23.18l1.65 8.57a.22.22 0 0 1 -.23.31h-.52a.26.26 0 0 1 -.23-.18l-1.14-6.57h-.04l-2.35 6.74a.26.26 0 0 1 -.22.14h-.23a.26.26 0 0 1 -.22-.14l-2.37-6.74h-.05l-1.08 6.57a.25.25 0 0 1 -.23.18h-.54a.22.22 0 0 1 -.23-.31z"/><path d="m99.52 75.37 3.88-8.59a.23.23 0 0 1 .22-.14h.13a.23.23 0 0 1 .22.14l3.85 8.59a.23.23 0 0 1 -.22.33h-.51a.24.24 0 0 1 -.22-.14l-.94-2.11h-4.53l-.93 2.11a.24.24 0 0 1 -.22.14h-.51a.22.22 0 0 1 -.22-.33zm6.06-2.71c-.62-1.39-1.24-2.79-1.86-4.18h-.1l-1.86 4.18h3.83z"/><path d="m124.05 71.4-3.05-4.26a.24.24 0 0 1 .2-.37h.6a.28.28 0 0 1 .2.11l2.58 3.56 2.58-3.56a.28.28 0 0 1 .2-.11h.6a.24.24 0 0 1 .2.37l-3.16 4.25v4.07a.25.25 0 0 1 -.24.24h-.5a.24.24 0 0 1 -.24-.24v-4.06z"/><path d="m138.34 66.64a4.59 4.59 0 1 1 -4.58 4.61 4.59 4.59 0 0 1 4.58-4.61zm0 8.29a3.7 3.7 0 1 0 -3.69-3.69 3.71 3.71 0 0 0 3.69 3.69z"/><path d="m153.44 66.64a4.49 4.49 0 0 1 3.09 1.19.25.25 0 0 1 0 .36c-.11.12-.26.24-.36.36s-.19.12-.33 0a3.87 3.87 0 0 0 -2.42-1 3.68 3.68 0 0 0 0 7.35 4.81 4.81 0 0 0 2.3-.54v-1.8h-1.47a.23.23 0 0 1 -.24-.23v-.47a.23.23 0 0 1 .24-.24h2.21a.24.24 0 0 1 .23.24v2.92a.32.32 0 0 1 -.1.2 6.3 6.3 0 0 1 -3.15.84 4.59 4.59 0 1 1 0-9.18z"/><path d="m162.71 75.37 3.88-8.59a.23.23 0 0 1 .22-.14h.13a.23.23 0 0 1 .22.14l3.84 8.59a.23.23 0 0 1 -.22.33h-.51a.23.23 0 0 1 -.22-.14l-.94-2.11h-4.53l-.93 2.11a.24.24 0 0 1 -.22.14h-.51a.23.23 0 0 1 -.21-.33zm6.06-2.71c-.63-1.39-1.24-2.79-1.86-4.18h-.1l-1.86 4.18h3.83z"/></g></svg>