<svg viewBox="0 0 216 144" xmlns="http://www.w3.org/2000/svg"><path d="m84.71 88.88a2.06 2.06 0 0 1 -4.13 0 2.06 2.06 0 0 1 4.13 0z"/><path d="m47.88 46.29c1.81 0 2.2.91 2.68 2.23l1.37 3.85 1.35-3.85c.48-1.33.87-2.23 2.69-2.23h.89c1.39 0 1.92.52 1.92 1.83v8.77c0 1.27-.48 1.79-1.92 1.79h-.1c-1.38 0-1.92-.52-1.92-1.79v-4.81l-.84 2.73a1.94 1.94 0 0 1 -1.81 1.65h-.5a2 2 0 0 1 -1.85-1.65l-.84-2.73v4.81c0 1.27-.54 1.79-1.92 1.79h-.08c-1.44 0-1.92-.52-1.92-1.79v-8.77c0-1.31.54-1.83 1.92-1.83h.89z"/><path d="m62.45 46.29c1.09 0 1.42.7 1.72 1.7a35.66 35.66 0 0 0 1.16 3.66 34 34 0 0 0 1.19-3.65c.3-1 .63-1.7 1.72-1.7h1.22c1.44 0 1.7.83 1.25 2.16a23.94 23.94 0 0 1 -3.2 6.38v2.06c0 1.27-.54 1.79-1.93 1.79h-.58c-1.44 0-1.92-.52-1.92-1.79v-2.14a24 24 0 0 1 -3.08-6.31c-.44-1.33-.18-2.16 1.26-2.16h1.22z"/><path d="m78.14 46.29c3.28 0 4.51 1.33 4.51 3.22a2.77 2.77 0 0 1 -1.65 2.55 2.86 2.86 0 0 1 2.07 2.87c0 2.35-1.81 3.76-4.79 3.76h-4.08c-1.44 0-1.93-.52-1.93-1.79v-8.78c0-1.31.54-1.83 1.93-1.83zm-1.65 5.12h1.15c.74 0 1.13-.26 1.13-.85s-.39-.81-1.13-.81h-1.15zm0 3.8h1.33c.74 0 1.13-.26 1.13-.85s-.39-.81-1.13-.81h-1.33v1.67z"/><path d="m86.73 46.29c1.39 0 1.93.52 1.93 1.83v8.77c0 1.27-.53 1.79-1.93 1.79h-.37c-1.44 0-1.92-.52-1.92-1.79v-8.77c0-1.31.54-1.83 1.92-1.83z"/><path d="m100.49 48.93a1.92 1.92 0 0 1 -1.81 1.87 3.64 3.64 0 0 0 -2.37-.68c-1.33 0-2.14.83-2.14 2.44a2 2 0 0 0 2.18 2.33c.72 0 1.37-.28 1.37-.79 0-.11-.08-.15-.21-.15h-.3a1.32 1.32 0 0 1 0-2.65h2.79a1.48 1.48 0 0 1 1.56 1.48v.88a5.13 5.13 0 0 1 -5.56 5.21c-2.77 0-6.2-1.53-6.2-6.38s3.45-6.39 6.2-6.39c2.52 0 4.49.99 4.49 2.83z"/><path d="m47.2 62.21c1.09 0 1.42.71 1.72 1.71a37.35 37.35 0 0 0 1.16 3.66 36.51 36.51 0 0 0 1.17-3.66c.3-1 .63-1.71 1.72-1.71h1.22c1.44 0 1.7.83 1.26 2.17a23.89 23.89 0 0 1 -3.2 6.38v2.05c0 1.28-.53 1.8-1.92 1.8h-.55c-1.44 0-1.92-.52-1.92-1.8v-2.12a23.91 23.91 0 0 1 -3.15-6.31c-.44-1.38-.18-2.17 1.29-2.17z"/><path d="m64.14 62.21a1.9 1.9 0 0 1 0 3.78h-3.28v.92h1.74c1 0 1.74.26 1.74 1.48s-.73 1.48-1.74 1.48h-1.74v1h3.46a1.9 1.9 0 0 1 0 3.78h-5.75c-1.44 0-1.93-.52-1.93-1.8v-8.85c0-1.32.54-1.84 1.93-1.84h5.57z"/><path d="m69.62 62.21c1.39 0 1.93.52 1.93 1.84v6.67h3.26a2 2 0 0 1 0 3.89h-5.55c-1.44 0-1.92-.52-1.92-1.8v-8.81c0-1.32.54-1.84 1.92-1.84h.37z"/><path d="m79.72 62.21c1.39 0 1.92.52 1.92 1.84v6.67h3.26a2 2 0 0 1 0 3.89h-5.55c-1.44 0-1.92-.52-1.92-1.8v-8.81c0-1.32.54-1.84 1.92-1.84h.37z"/><path d="m99.32 68.41c0 4.84-3.43 6.39-6.19 6.39s-6.19-1.54-6.19-6.39 3.4-6.41 6.18-6.41 6.2 1.56 6.2 6.41zm-4.33 0c.01-1.87-.99-2.41-1.87-2.41s-1.85.54-1.85 2.41 1 2.42 1.85 2.42 1.88-.55 1.88-2.42z"/><path d="m102.7 62.21a1.73 1.73 0 0 1 2 1.69 60.4 60.4 0 0 0 .41 6.7l.69-5.33a1.55 1.55 0 0 1 1.64-1.49h.77a1.56 1.56 0 0 1 1.64 1.49l.84 5.33a60.92 60.92 0 0 0 .4-6.7 1.73 1.73 0 0 1 2-1.69h.76a1.54 1.54 0 0 1 1.76 1.67v.54a42.12 42.12 0 0 1 -1.31 8c-.63 1.91-1.78 2.2-2.61 2.2h-.78c-2 0-2.51-2.26-3.05-5.18-.52 2.93-.9 5.18-2.93 5.18h-.75c-.84 0-2-.3-2.62-2.2a42.47 42.47 0 0 1 -1.35-7.88 5.13 5.13 0 0 1 0-.67 1.56 1.56 0 0 1 1.79-1.67h.76z"/><path d="m50.93 78.14c3.28 0 4.52 1.33 4.52 3.22a2.78 2.78 0 0 1 -1.61 2.54 2.84 2.84 0 0 1 2.07 2.86c0 2.36-1.81 3.76-4.79 3.76h-4.12c-1.44 0-1.92-.52-1.92-1.8v-8.72c0-1.32.54-1.84 1.92-1.84h3.94zm-1.65 5.13h1.15c.74 0 1.13-.26 1.13-.85s-.39-.81-1.13-.81h-1.14v1.66zm0 3.79h1.33c.74 0 1.13-.26 1.13-.85s-.39-.82-1.13-.82h-1.32v1.67z"/><path d="m59.21 78.14c1.41 0 1.94.53 1.94 1.85v5.33a1.44 1.44 0 0 0 2.89 0v-5.32c0-1.32.54-1.85 1.94-1.85h.3c1.29 0 2 .53 2 1.85v4.53c0 2.63-.45 6.11-5.67 6.11s-5.66-3.48-5.66-6.11v-4.53c0-1.32.68-1.85 2-1.85h.29z"/><path d="m79.15 80.57a2.14 2.14 0 0 1 -1.09 1.87 6.94 6.94 0 0 0 -3.26-.83c-.68 0-.9.2-.9.5s.35.43.8.52c4.14.94 4.9 2.11 4.9 4 0 2.28-2.11 4.11-5.39 4.11-2.59 0-4.92-.92-4.92-2.43a2.23 2.23 0 0 1 1.15-2.07 8.84 8.84 0 0 0 3.88 1.13c.45 0 .84-.14.84-.5s-.07-.39-1.2-.6c-2.85-.53-4.4-1.64-4.4-4.09s2-4.22 5-4.22c2.57.04 4.59.77 4.59 2.61z"/><path d="m94.18 83.12a1.81 1.81 0 0 1 -2.06 1.65 1.57 1.57 0 0 0 -1.31-.63 1.36 1.36 0 0 0 -1.52 1.54 1.38 1.38 0 0 0 1.52 1.54 2.1 2.1 0 0 0 1.5-.52 1.86 1.86 0 0 1 1.93 1.68c0 1.37-1.58 2.35-3.55 2.35-2.61 0-5.24-1.5-5.24-5.05a4.87 4.87 0 0 1 5.12-5.22c2.43-.01 3.61 1.33 3.61 2.66z"/><path d="m103.62 84.84v2.05a2.37 2.37 0 0 0 .76 2 2 2 0 0 1 -2.16 1.74 1.94 1.94 0 0 1 -2-1.39 2.34 2.34 0 0 1 -2.39 1.41 3 3 0 0 1 -3.2-3c0-2.06 1.85-2.94 3.68-2.94a9.67 9.67 0 0 1 1.85.18v-.2c0-.54-.63-.85-1.64-.85a5.17 5.17 0 0 0 -2.52.56 1.75 1.75 0 0 1 -1-1.5c0-1.18 1.5-2.35 4.15-2.35 3.47 0 4.49 1.83 4.47 4.29zm-5.42 2.43a.79.79 0 0 0 .85.78 1.06 1.06 0 0 0 1.07-1.15v-.34a5.68 5.68 0 0 0 -1-.11.76.76 0 0 0 -.92.82z"/><path d="m177.43 72.46c-5.48-2.72-14.24-4.81-17-5.92v-14.06a2.6 2.6 0 0 0 1.75-2 15.77 15.77 0 0 0 .25-4.89c-.46-2-2.91-5.66-3.94-7.13a2.6 2.6 0 0 0 -2.12-1.1h-118a2.59 2.59 0 0 0 -2.59 2.59v57.35a2.59 2.59 0 0 0 2.59 2.58h13.47a11.31 11.31 0 0 0 21.65 0h71.33a11.31 11.31 0 0 0 21.65 0h11.05a2.59 2.59 0 0 0 2.59-2.48c.08-1.91.68-17.37-1.36-23.45a2.62 2.62 0 0 0 -1.32-1.49zm-114.77 30.43a5.81 5.81 0 0 1 -5.37-3h10.71a5.81 5.81 0 0 1 -5.34 3zm93 0a5.81 5.81 0 0 1 -5.37-3h10.71a5.81 5.81 0 0 1 -5.37 3zm19.34-8.18h-134.06v-52.2h114.06a24.58 24.58 0 0 1 2.36 4.15 7.85 7.85 0 0 1 0 .94 2.59 2.59 0 0 0 -2.08 2.54v18.16a2.59 2.59 0 0 0 1.67 2.42c.07 0 10.33 2.53 17.2 5.88.95 4.4.97 12.51.85 18.11z"/></svg>