<svg viewBox="0 0 216 144" xmlns="http://www.w3.org/2000/svg"><path d="m69.39 50.01h-19.08-17.2v38.91h17.2 7.65v9.56l11.43-9.56h17.19v-38.91z" fill="none" stroke="#323031" stroke-linejoin="round" stroke-width="5.899"/><g fill="#323031"><path d="m101.05 52.84c.94-2.89 3.27-4.4 6.43-4.4s5.51 1.51 6.46 4.4a14.86 14.86 0 0 1 .54 5.08 14.83 14.83 0 0 1 -.54 5.08c-.94 2.89-3.27 4.41-6.46 4.41s-5.48-1.52-6.43-4.41a14.73 14.73 0 0 1 -.54-5.08 14.76 14.76 0 0 1 .54-5.08zm9.81.87a3.56 3.56 0 0 0 -6.73 0 13.09 13.09 0 0 0 -.38 4.22 13.1 13.1 0 0 0 .38 4.22 3.56 3.56 0 0 0 6.73 0 13.17 13.17 0 0 0 .38-4.22 13.16 13.16 0 0 0 -.38-4.23z"/><path d="m117.18 65.57v-15.41a1.32 1.32 0 0 1 1.41-1.43h5.76c3.56 0 6 2.3 6 5.7s-2.48 5.73-6 5.73h-3.82a.15.15 0 0 0 -.16.16v5.25a1.6 1.6 0 1 1 -3.19 0zm10-11.14a2.77 2.77 0 0 0 -3.05-2.84h-3.62a.14.14 0 0 0 -.16.16v5.35a.14.14 0 0 0 .16.16h3.62a2.76 2.76 0 0 0 3.08-2.83z"/><path d="m132.53 50.16a1.33 1.33 0 0 1 1.47-1.43h9.16a1.44 1.44 0 1 1 0 2.86h-7.24a.14.14 0 0 0 -.16.16v4.49a.14.14 0 0 0 .16.16h5.89a1.44 1.44 0 1 1 0 2.86h-5.89a.14.14 0 0 0 -.16.16v4.65a.14.14 0 0 0 .16.16h7.24a1.44 1.44 0 1 1 0 2.86h-9.16a1.33 1.33 0 0 1 -1.43-1.43v-15.5z"/><path d="m147.39 50.52a1.73 1.73 0 0 1 1.81-1.92 2.43 2.43 0 0 1 2.11 1.57l6.75 11.46h.08v-11.47a1.48 1.48 0 1 1 2.95 0v15.16a1.72 1.72 0 0 1 -1.79 1.91 2.43 2.43 0 0 1 -2.14-1.56l-6.73-11.46h-.11v11.47a1.48 1.48 0 1 1 -2.95 0v-15.16z"/><path d="m100.51 81.83a15.9 15.9 0 0 1 .51-5.05 6.21 6.21 0 0 1 6.38-4.43 6 6 0 0 1 5.54 3 1.94 1.94 0 0 1 .27.95 1.41 1.41 0 0 1 -1.46 1.43 1.63 1.63 0 0 1 -1.41-.86 3.46 3.46 0 0 0 -6.24.75 13.58 13.58 0 0 0 -.35 4.22 13.57 13.57 0 0 0 .35 4.16 3.46 3.46 0 0 0 6.24.75 1.64 1.64 0 0 1 1.41-.87 1.42 1.42 0 0 1 1.46 1.46 1.93 1.93 0 0 1 -.27.92 6 6 0 0 1 -5.54 3 6.21 6.21 0 0 1 -6.4-4.37 15.88 15.88 0 0 1 -.49-5.06z"/><path d="m115.83 74.19a1.6 1.6 0 1 1 3.19 0v13.81a.14.14 0 0 0 .16.16h7.24a1.44 1.44 0 1 1 0 2.86h-9a1.49 1.49 0 0 1 -1.59-1.6z"/><path d="m129.37 76.75c.95-2.89 3.27-4.4 6.43-4.4s5.51 1.51 6.46 4.4a14.7 14.7 0 0 1 .54 5.08 14.65 14.65 0 0 1 -.54 5.08c-.95 2.89-3.27 4.41-6.46 4.41s-5.48-1.51-6.43-4.41a14.69 14.69 0 0 1 -.54-5.08 14.75 14.75 0 0 1 .54-5.08zm9.81.86a3.56 3.56 0 0 0 -6.73 0 13.13 13.13 0 0 0 -.38 4.22 13.13 13.13 0 0 0 .38 4.22 3.56 3.56 0 0 0 6.73 0 13.23 13.23 0 0 0 .38-4.22 13.23 13.23 0 0 0 -.38-4.21z"/><path d="m145.77 89.67a1.61 1.61 0 0 1 -.81-1.38 1.44 1.44 0 0 1 1.43-1.46 2.09 2.09 0 0 1 1 .29 8 8 0 0 0 4.24 1.32c2.27 0 3.56-1.05 3.56-2.65 0-1.32-.76-2.22-3.32-2.53l-.87-.13c-3.7-.49-5.56-2.22-5.56-5.27 0-3.32 2.43-5.51 6.19-5.51a9.88 9.88 0 0 1 5 1.24 1.45 1.45 0 0 1 .81 1.3 1.36 1.36 0 0 1 -1.4 1.4 2.5 2.5 0 0 1 -1-.24 7.7 7.7 0 0 0 -3.43-.83c-1.94 0-2.92 1.06-2.92 2.46s.92 2.14 3.35 2.49l.92.13c3.76.51 5.57 2.24 5.57 5.38s-2.35 5.65-7 5.65a10.61 10.61 0 0 1 -5.76-1.66z"/><path d="m161.09 74.08a1.33 1.33 0 0 1 1.43-1.44h9.16a1.44 1.44 0 1 1 0 2.87h-7.24a.14.14 0 0 0 -.16.16v4.49a.14.14 0 0 0 .16.16h5.89a1.44 1.44 0 1 1 0 2.87h-5.89a.14.14 0 0 0 -.16.16v4.65a.14.14 0 0 0 .16.16h7.24a1.44 1.44 0 1 1 0 2.86h-9.16a1.33 1.33 0 0 1 -1.43-1.44z"/><path d="m177 75.51a1.44 1.44 0 1 1 0-2.87h10.81a1.44 1.44 0 1 1 0 2.87h-3.65a.14.14 0 0 0 -.16.16v13.8a1.6 1.6 0 1 1 -3.19 0v-13.8a.14.14 0 0 0 -.16-.16z"/></g><path d="m50.31 50.01h19.08v6.51h-19.08z" fill="#c32935"/><path d="m50.31 56.52h19.08v6.5h-19.08z" fill="#f05825"/><path d="m50.31 75.91h19.08v6.5h-19.08z" fill="#0986b2"/><path d="m50.31 82.41h19.08v6.5h-19.08z" fill="#6c4299"/><path d="m50.31 69.4h19.08v6.51h-19.08z" fill="#a0cc40"/><path d="m50.31 62.9h19.08v6.5h-19.08z" fill="#f6d615"/><path d="m69.39 50.01h17.19v38.9h-17.19z" fill="#fff"/><path d="m57.96 59.58v38.9l11.43-9.56v-38.91z" fill="#a6a8ab"/><path d="m33.11 50.01h17.19v38.9h-17.19z" fill="#fff"/></svg>