<svg enable-background="new 0 0 216 108" viewBox="0 0 216 108" xmlns="http://www.w3.org/2000/svg"><g fill="#fff"><path d="m53 57.6c-.2-.1-.3-.2-.5-.4-.1-.1-.2-.2-.2-.3-.1-.1-.2-.2-.3-.4-.1-.1-.1-.3-.2-.4-.1-.2-.2-.3-.2-.5h-31.6l.1.1h-.1l34 51.4v-11.7-37.3c-.3-.1-.6-.2-.8-.4-.1 0-.1-.1-.2-.1z"/><path d="m90 55.7h-31.7c0 .2-.1.3-.2.5-.1.1-.1.3-.2.4s-.2.3-.3.4-.1.2-.2.3-.3.3-.5.4c-.1 0-.1.1-.2.2-.2.1-.5.3-.8.4v37.3 11.8z"/><path d="m57.6 52.4.3.3s0 0 .1.1.2.3.2.4c0 0 0 .1.1.1.1.1.1.3.1.4h31.6v-50.3l-32.8 48.6c.1.1.2.3.4.4-.1 0 0 0 0 0z"/><path d="m51.8 53.4c0-.1 0-.1.1-.2s.1-.3.2-.4c0 0 0-.1.1-.1.1-.1.2-.2.3-.3 0 0 0 0 .1-.1s.2-.2.3-.3l-33-48.5v50.3h31.7c.1-.1.1-.2.2-.4z"/><path d="m105.2 21.1h5.9v22.6h-5.9z"/><path d="m120.7 39.8-1.6 3.9h-6.2l8.7-22.6h6.4l8.5 22.6h-6.3l-1.5-3.9zm4.1-11.7-2.5 7.2h4.9z"/><path d="m138.3 43.7v-22.6h8.4c4 0 6.7 1.6 6.7 5.9 0 2-.7 3.7-2.5 4.6v.1c3.2.4 4.6 2.6 4.6 5.8 0 4.7-4 6.3-8.2 6.3h-9zm5.9-13.7h.7c1.6 0 3.2-.3 3.2-2.2 0-2.1-1.8-2.2-3.4-2.2h-.4v4.4zm0 9.2h.8c1.7 0 4.7.1 4.7-2.4 0-2.7-2.9-2.5-4.8-2.5h-.6v4.9z"/><path d="m174.8 28.7c-1.2-1.6-3.1-2.5-5.2-2.5-3.6 0-6 2.8-6 6.3 0 3.6 2.5 6.2 6.1 6.2 1.9 0 3.8-.9 5.1-2.4v7.1c-1.9.6-3.4 1-5.2 1-3.1 0-6.1-1.2-8.5-3.3-2.5-2.2-3.6-5.2-3.6-8.5 0-3.1 1.2-6.1 3.3-8.3 2.2-2.3 5.4-3.7 8.6-3.7 1.9 0 3.6.4 5.4 1.1z"/><path d="m109.8 66.3 4.9-11.5h1.4l-6.3 14.6-6.4-14.6h1.4z"/><path d="m121 50.2c0 .7-.5 1.2-1.2 1.2s-1.2-.5-1.2-1.2.5-1.2 1.2-1.2 1.2.5 1.2 1.2m-.6 18.5h-1.3v-13.9h1.3z"/><path d="m126.9 56.6c.6-1.3 1.6-2.1 3.1-2.1.5 0 1 .1 1.5.3l-.7 1.2c-.3-.2-.6-.3-1-.3-3 0-2.8 3.8-2.8 5.8v7.1h-1.4v-13.8h1.4v1.8z"/><path d="m136 68.7h-1.3v-12.6h-1.6v-1.3h1.6v-4.9h1.3v4.9h2.4v1.3h-2.4z"/><path d="m150.5 54.8v8.3c0 1.4 0 2.8-.8 4-1 1.3-2.6 1.9-4.1 1.9-1.6 0-3.2-.6-4.1-1.9-.9-1.2-.8-2.6-.8-4v-8.3h1.4v7.8c0 2.7.3 5.1 3.6 5.1s3.6-2.4 3.6-5.1v-7.8z"/><path d="m168.1 61.8c0 4.1-3.2 7.2-7.3 7.2-4 0-7.2-3.3-7.2-7.2 0-4 3.2-7.3 7.2-7.3 4.1 0 7.3 3.2 7.3 7.3m-13.2 0c0 3.1 2.5 5.9 5.8 5.9 3.4 0 6-2.6 6-5.9 0-3.4-2.6-6-6-6-3.3 0-5.8 2.8-5.8 6"/><path d="m177.2 57.3c-.5-1-1.4-1.6-2.4-1.6-1.2 0-2.4 1-2.4 2.2 0 3.3 6.7 1.7 6.7 6.7 0 2.5-2 4.3-4.5 4.3-2.3 0-4.2-1.4-4.8-3.7l1.3-.4c.5 1.7 1.6 2.8 3.4 2.8 1.7 0 3.1-1.4 3.1-3.1s-1.3-2.3-2.7-2.7c-1.9-.7-4-1.5-4-3.8 0-2.1 1.8-3.5 3.8-3.5 1.4 0 2.9.9 3.5 2.2z"/><path d="m195.7 61.8c0 4.1-3.2 7.2-7.3 7.2-4 0-7.2-3.3-7.2-7.2 0-4 3.2-7.3 7.2-7.3 4.1 0 7.3 3.2 7.3 7.3m-13.1 0c0 3.1 2.5 5.9 5.8 5.9 3.4 0 6-2.6 6-5.9 0-3.4-2.6-6-6-6-3.3 0-5.8 2.8-5.8 6"/><path d="m106.2 77.6h3.7c2.1 0 2.9 1.1 2.9 2.2 0 1-.5 1.6-1.1 1.9.6.2 1.3.8 1.3 2 0 1.5-1.2 2.6-3 2.6h-3.9v-8.7zm3.5 3.4c.9 0 1.2-.4 1.2-1s-.5-.9-1.2-.9h-1.7v2h1.7zm-1.7 3.8h1.7c1 0 1.5-.4 1.5-1.2 0-.7-.4-1.1-1.5-1.1h-1.7z"/><path d="m115.8 83.4c0 .8.4 1.6 1.3 1.6.7 0 1-.3 1.1-.7h1.8c-.2.8-.9 2.1-3 2.1s-3.1-1.6-3.1-3.3c0-2 1-3.5 3.1-3.5 2.2 0 3 1.6 3 3.2v.5h-4.2zm2.5-1.1c0-.7-.3-1.4-1.2-1.4-.8 0-1.2.6-1.3 1.4z"/><path d="m122.6 84.3c.1.5.6.8 1.2.8.7 0 .9-.2.9-.6s-.3-.6-1.2-.8c-2.1-.5-2.4-1.2-2.4-2.1s.7-2 2.6-2c2 0 2.6 1.1 2.7 1.9h-1.7c-.1-.2-.2-.7-1.1-.7-.6 0-.8.3-.8.5 0 .3.2.5 1.2.7 2.2.5 2.5 1.2 2.5 2.2 0 1.1-.8 2-2.8 2s-2.8-.9-2.9-2.1h1.8z"/><path d="m127 79.8h1v-1.8h1.8v1.7h1.3v1.3h-1.3v3.2c0 .5.1.7.7.7h.4v1.2c-.3.1-.8.1-1.2.1-1.3 0-1.7-.7-1.7-1.8v-3.4h-1z"/><path d="m141.2 83c0 2-1.2 3.4-3.2 3.4s-3.2-1.4-3.2-3.3c0-2 1.2-3.4 3.2-3.4 2-.1 3.2 1.3 3.2 3.3zm-4.6 0c0 1.2.5 2 1.4 2s1.4-.7 1.4-2-.5-2-1.4-2c-.8 0-1.4.6-1.4 2z"/><path d="m142.7 86.2v-5.1h-.9v-1.3h.9v-.6c0-1.3.7-2.2 2.1-2.2.3 0 .7 0 .8.1v1.4c-.1 0-.2 0-.4 0-.5 0-.7.2-.7.9v.4h1.1v1.3h-1.1v5.1z"/><path d="m148.9 79.8h1v-1.8h1.8v1.7h1.3v1.3h-1.3v3.2c0 .5.1.7.7.7h.4v1.2c-.3.1-.8.1-1.2.1-1.3 0-1.7-.7-1.7-1.8v-3.4h-1z"/><path d="m155.8 77.1v3.4c.3-.4.8-.9 1.8-.9 1.2 0 2.2.7 2.2 2.5v4.1h-1.8v-3.9c0-.8-.3-1.3-1-1.3-1 0-1.2.7-1.2 1.7v3.4h-1.8v-9.1h1.8z"/><path d="m162.8 83.4c0 .8.4 1.6 1.3 1.6.7 0 1-.3 1.1-.7h1.8c-.2.8-.9 2.1-3 2.1s-3-1.6-3-3.3c0-2 1-3.5 3.1-3.5 2.2 0 3 1.6 3 3.2v.5h-4.3zm2.5-1.1c0-.7-.3-1.4-1.2-1.4-.8 0-1.2.6-1.3 1.4z"/><path d="m171.5 77.6h3.7c2.1 0 2.9 1.1 2.9 2.2 0 1-.5 1.6-1.1 1.9.6.2 1.3.8 1.3 2 0 1.5-1.2 2.6-3 2.6h-3.9v-8.7zm3.6 3.4c.9 0 1.2-.4 1.2-1s-.5-.9-1.2-.9h-1.8v2h1.8zm-1.8 3.8h1.7c1 0 1.5-.4 1.5-1.2 0-.7-.4-1.1-1.5-1.1h-1.7z"/><path d="m181.1 83.4c0 .8.4 1.6 1.3 1.6.7 0 1-.3 1.1-.7h1.8c-.2.8-.9 2.1-3 2.1s-3.1-1.6-3.1-3.3c0-2 1-3.5 3.1-3.5 2.2 0 3 1.6 3 3.2v.5h-4.2zm2.5-1.1c0-.7-.3-1.4-1.2-1.4-.8 0-1.2.6-1.3 1.4z"/><path d="m188 84.3c.1.5.6.8 1.2.8.7 0 .9-.2.9-.6s-.3-.6-1.2-.8c-2.1-.5-2.4-1.2-2.4-2.1s.7-2 2.6-2c2 0 2.6 1.1 2.7 1.9h-1.8c-.1-.2-.2-.7-1.1-.7-.6 0-.8.3-.8.5 0 .3.2.5 1.2.7 2.2.5 2.5 1.2 2.5 2.2 0 1.1-.8 2-2.8 2s-2.8-.9-2.9-2.1h1.9z"/><path d="m192.4 79.8h1v-1.8h1.8v1.7h1.3v1.3h-1.3v3.2c0 .5.1.7.7.7h.4v1.2c-.3.1-.8.1-1.2.1-1.3 0-1.7-.7-1.7-1.8v-3.4h-1z"/></g></svg>