<svg enable-background="new 0 0 216 108" viewBox="0 0 216 108" xmlns="http://www.w3.org/2000/svg"><g fill="#fff"><path d="m113.6 23.7 18.7-1-14.7 11.5 6.7 17.5-15.5-10.5-14.6 11.7 5.2-17.9-15.7-10.2 18.7-.7 4.8-18z"/><circle cx="108.1" cy="100.6" r="2.6"/><path d="m83.5 103s5.7 2.9 10.8 2.1c5.1-.7 6.7-4.8 6.7-4.8s-2.5-3.4-7.8-2.6c-4.5.7-9.7 5.3-9.7 5.3"/><path d="m91 83.8s-.1 6.4 2.8 10.6 7.2 4 7.2 4 2-3.7-1-8.2c-2.6-3.7-9-6.4-9-6.4"/><path d="m70.7 96.9s4.7 3.4 9.2 3.4 6.5-3.5 6.5-3.5-1.7-3.5-6.5-3.4c-4 0-9.2 3.5-9.2 3.5"/><path d="m83.1 80.8s-1.4 5.7.2 10.2c1.6 4.4 5.4 5.1 5.4 5.1s2.5-2.9.8-7.5c-1.5-4-6.4-7.8-6.4-7.8"/><path d="m59.6 88.9s4.5 4.2 9.3 4.8c4.8.7 7.4-2.6 7.4-2.6s-1.4-3.8-6.4-4.5c-4.3-.6-10.3 2.3-10.3 2.3"/><path d="m75.3 73.6s-2.7 5.5-1.9 10.3 4.6 6.3 4.6 6.3 3.2-2.4 2.4-7.5c-.6-4.2-5.1-9.1-5.1-9.1"/><path d="m54 77.9s2.7 5.1 6.9 7.2c4.1 2.1 7.4 0 7.4 0s-.1-3.8-4.4-6c-3.7-1.9-9.9-1.2-9.9-1.2"/><path d="m71.8 65.9s-4.2 4-5.1 8.5 2 7.1 2 7.1 3.6-1.1 4.6-5.8c.8-4.1-1.5-9.8-1.5-9.8"/><path d="m49.2 65.6s1.5 5.6 5 8.6 7.2 1.7 7.2 1.7.8-3.7-2.8-6.8c-3.2-2.8-9.4-3.5-9.4-3.5"/><path d="m67.5 57s-4.5 3.6-5.9 8c-1.3 4.4 1.3 7.3 1.3 7.3s3.7-.7 5.1-5.4c1.3-3.9-.5-9.9-.5-9.9"/><path d="m47.4 53.5s.3 5.6 3 9.1 6.5 3.1 6.5 3.1 1.5-3.3-1.3-7c-2.6-3.3-8.2-5.2-8.2-5.2"/><path d="m64.7 47.6s-4.8 2.9-6.6 7 .4 7.2.4 7.2 3.7-.2 5.6-4.5c1.6-3.7.6-9.7.6-9.7"/><path d="m46.4 43.3s.2 5.3 2.8 8.6 6.1 2.9 6.1 2.9 1.4-3.2-1.2-6.6c-2.4-3.1-7.7-4.9-7.7-4.9"/><path d="m65.9 37.9s-5 1.8-7.4 5.2-1 6.7-1 6.7 3.4.5 6-3.1c2.2-3.1 2.4-8.8 2.4-8.8"/><path d="m68.4 29.1s-4.8.7-7.6 3.4c-2.8 2.6-2.1 5.8-2.1 5.8s3 1 5.9-1.7c2.6-2.4 3.8-7.5 3.8-7.5"/><path d="m49.7 33.7s-1.1 4.7.3 8.3 4.6 4.1 4.6 4.1 2.1-2.4.6-6.2c-1.2-3.2-5.5-6.2-5.5-6.2"/><path d="m71.8 21.1s-4.3.1-7 2.1-2.5 4.9-2.5 4.9 2.5 1.2 5.4-.9c2.5-1.8 4.1-6.1 4.1-6.1"/><path d="m54.7 24.6s-2.2 3.9-1.8 7.5 3.2 4.8 3.2 4.8 2.5-1.6 2.1-5.4c-.5-3.2-3.5-6.9-3.5-6.9"/><path d="m75.4 13.9s-3.5.1-5.8 1.8-2 4.1-2 4.1 2.1 1 4.5-.7c2-1.6 3.3-5.2 3.3-5.2"/><path d="m60 16s-2.7 3.3-2.9 6.7c-.3 3.4 2.1 5 2.1 5s2.6-1.1 2.8-4.7c.2-3-2-7-2-7"/><path d="m66.3 9.1s-2.8 2.5-3.6 5.4c-.7 2.9 1.1 4.7 1.1 4.7s2.4-.6 3.2-3.6c.7-2.6-.7-6.5-.7-6.5"/><path d="m71.4 5.3s-2.3 2-2.9 4.3.9 3.8.9 3.8 1.9-.5 2.6-2.9c.5-2.1-.6-5.2-.6-5.2"/><path d="m80.7 4.9s-3.5.1-5.8 1.8-2 4.1-2 4.1 2.1 1 4.5-.7c2-1.6 3.3-5.2 3.3-5.2"/><path d="m132.5 102.5s-5.7 2.9-10.8 2.1c-5.1-.7-6.7-4.8-6.7-4.8s2.5-3.4 7.8-2.6c4.5.7 9.7 5.3 9.7 5.3"/><path d="m125 83.3s.1 6.4-2.8 10.6-7.2 4-7.2 4-2-3.7 1-8.2c2.6-3.8 9-6.4 9-6.4"/><path d="m145.3 96.4s-4.7 3.4-9.2 3.4-6.5-3.5-6.5-3.5 1.7-3.4 6.5-3.4c4-.1 9.2 3.5 9.2 3.5"/><path d="m132.9 80.3s1.4 5.7-.2 10.2c-1.6 4.4-5.4 5.1-5.4 5.1s-2.5-2.9-.8-7.5c1.5-4 6.4-7.8 6.4-7.8"/><path d="m156.4 88.3s-4.5 4.2-9.3 4.8c-4.8.7-7.4-2.6-7.4-2.6s1.4-3.8 6.4-4.5c4.3-.5 10.3 2.3 10.3 2.3"/><path d="m140.7 73.1s2.7 5.5 1.9 10.3-4.6 6.3-4.6 6.3-3.2-2.4-2.4-7.5c.6-4.2 5.1-9.1 5.1-9.1"/><path d="m162 77.4s-2.7 5.1-6.9 7.2c-4.1 2.1-7.4 0-7.4 0s.1-3.8 4.4-6c3.7-1.9 9.9-1.2 9.9-1.2"/><path d="m144.2 65.4s4.2 4 5.1 8.5-2 7.1-2 7.1-3.6-1.1-4.6-5.8c-.8-4.1 1.5-9.8 1.5-9.8"/><path d="m166.8 65.1s-1.5 5.6-5 8.6-7.2 1.7-7.2 1.7-.8-3.7 2.8-6.8c3.2-2.8 9.4-3.5 9.4-3.5"/><path d="m148.5 56.5s4.5 3.6 5.9 8c1.3 4.4-1.3 7.3-1.3 7.3s-3.7-.7-5.1-5.4c-1.3-3.9.5-9.9.5-9.9"/><path d="m168.6 52.9s-.3 5.6-3 9.1-6.5 3.1-6.5 3.1-1.5-3.3 1.3-7c2.6-3.2 8.2-5.2 8.2-5.2"/><path d="m151.3 47.1s4.8 2.9 6.6 7-.4 7.2-.4 7.2-3.7-.2-5.6-4.5c-1.6-3.7-.6-9.7-.6-9.7"/><path d="m169.6 42.8s-.2 5.3-2.8 8.6-6.1 2.9-6.1 2.9-1.4-3.2 1.2-6.6c2.4-3.1 7.7-4.9 7.7-4.9"/><path d="m150.1 37.4s5 1.8 7.4 5.2 1 6.7 1 6.7-3.4.5-6-3.1c-2.2-3.1-2.4-8.8-2.4-8.8"/><path d="m147.6 28.6s4.8.7 7.6 3.4c2.8 2.6 2.1 5.8 2.1 5.8s-3 1-5.9-1.7c-2.6-2.4-3.8-7.5-3.8-7.5"/><path d="m166.3 33.2s1.1 4.7-.3 8.3-4.6 4.1-4.6 4.1-2.1-2.4-.6-6.2c1.2-3.2 5.5-6.2 5.5-6.2"/><path d="m144.2 20.6s4.3.1 7 2.1 2.5 4.9 2.5 4.9-2.5 1.2-5.4-.9c-2.5-1.8-4.1-6.1-4.1-6.1"/><path d="m161.3 24s2.2 3.9 1.8 7.5-3.2 4.8-3.2 4.8-2.5-1.6-2.1-5.4c.4-3.1 3.5-6.9 3.5-6.9"/><path d="m140.6 13.4s3.5.1 5.8 1.8 2 4.1 2 4.1-2.1 1-4.5-.7c-2-1.6-3.3-5.2-3.3-5.2"/><path d="m156 15.5s2.7 3.3 2.9 6.7c.3 3.4-2.1 5-2.1 5s-2.6-1.1-2.8-4.7c-.2-3 2-7 2-7"/><path d="m149.7 8.6s2.8 2.5 3.6 5.4c.7 2.9-1.1 4.7-1.1 4.7s-2.4-.6-3.2-3.6c-.7-2.6.7-6.5.7-6.5"/><path d="m144.6 4.8s2.3 2 2.9 4.3-.9 3.8-.9 3.8-1.9-.5-2.6-2.9c-.5-2.1.6-5.2.6-5.2"/><path d="m135.3 4.4s3.5.1 5.8 1.8 2 4.1 2 4.1-2.1 1-4.5-.7c-2-1.6-3.3-5.2-3.3-5.2"/><path d="m93.3 72.7c.1-1.4 1.1-2 2.5-2 1.1 0 2.2.3 2.2 1.9v3.2c0 .3.1.4.4.4h.2v.6c-.2 0-.3 0-.5 0-.8 0-.9-.4-.9-1.1-.5.8-1 1.2-2.2 1.2-1.1 0-2-.6-2-1.8 0-1.7 1.7-1.8 3.2-1.9.6-.1.9-.2.9-.8 0-1-.7-1.2-1.6-1.2s-1.6.4-1.6 1.4h-.6zm3.9.9c-.1.2-.4.2-.6.3-1.3.2-2.8.2-2.8 1.4 0 .7.6 1.2 1.3 1.2 1.1 0 2.1-.7 2.1-1.9z"/><path d="m98.8 70.9h.8l1.5 5.2 1.5-5.2h.8l1.5 5.2 1.5-5.2h.8l-1.9 6.1h-.8l-1.5-5.1-1.5 5.1h-.8z"/><path d="m108 72.7c.1-1.4 1.1-2 2.5-2 1.1 0 2.2.3 2.2 1.9v3.2c0 .3.1.4.4.4h.2v.6c-.2 0-.3 0-.5 0-.8 0-.9-.4-.9-1.1-.5.8-1 1.2-2.2 1.2-1.1 0-2-.6-2-1.8 0-1.7 1.7-1.8 3.2-1.9.6-.1.9-.2.9-.8 0-1-.7-1.2-1.6-1.2s-1.6.4-1.6 1.4h-.6zm4 .9c-.1.2-.4.2-.6.3-1.3.2-2.8.2-2.8 1.4 0 .7.6 1.2 1.3 1.2 1.1 0 2.1-.7 2.1-1.9z"/><path d="m114.2 70.9h.7v1.4c.4-1 1.2-1.5 2.3-1.5v.7c-1.3-.1-2.3.9-2.3 2.2v3.2h-.7z"/><path d="m123 76.9h-.7v-1.1c-.3.8-1.3 1.3-2.2 1.3-1.8 0-2.7-1.5-2.7-3.2s.9-3.2 2.7-3.2c.9 0 1.8.5 2.1 1.3v-3.5h.7v8.4zm-2.9-.4c1.6 0 2.1-1.3 2.1-2.6s-.6-2.6-2.1-2.6c-1.4 0-2 1.3-2 2.6.1 1.3.6 2.6 2 2.6z"/><path d="m78.5 59.6h1.2v.6h-1.2v4.1c0 .5.1.8.6.8h.6v.6c-.2 0-.4 0-.7 0-1 0-1.3-.3-1.3-1.4v-4.1h-1.1v-.6h1.1v-1.8h.7v1.8z"/><path d="m81.2 62.8c0 1.1.6 2.4 2 2.4 1.1 0 1.7-.6 1.9-1.5h.7c-.3 1.4-1.1 2.2-2.6 2.2-1.9 0-2.7-1.5-2.7-3.2 0-1.6.8-3.2 2.7-3.2s2.7 1.7 2.7 3.4h-4.7zm3.9-.6c0-1.1-.7-2.2-1.9-2.2s-1.9 1.1-2 2.2z"/><path d="m91.1 61.5c-.2-.9-.7-1.5-1.7-1.5-1.4 0-2.1 1.3-2.1 2.6s.7 2.6 2.1 2.6c.9 0 1.7-.7 1.8-1.7h.7c-.2 1.5-1.1 2.3-2.5 2.3-1.8 0-2.9-1.5-2.9-3.2s1-3.2 2.9-3.2c1.3 0 2.3.7 2.5 2.1z"/><path d="m92.9 57.3h.7v3.4c.3-.7 1.1-1.2 1.9-1.2 1.7 0 2.2.9 2.2 2.3v3.9h-.7v-3.8c0-1-.3-1.8-1.5-1.8s-1.9.9-1.9 2.1v3.5h-.7z"/><path d="m103.5 61.5c-.2-.9-.7-1.5-1.7-1.5-1.4 0-2.1 1.3-2.1 2.6s.7 2.6 2.1 2.6c.9 0 1.7-.7 1.8-1.7h.7c-.2 1.5-1.1 2.3-2.5 2.3-1.8 0-2.9-1.5-2.9-3.2s1-3.2 2.9-3.2c1.3 0 2.3.7 2.5 2.1z"/><path d="m105.8 62.8c0 1.1.6 2.4 2 2.4 1.1 0 1.7-.6 1.9-1.5h.7c-.3 1.4-1.1 2.2-2.6 2.2-1.9 0-2.7-1.5-2.7-3.2 0-1.6.8-3.2 2.7-3.2s2.7 1.7 2.7 3.4h-4.7zm3.9-.6c0-1.1-.7-2.2-1.9-2.2s-1.9 1.1-2 2.2z"/><path d="m111.4 57.3h.7v8.4h-.7z"/><path d="m113.6 57.3h.7v8.4h-.7z"/><path d="m116.2 62.8c0 1.1.6 2.4 2 2.4 1.1 0 1.7-.6 1.9-1.5h.7c-.3 1.4-1.1 2.2-2.6 2.2-1.9 0-2.7-1.5-2.7-3.2 0-1.6.8-3.2 2.7-3.2s2.7 1.7 2.7 3.4h-4.7zm3.9-.6c0-1.1-.7-2.2-1.9-2.2s-1.9 1.1-2 2.2z"/><path d="m121.8 59.6h.7v1c.3-.7 1.1-1.2 1.9-1.2 1.7 0 2.2.9 2.2 2.3v3.9h-.6v-3.8c0-1-.3-1.8-1.5-1.8s-1.9.9-1.9 2.1v3.5h-.7v-6z"/><path d="m132.4 61.5c-.2-.9-.7-1.5-1.7-1.5-1.4 0-2.1 1.3-2.1 2.6s.7 2.6 2.1 2.6c.9 0 1.7-.7 1.8-1.7h.7c-.2 1.5-1.1 2.3-2.5 2.3-1.8 0-2.9-1.5-2.9-3.2s1-3.2 2.9-3.2c1.3 0 2.3.7 2.5 2.1z"/><path d="m134.7 62.8c0 1.1.6 2.4 2 2.4 1.1 0 1.7-.6 1.9-1.5h.7c-.3 1.4-1.1 2.2-2.6 2.2-1.9 0-2.7-1.5-2.7-3.2 0-1.6.8-3.2 2.7-3.2s2.7 1.7 2.7 3.4h-4.7zm3.9-.6c0-1.1-.7-2.2-1.9-2.2s-1.9 1.1-2 2.2z"/></g></svg>