<svg enable-background="new 0 0 216 108" viewBox="0 0 216 108" xmlns="http://www.w3.org/2000/svg"><g fill="#fff"><path d="m40.4 56.5c-.2-.1-.3-.2-.5-.4-.1-.1-.2-.2-.2-.3-.1-.1-.2-.2-.3-.4-.1-.1-.1-.3-.2-.4-.1-.2-.2-.3-.2-.5h-31.6l.1.1h-.1l34 51.4v-11.7-37.3c-.3-.1-.6-.2-.8-.4 0 0-.1 0-.2-.1z"/><path d="m77.4 54.6h-31.6c0 .2-.1.3-.2.5-.1.1-.1.3-.2.4s-.2.3-.3.4-.1.2-.2.3-.3.3-.5.4c-.1 0-.1.1-.2.2-.2.1-.5.3-.8.4v37.3 11.5z"/><path d="m45 51.4.3.3s0 0 .1.1.2.3.2.4c0 0 0 .1.1.1.1.1.1.3.1.4h31.7v-50.3l-32.9 48.6c.1.1.3.2.4.4 0-.1 0-.1 0 0z"/><path d="m39.2 52.4c0-.1 0-.1.1-.2s.1-.3.2-.4c0 0 0-.1.1-.1.1-.1.2-.2.3-.3 0 0 0 0 .1-.1s.2-.2.3-.3l-32.9-48.6v50.3h31.7c0-.1.1-.2.1-.3z"/><path d="m92.6 20h5.9v22.6h-5.9z"/><path d="m108.1 38.7-1.6 3.9h-6.2l8.7-22.6h6.4l8.5 22.6h-6.3l-1.5-3.9zm4.1-11.7-2.5 7.2h4.9z"/><path d="m125.8 42.6v-22.6h8.4c4 0 6.7 1.6 6.7 5.9 0 2-.7 3.7-2.5 4.6v.1c3.2.4 4.6 2.6 4.6 5.8 0 4.7-4 6.3-8.2 6.3h-9zm5.9-13.7h.7c1.6 0 3.2-.3 3.2-2.2 0-2.1-1.8-2.2-3.4-2.2h-.4v4.4zm0 9.2h.8c1.7 0 4.7.1 4.7-2.4 0-2.7-2.9-2.5-4.8-2.5h-.6v4.9z"/><path d="m162.3 27.6c-1.2-1.6-3.1-2.5-5.2-2.5-3.6 0-6 2.8-6 6.3 0 3.6 2.5 6.2 6.1 6.2 1.9 0 3.8-.9 5.1-2.4v7.1c-1.9.6-3.4 1-5.2 1-3.1 0-6.1-1.2-8.5-3.3-2.5-2.2-3.6-5.2-3.6-8.5 0-3.1 1.2-6.1 3.3-8.3 2.2-2.3 5.4-3.7 8.6-3.7 1.9 0 3.6.4 5.4 1.1z"/><path d="m97.2 65.2 5-11.4h1.3l-6.3 14.6-6.3-14.6h1.3z"/><path d="m108.4 49.1c0 .7-.5 1.2-1.2 1.2s-1.2-.5-1.2-1.2.5-1.2 1.2-1.2 1.2.6 1.2 1.2m-.5 18.5h-1.3v-13.8h1.3z"/><path d="m114.4 55.6c.6-1.3 1.6-2.1 3.1-2.1.5 0 1 .1 1.5.3l-.7 1.2c-.3-.2-.6-.3-1-.3-3 0-2.8 3.8-2.8 5.8v7.1h-1.5v-13.8h1.4z"/><path d="m123.5 67.6h-1.4v-12.6h-1.5v-1.2h1.5v-5h1.4v5h2.4v1.2h-2.4z"/><path d="m138 53.8v8.3c0 1.4 0 2.8-.8 4-1 1.3-2.6 1.9-4.1 1.9-1.6 0-3.2-.6-4.1-1.9-.9-1.2-.8-2.6-.8-4v-8.3h1.4v7.8c0 2.7.3 5.1 3.6 5.1s3.6-2.4 3.6-5.1v-7.8z"/><path d="m155.5 60.7c0 4.1-3.2 7.2-7.3 7.2-4 0-7.2-3.3-7.2-7.2 0-4 3.2-7.3 7.2-7.3 4.1.1 7.3 3.2 7.3 7.3m-13.1 0c0 3.1 2.5 5.9 5.8 5.9 3.4 0 6-2.6 6-5.9 0-3.4-2.6-6-6-6s-5.8 2.8-5.8 6"/><path d="m164.6 56.3c-.5-1-1.4-1.6-2.4-1.6-1.2 0-2.4 1-2.4 2.2 0 3.3 6.7 1.7 6.7 6.7 0 2.5-2 4.3-4.5 4.3-2.3 0-4.2-1.4-4.8-3.7l1.3-.4c.5 1.7 1.6 2.8 3.4 2.8 1.7 0 3.1-1.4 3.1-3.1s-1.3-2.2-2.7-2.7c-1.9-.7-4-1.5-4-3.8 0-2.1 1.8-3.5 3.8-3.5 1.4 0 2.9.9 3.5 2.2z"/><path d="m183.2 60.7c0 4.1-3.2 7.2-7.3 7.2-4 0-7.2-3.3-7.2-7.2 0-4 3.2-7.3 7.2-7.3 4.1.1 7.3 3.2 7.3 7.3m-13.2 0c0 3.1 2.5 5.9 5.8 5.9 3.4 0 6-2.6 6-5.9 0-3.4-2.6-6-6-6-3.3 0-5.8 2.8-5.8 6"/><path d="m95.3 83.2-.7 2h-1.8l2.9-8.6h2.3l3.1 8.6h-2l-.7-2zm2.7-1.5c-.6-1.8-1-3-1.2-3.7-.2.8-.6 2.2-1.1 3.7z"/><path d="m102.8 78.7c.6 2.6.9 4.1 1 4.9.1-.7.3-1.7 1.1-4.9h1.7c.7 3.2.9 4.1 1 4.8.1-.7.3-1.6 1.1-4.8h1.8l-1.9 6.4h-1.9c-.5-2.4-.8-3.7-1-4.6-.1.8-.4 2.3-1 4.6h-1.9l-1.8-6.4z"/><path d="m116.5 83.5c0 .6.1 1.5.1 1.7h-1.7c0-.1-.1-.5-.1-.6-.2.4-.7.8-1.8.8-1.6 0-2.2-1-2.2-2 0-1.5 1.2-2.2 3.1-2.2h.9v-.4c0-.5-.2-.9-1-.9-.7 0-.9.3-1 .8h-1.7c.1-1.1.8-2.1 2.8-2.1 1.7 0 2.7.7 2.7 2.2v2.7zm-1.7-1.3h-.8c-1.1 0-1.5.3-1.5 1 0 .5.3.9.9.9 1.1 0 1.3-.8 1.3-1.6v-.3z"/><path d="m118.1 80.5c0-.6 0-1.2 0-1.8h1.8v1.1c.3-.7 1-1.3 2.1-1.3v1.7c-1.3 0-2.1.3-2.1 2.1v2.8h-1.8z"/><path d="m128.8 76.1v7.3 1.8h-1.7c0-.2-.1-.5-.1-.7-.3.5-.9.8-1.8.8-1.6 0-2.7-1.3-2.7-3.3s1.1-3.4 2.9-3.4c.9 0 1.4.3 1.6.6v-3.1zm-3.1 7.8c1.2 0 1.4-1 1.4-1.9 0-1.1-.2-1.9-1.3-1.9-.9 0-1.4.7-1.4 2 0 1.1.5 1.8 1.3 1.8z"/><path d="m139.4 81.9c0 2-1.2 3.4-3.2 3.4s-3.2-1.4-3.2-3.3c0-2 1.2-3.4 3.2-3.4s3.2 1.3 3.2 3.3zm-4.6 0c0 1.2.5 2 1.4 2s1.4-.7 1.4-2-.5-2-1.4-2c-.8.1-1.4.7-1.4 2z"/><path d="m140.9 85.2v-5.2h-.9v-1.3h.9v-.6c0-1.3.7-2.2 2.1-2.2.3 0 .7 0 .8.1v1.4c-.1 0-.2 0-.4 0-.5 0-.7.2-.7.9v.4h1.1v1.3h-1.1v5.1h-1.8z"/><path d="m153.9 81.5h-4.1v2.2h4.5l-.2 1.5h-6.1v-8.6h6.1v1.5h-4.3v1.8h4.1z"/><path d="m157 78.7c.7 1.2.9 1.7 1.1 2 .2-.4.6-1.1 1.1-2h2l-2.1 3.1 2.1 3.4h-2c-.6-1.1-.9-1.8-1.1-2.2-.2.3-.6 1.2-1.1 2.2h-2l2-3.1-2-3.3h2z"/><path d="m167.4 83.1c-.2 1.1-1 2.2-2.9 2.2-2 0-3-1.4-3-3.3s1.2-3.4 3.1-3.4c2.2 0 2.8 1.6 2.8 2.3h-1.7c-.1-.5-.4-.9-1.1-.9-.8 0-1.3.7-1.3 2 0 1.4.5 2 1.3 2 .6 0 .9-.4 1.1-.8h1.7z"/><path d="m170 82.3c0 .8.4 1.6 1.3 1.6.7 0 1-.3 1.1-.7h1.8c-.2.8-.9 2.1-3 2.1s-3-1.6-3-3.3c0-2 1-3.5 3.1-3.5 2.2 0 3 1.6 3 3.2v.5h-4.3zm2.5-1.1c0-.7-.3-1.4-1.2-1.4-.8 0-1.2.6-1.3 1.4z"/><path d="m175.5 85.2v-9.1h1.8v9.1z"/><path d="m178.9 85.2v-9.1h1.8v9.1z"/><path d="m183.7 82.3c0 .8.4 1.6 1.3 1.6.7 0 1-.3 1.1-.7h1.8c-.2.8-.9 2.1-3 2.1s-3-1.6-3-3.3c0-2 1-3.5 3.1-3.5 2.2 0 3 1.6 3 3.2v.5h-4.3zm2.5-1.1c0-.7-.3-1.4-1.2-1.4-.8 0-1.2.6-1.3 1.4z"/><path d="m189.2 80.3c0-.5 0-1.1 0-1.6h1.7c0 .2.1.6.1.8.2-.4.7-1 1.9-1 1.3 0 2.1.9 2.1 2.5v4.1h-1.8v-3.9c0-.7-.2-1.3-1-1.3s-1.2.4-1.2 1.6v3.6h-1.8z"/><path d="m202.2 83.1c-.2 1.1-1 2.2-2.9 2.2-2 0-3-1.4-3-3.3s1.2-3.4 3.1-3.4c2.2 0 2.8 1.6 2.8 2.3h-1.7c-.1-.5-.4-.9-1.1-.9-.8 0-1.3.7-1.3 2 0 1.4.5 2 1.3 2 .6 0 .9-.4 1.1-.8h1.7z"/><path d="m204.8 82.3c0 .8.4 1.6 1.3 1.6.7 0 1-.3 1.1-.7h1.8c-.2.8-.9 2.1-3 2.1s-3.1-1.6-3.1-3.3c0-2 1-3.5 3.1-3.5 2.2 0 3 1.6 3 3.2v.5h-4.2zm2.5-1.1c0-.7-.3-1.4-1.2-1.4-.8 0-1.2.6-1.3 1.4z"/></g></svg>