<svg viewBox="0 0 216 144" xmlns="http://www.w3.org/2000/svg"><path d="m153.62 44.57c-3.72 0-25.32-.61-33.87 1.37-4.2 1-6.61 2.16-7.09 4.75a10.07 10.07 0 0 0 -.11 1.45 8.15 8.15 0 0 0 -7.51 0 10.16 10.16 0 0 0 -.11-1.46c-.48-2.59-2.89-3.78-7.09-4.75-8.54-1.93-30.14-1.36-33.84-1.36-3.08 0-12-.08-19-2.77 0 6.83 5.25 19.63 10.78 25.5 6.22 6.59 14.05 8.7 25.5 8.7 13.83 0 21.7-9.1 23.33-16.72a5.61 5.61 0 0 1 4.19-1.71 5.46 5.46 0 0 1 4.2 1.66c1.59 7.62 9.46 16.77 23.32 16.77 11.45 0 19.3-2.09 25.5-8.68 5.53-5.87 10.78-18.67 10.78-25.5-6.99 2.67-15.9 2.75-18.98 2.75zm-72.87 27.61c-14.51-.27-23.11-7.81-22.92-19.94 0-2.1 4.59-3 20.84-2.88 14.5.13 21.07 1.11 21.22 6.53.11 5.24-4.16 16.57-19.14 16.29zm56.1 0c-15 .28-19.29-11.05-19.15-16.29.15-5.42 6.72-6.4 21.22-6.53 16.25-.15 20.81.78 20.84 2.88.24 12.13-8.4 19.67-22.92 19.94z" fill="#81c8a8"/><g fill="#232323"><path d="m31 89.28h6.82v2.33h-4.46v2.26h4.46v2.28h-4.46v3.29h4.46v2.34h-6.82z"/><path d="m39.84 89.28h2.56l2.33 4.49 2.27-4.49h2.52l-3.66 7.08v5.41h-2.34v-5.4z"/><path d="m51.53 89.28h6.82v2.33h-4.46v2.26h4.46v2.28h-4.46v3.29h4.46v2.34h-6.82z"/><path d="m67.82 91-1.76 1.55a2.5 2.5 0 0 0 -1.89-1.29 1.15 1.15 0 0 0 -.77.25.73.73 0 0 0 -.3.56 1 1 0 0 0 .21.59 16 16 0 0 0 1.74 1.61q1.36 1.14 1.65 1.43a5 5 0 0 1 1 1.4 3.49 3.49 0 0 1 .3 1.46 3.34 3.34 0 0 1 -1 2.53 3.88 3.88 0 0 1 -2.77 1 4.13 4.13 0 0 1 -2.33-.65 5.17 5.17 0 0 1 -1.7-2.06l2-1.21a2.54 2.54 0 0 0 2.08 1.66 1.53 1.53 0 0 0 1-.36 1.06 1.06 0 0 0 .42-.82 1.42 1.42 0 0 0 -.32-.85 9.06 9.06 0 0 0 -1.38-1.3 14 14 0 0 1 -2.64-2.57 3.27 3.27 0 0 1 -.6-1.81 3 3 0 0 1 1-2.23 3.44 3.44 0 0 1 2.44-.89 3.85 3.85 0 0 1 1.8.4 6.5 6.5 0 0 1 1.82 1.6z"/><path d="m79.63 97a5.37 5.37 0 0 1 -.13 1.15 5.73 5.73 0 0 1 -.37 1.13 5.89 5.89 0 0 1 -.61 1 4.78 4.78 0 0 1 -.84.89c-.15.12-.3.23-.47.34a4.49 4.49 0 0 1 -.5.28 2.84 2.84 0 0 1 -.52.19 2.08 2.08 0 0 1 -.52.07 2.19 2.19 0 0 1 -1.06-.25 2.33 2.33 0 0 1 -.78-.69 3.18 3.18 0 0 1 -.48-1 4.82 4.82 0 0 1 -.17-1.3 6.64 6.64 0 0 1 .1-1.18 4.88 4.88 0 0 1 .33-1.09 4.58 4.58 0 0 1 .61-1 5.89 5.89 0 0 1 .94-.93 4.67 4.67 0 0 1 1-.58 2.59 2.59 0 0 1 2.17 0 2 2 0 0 1 .76.66 2.9 2.9 0 0 1 .43 1 5.74 5.74 0 0 1 .11 1.31zm-1.22.47a3.48 3.48 0 0 0 -.47-2 1.67 1.67 0 0 0 -2.37-.34 2.63 2.63 0 0 0 -.67.89 4.48 4.48 0 0 0 -.36 1.16 6.67 6.67 0 0 0 -.11 1.17 4 4 0 0 0 .14 1.07 3.09 3.09 0 0 0 .39.88 2.08 2.08 0 0 0 .58.6 1.29 1.29 0 0 0 .72.22 1.39 1.39 0 0 0 .74-.12 1.94 1.94 0 0 0 .55-.47 2.93 2.93 0 0 0 .41-.67 5.27 5.27 0 0 0 .28-.79 5.88 5.88 0 0 0 .16-.81 6.23 6.23 0 0 0 .01-.76z"/><path d="m88.35 101.17q-.77.46-1.31.71a2.2 2.2 0 0 1 -.86.25.52.52 0 0 1 -.46-.27 1.36 1.36 0 0 1 -.17-.73 4.87 4.87 0 0 1 .06-.55q.06-.39.14-.92t.19-1.12c.07-.4.13-.77.19-1.13s.1-.68.14-1a5.33 5.33 0 0 0 .06-.62 2.1 2.1 0 0 0 -.14-.9.52.52 0 0 0 -.51-.25 1.1 1.1 0 0 0 -.39.14 3.76 3.76 0 0 0 -.62.41 6.21 6.21 0 0 0 -.73.68 5.29 5.29 0 0 0 -.69 1 3.88 3.88 0 0 0 -.39 1q-.15.57-.29 1.39a12.42 12.42 0 0 0 -.17 1.3 10.23 10.23 0 0 0 0 1l-.28.13-.34.15-.34.15-.26.13-.28-.26q.12-.56.23-1.21t.22-1.31q.11-.66.2-1.3t.16-1.18c0-.36.08-.68.11-.95s0-.47 0-.6a1.86 1.86 0 0 0 0-.31.46.46 0 0 0 -.06-.17.18.18 0 0 0 -.1-.07h-.14-.22l-.3.08-.4.16-.12-.33.72-.3.67-.25.55-.18a1.41 1.41 0 0 1 .34-.07.38.38 0 0 1 .19 0 .22.22 0 0 1 .05.13 1.28 1.28 0 0 1 0 .29v.49s0 .15 0 .25 0 .22 0 .34 0 .24 0 .36 0 .27 0 .27a8 8 0 0 1 .93-1 6 6 0 0 1 .92-.68 3.83 3.83 0 0 1 .87-.32 2.85 2.85 0 0 1 .8-.12 1.37 1.37 0 0 1 .47.08.76.76 0 0 1 .34.25 1.24 1.24 0 0 1 .21.46 2.86 2.86 0 0 1 .07.69 6.1 6.1 0 0 1 -.06.74q-.06.44-.14 1t-.19 1.06q-.1.54-.19 1c-.06.33-.1.63-.14.9a5 5 0 0 0 -.06.64.71.71 0 0 0 .08.39.26.26 0 0 0 .23.11 1.75 1.75 0 0 0 .45-.07 5.24 5.24 0 0 0 .61-.21z"/><path d="m94.1 89.28h2.52a8.34 8.34 0 0 1 2.95.37 3 3 0 0 1 1.43 1.23 3.76 3.76 0 0 1 .53 2 3.46 3.46 0 0 1 -.59 2.06 3.58 3.58 0 0 1 -1.78 1.25l3 5.55h-2.66l-2.81-5.29h-.22v5.29h-2.37zm2.38 4.88h.75a2.91 2.91 0 0 0 1.56-.3 1.12 1.12 0 0 0 .43-1 1.2 1.2 0 0 0 -.22-.69 1.17 1.17 0 0 0 -.57-.43 4.29 4.29 0 0 0 -1.3-.13h-.66v2.56z"/><path d="m104.2 89.28h2.36v12.49h-2.36z"/><path d="m121.07 91.48-1.66 1.59a5.15 5.15 0 0 0 -3.82-1.79 4.18 4.18 0 0 0 -4.24 4.24 4.46 4.46 0 0 0 .54 2.22 3.9 3.9 0 0 0 1.54 1.52 4.47 4.47 0 0 0 2.21.55 4.54 4.54 0 0 0 1.89-.39 6.75 6.75 0 0 0 1.88-1.42l1.59 1.7a8.87 8.87 0 0 1 -2.62 1.87 7.15 7.15 0 0 1 -2.81.52 6.47 6.47 0 0 1 -4.77-1.85 6.4 6.4 0 0 1 -1.8-4.73 6.49 6.49 0 0 1 .84-3.32 6.29 6.29 0 0 1 2.42-2.34 6.83 6.83 0 0 1 3.39-.88 7.2 7.2 0 0 1 5.42 2.51z"/><path d="m123.32 89.28h2.41v4.72h4.17v-4.72h2.4v12.49h-2.4v-5.47h-4.17v5.48h-2.41z"/><path d="m136.71 89.28h2.29l2.9 8.71 2.92-8.71h2.32l2.1 12.49h-2.24l-1.34-7.89-2.66 7.9h-2.1l-2.63-7.89-1.37 7.89h-2.32z"/><path d="m156.88 89a6.21 6.21 0 0 1 4.56 1.92 6.39 6.39 0 0 1 1.91 4.68 6.32 6.32 0 0 1 -1.88 4.63 6.52 6.52 0 0 1 -9.24-.05 6.56 6.56 0 0 1 4.65-11.18zm0 2.33a3.92 3.92 0 0 0 -2.92 1.21 4.2 4.2 0 0 0 -1.18 3.07 4 4 0 0 0 1.49 3.28 4.07 4.07 0 0 0 2.65.94 3.87 3.87 0 0 0 2.88-1.22 4.41 4.41 0 0 0 0-6 3.91 3.91 0 0 0 -2.95-1.31z"/><path d="m165.25 89.28h2.28l5.35 8.22v-8.22h2.38v12.49h-2.26l-5.34-8.2v8.2h-2.38v-12.49z"/><path d="m178.29 89.28h2.82a9.27 9.27 0 0 1 4 .68 5.27 5.27 0 0 1 2.18 2.2 7.7 7.7 0 0 1 .38 6.2 5.51 5.51 0 0 1 -1.32 2 4.68 4.68 0 0 1 -1.83 1.1 13 13 0 0 1 -3.41.31h-2.86v-12.49zm2.36 2.29v7.88h1.1a5.53 5.53 0 0 0 2.37-.37 2.84 2.84 0 0 0 1.2-1.26 4.61 4.61 0 0 0 .47-2.18 4.14 4.14 0 0 0 -1.11-3.09 4.46 4.46 0 0 0 -3.22-1h-.81z"/></g></svg>