<svg viewBox="0 0 216 144" xmlns="http://www.w3.org/2000/svg"><g fill="#61b5e5"><path d="m79.28 61.8c-3 0-4.95 2.23-4.95 5.66 0 3.85 2.26 6.63 5.47 6.63 2.88 0 4.79-2.23 4.79-5.66-.01-3.81-2.27-6.63-5.31-6.63z"/><path d="m128 67.11a32.76 32.76 0 0 1 -1.23-3.69h-.13a31.49 31.49 0 0 1 -1.29 3.69l-.36.84c-.52 1.2-.61 1.49-1.16 2.59a25.71 25.71 0 0 1 2.81-.1h.1a24.21 24.21 0 0 1 2.72.1 24 24 0 0 1 -1.09-2.54z"/><path d="m103.15 21.53a46.77 46.77 0 1 0 46.77 46.77 46.77 46.77 0 0 0 -46.77-46.77zm-23.78 57.64a10.79 10.79 0 0 1 -11.22-11.09c0-6.57 4.82-11.29 11.58-11.29a10.9 10.9 0 0 1 11.06 11.21c0 6.58-4.72 11.17-11.42 11.17zm31-.58h-13.95v-21.22h5.76v15.75a1.81 1.81 0 0 1 -.1.74 1.81 1.81 0 0 1 .74-.1h8.12zm22.09 0-1.81-4.66h-8l-1.91 4.66h-5.43l9.12-21.22h5.24l9 21.22h-6.18z"/></g></svg>