<svg viewBox="0 0 216 144" xmlns="http://www.w3.org/2000/svg"><g fill="#231f20"><path d="m88.71 47.92a3 3 0 0 0 -2.09-.86h-53.47a3 3 0 0 0 -2.95 2.94v38.9a3 3 0 0 0 2.95 2.95h21.9v6.62a2.95 2.95 0 0 0 4.84 2.26l10.61-8.87h16.12a3 3 0 0 0 2.95-2.95v-38.91a3 3 0 0 0 -.86-2.08zm-2.09 41h-17.19l-11.43 9.55v-9.56h-24.85v-38.91h53.47v38.9z"/><path d="m101.09 52.83c.94-2.89 3.27-4.4 6.43-4.4s5.51 1.51 6.46 4.4a14.86 14.86 0 0 1 .54 5.08 14.83 14.83 0 0 1 -.52 5.09c-.94 2.89-3.27 4.41-6.46 4.41s-5.54-1.53-6.45-4.41a14.73 14.73 0 0 1 -.54-5.08 14.76 14.76 0 0 1 .54-5.09zm9.81.87a3.56 3.56 0 0 0 -6.73 0 13.09 13.09 0 0 0 -.38 4.22 13.1 13.1 0 0 0 .38 4.22 3.56 3.56 0 0 0 6.73 0 13.17 13.17 0 0 0 .38-4.22 13.16 13.16 0 0 0 -.38-4.23z"/><path d="m117.22 65.56v-15.4a1.32 1.32 0 0 1 1.41-1.43h5.76c3.56 0 6 2.3 6 5.7s-2.48 5.73-6 5.73h-3.82a.15.15 0 0 0 -.16.16v5.25a1.6 1.6 0 1 1 -3.19-.01zm10-11.14a2.77 2.77 0 0 0 -3.05-2.84h-3.62a.14.14 0 0 0 -.16.16v5.36a.14.14 0 0 0 .16.16h3.62a2.76 2.76 0 0 0 3.08-2.83z"/><path d="m132.57 50.16a1.33 1.33 0 0 1 1.43-1.44h9.16a1.44 1.44 0 1 1 0 2.86h-7.24a.14.14 0 0 0 -.16.16v4.49a.14.14 0 0 0 .16.16h5.89a1.44 1.44 0 1 1 0 2.86h-5.89a.14.14 0 0 0 -.16.16v4.65a.14.14 0 0 0 .16.16h7.24a1.44 1.44 0 1 1 0 2.86h-9.16a1.33 1.33 0 0 1 -1.43-1.43z"/><path d="m147.42 50.51a1.73 1.73 0 0 1 1.81-1.92 2.43 2.43 0 0 1 2.11 1.57l6.75 11.46h.08v-11.46a1.48 1.48 0 1 1 2.95 0v15.16a1.72 1.72 0 0 1 -1.79 1.91 2.43 2.43 0 0 1 -2.14-1.56l-6.73-11.46h-.11v11.46a1.48 1.48 0 1 1 -2.95 0v-15.16z"/><path d="m100.55 81.83a15.9 15.9 0 0 1 .51-5.05 6.21 6.21 0 0 1 6.38-4.43 6 6 0 0 1 5.54 3 1.94 1.94 0 0 1 .27.95 1.41 1.41 0 0 1 -1.46 1.43 1.63 1.63 0 0 1 -1.41-.86 3.46 3.46 0 0 0 -6.24.75 13.58 13.58 0 0 0 -.35 4.22 13.57 13.57 0 0 0 .35 4.22 3.46 3.46 0 0 0 6.24.75 1.64 1.64 0 0 1 1.41-.87 1.42 1.42 0 0 1 1.46 1.46 1.93 1.93 0 0 1 -.27.92 6 6 0 0 1 -5.54 3 6.21 6.21 0 0 1 -6.38-4.43 15.88 15.88 0 0 1 -.51-5.06z"/><path d="m115.87 74.18a1.6 1.6 0 1 1 3.19 0v13.82a.14.14 0 0 0 .16.16h7.24a1.44 1.44 0 1 1 0 2.86h-9a1.49 1.49 0 0 1 -1.59-1.6z"/><path d="m129.41 76.74c.95-2.89 3.27-4.4 6.43-4.4s5.51 1.51 6.46 4.4a14.7 14.7 0 0 1 .54 5.08 14.65 14.65 0 0 1 -.54 5.08c-.95 2.89-3.27 4.41-6.46 4.41s-5.48-1.51-6.43-4.41a14.69 14.69 0 0 1 -.54-5.08 14.75 14.75 0 0 1 .54-5.08zm9.81.86a3.56 3.56 0 0 0 -6.73 0 13.13 13.13 0 0 0 -.38 4.22 13.13 13.13 0 0 0 .38 4.22 3.56 3.56 0 0 0 6.73 0 13.23 13.23 0 0 0 .38-4.22 13.23 13.23 0 0 0 -.38-4.21z"/><path d="m145.81 89.66a1.61 1.61 0 0 1 -.81-1.38 1.44 1.44 0 0 1 1.43-1.46 2.09 2.09 0 0 1 1 .29 8 8 0 0 0 4.24 1.32c2.27 0 3.56-1.05 3.56-2.65 0-1.32-.76-2.22-3.32-2.53l-.91-.12c-3.7-.49-5.56-2.22-5.56-5.27 0-3.32 2.43-5.51 6.19-5.51a9.88 9.88 0 0 1 5 1.24 1.45 1.45 0 0 1 .81 1.3 1.36 1.36 0 0 1 -1.4 1.4 2.5 2.5 0 0 1 -1-.24 7.7 7.7 0 0 0 -3.43-.83c-1.94 0-2.92 1.06-2.92 2.46s.92 2.14 3.35 2.49l.92.13c3.76.51 5.57 2.24 5.57 5.38s-2.35 5.65-7 5.65a10.61 10.61 0 0 1 -5.72-1.67z"/><path d="m161.12 74.07a1.33 1.33 0 0 1 1.43-1.44h9.16a1.44 1.44 0 1 1 0 2.87h-7.24a.14.14 0 0 0 -.16.16v4.49a.14.14 0 0 0 .16.16h5.89a1.44 1.44 0 1 1 0 2.87h-5.89a.14.14 0 0 0 -.16.16v4.66a.14.14 0 0 0 .16.16h7.24a1.44 1.44 0 1 1 0 2.86h-9.16a1.33 1.33 0 0 1 -1.43-1.44z"/><path d="m177.06 75.5a1.44 1.44 0 1 1 0-2.87h10.81a1.44 1.44 0 1 1 0 2.87h-3.65a.14.14 0 0 0 -.16.16v13.8a1.6 1.6 0 1 1 -3.19 0v-13.8a.14.14 0 0 0 -.16-.16z"/><path d="m58 59.59v38.88l11.43-9.56v-38.91z" opacity=".8"/><path d="m50.35 69.4h7.65v6.51h-7.65z" opacity=".4"/><path d="m50.35 62.94h7.65v6.46h-7.65z" opacity=".5"/><path d="m50.35 75.9h7.65v6.5h-7.65z" opacity=".3"/><path d="m50.35 82.41h7.65v6.5h-7.65z" opacity=".2"/><path d="m69.43 50h-19.08v6.51h11.32z" opacity=".7"/><path d="m58 59.59 3.67-3.08h-11.32v6.43h7.65z" opacity=".6"/></g></svg>