<svg viewBox="0 0 216 144" xmlns="http://www.w3.org/2000/svg"><g fill="#231f20"><path d="m39 105.74h-1.42l-5-5.44h-3.9v5.44h-1.11v-14.38h6.33a4.45 4.45 0 0 1 4.73 4.48c0 2.34-1.52 4.4-4.66 4.4zm-10.32-6.49h5.1c2.51 0 3.62-1.42 3.64-3.43a3.31 3.31 0 0 0 -3.51-3.43h-5.23z"/><path d="m55.68 105.74-1.58-3.53h-8.59l-1.51 3.53h-1.24l6.45-14.38h1.21l6.45 14.38zm-2-4.56-3.86-8.75-3.86 8.75h7.73z"/><path d="m72.5 103.77a7.34 7.34 0 0 1 -5.19 2.14 7.29 7.29 0 1 1 0-14.58 7.34 7.34 0 0 1 5.19 2.14l-.75.65a6.24 6.24 0 0 0 -4.44-1.81c-4.15 0-6.29 2.93-6.27 6.35a6 6 0 0 0 6.27 6.23 6.37 6.37 0 0 0 4.46-1.81z"/><path d="m78 98h8.42v1h-8.42v5.67h9.08v1.07h-10.18v-14.38h10.18v1h-9.08z"/><path d="m107.51 105.74h-3.23l-4.19-4.81h-2.6v4.81h-2.72v-14.4h6.84c3.39 0 5.18 2.28 5.18 4.77a4.27 4.27 0 0 1 -3.64 4.52l4.36 4.91v.18zm-10-11.85v4.6h4.13a2.31 2.31 0 1 0 0-4.6h-4.15z"/><path d="m125.69 98.65c0 3.61-2.25 7.21-7.15 7.21s-7.17-3.53-7.17-7.19 2.35-7.35 7.17-7.35 7.19 3.68 7.15 7.33zm-11.69.06c.06 2.29 1.3 4.74 4.58 4.74s4.52-2.47 4.56-4.76-1.28-5-4.56-5-4.69 2.67-4.58 5.02z"/><path d="m138.77 95.1a3.93 3.93 0 0 0 -3.25-1.53c-1.92 0-2.84.8-2.84 1.82 0 1.19 1.41 1.53 3.05 1.72 2.86.35 5.52 1.1 5.52 4.36 0 3.05-2.7 4.36-5.75 4.36-2.8 0-5-.86-6-3.37l2.15-1.12a3.9 3.9 0 0 0 3.85 2.17c1.62 0 3.15-.57 3.15-2.05 0-1.29-1.35-1.82-3.17-2-2.8-.33-5.38-1.08-5.38-4.15 0-2.82 2.78-4 5.3-4 2.13 0 4.34.61 5.38 2.72z"/><path d="m149.67 93.83h-4.56v-2.47h11.83v2.47h-4.56v11.92h-2.71z"/><path d="m171.61 105.74h-10.77v-14.38h10.77v2.64h-8.07v3.3h7.79v2.53h-7.79v3.25h8.07v2.67z"/><path d="m188.6 105.74h-3.23l-4.19-4.81h-2.61v4.81h-2.71v-14.4h6.84c3.39 0 5.18 2.28 5.18 4.77a4.27 4.27 0 0 1 -3.64 4.52l4.36 4.91v.18zm-10-11.85v4.6h4.13a2.31 2.31 0 1 0 0-4.6z"/><path d="m120 71.92a4.24 4.24 0 0 0 -.75 0l-8.47-13.67a4.22 4.22 0 1 0 -7.52-1.21l-7.42 6.21a4.22 4.22 0 0 0 -2.55-.34l-1.88-3a4.22 4.22 0 1 0 -2.88 1.79l1.94 3.13a4.22 4.22 0 1 0 7.59 1l7.38-6.17a4.21 4.21 0 0 0 2.46.4l8.47 13.67a4.22 4.22 0 1 0 3.63-1.81z"/><path d="m128.31 33.93a4.22 4.22 0 0 0 -4.13 5.64l-4.52 3.78a4.21 4.21 0 0 0 -2.85-.46l-2.38-3.89a4.22 4.22 0 1 0 -7.35-1.2l-4.77 4a4.22 4.22 0 1 0 2 2.28l4.69-3.92a4.21 4.21 0 0 0 2.86.47l2.38 3.85a4.22 4.22 0 1 0 7.34 1.18l4.55-3.8a4.22 4.22 0 1 0 2.18-7.93z"/></g></svg>