<svg viewBox="0 0 216 144" xmlns="http://www.w3.org/2000/svg"><g fill="#231f20"><path d="m171.86 87.77h-1.36v9.92h1.36v-7.31c1.25-1.21 2-1.67 2.88-1.67a1.42 1.42 0 0 1 1.36 1 5.12 5.12 0 0 1 .11 1.46v6.51h1.36v-6.5a4.44 4.44 0 0 0 -.4-2.46 2.44 2.44 0 0 0 -2.07-1.13 4.2 4.2 0 0 0 -3.24 1.75zm-7.29.94c1.69 0 2.65 1.46 2.65 4s-.94 4-2.61 4-2.61-1.36-2.61-4.01a5.37 5.37 0 0 1 .6-2.84 2.37 2.37 0 0 1 2-1.15m.08-1.13c-2.51 0-4 1.94-4 5.26 0 3.13 1.48 5.05 3.92 5.05s3.93-1.86 3.93-5.05a8.63 8.63 0 0 0 -.44-2.86 3.61 3.61 0 0 0 -3.45-2.4m-6-3.26h-1.36v1.52h1.36v-1.51zm0 3.44h-1.36v9.92h1.36v-9.91zm-4.85-3.34h-1.36v3.34h-1.43v1.15h1.53v5.87c0 1.86.06 1.92.25 2.28a1.91 1.91 0 0 0 1.8.86 4.46 4.46 0 0 0 1.42-.23v-1a4.75 4.75 0 0 1 -1 .15.94.94 0 0 1 -.94-.5 6.5 6.5 0 0 1 -.17-1.23v-6.19h2.11v-1.15h-2.11v-3.34zm-4.61 10.4a2.62 2.62 0 0 1 -2.34 2 2.38 2.38 0 0 1 -2-1.25 5.61 5.61 0 0 1 -.56-2.69c0-2.59 1-4.13 2.57-4.13a2.23 2.23 0 0 1 2.09 2l1.23-.42c-.62-1.8-1.71-2.67-3.26-2.67-2.36 0-3.95 2.09-3.95 5.22s1.54 5.09 3.91 5.09a3.57 3.57 0 0 0 3.42-2.59zm-13.8-3a3.69 3.69 0 0 1 .42-1.75 2.28 2.28 0 0 1 2-1.32c1.34 0 2.19 1.21 2.19 3.07h-4.64zm5.3 3.07c-.86 1.44-1.48 1.92-2.57 1.92-1.67 0-2.74-1.48-2.74-3.84h6.1c0-3.47-1.29-5.34-3.61-5.34s-3.88 2-3.88 5.07 1.59 5.24 4.07 5.24a4 4 0 0 0 3.59-2.4zm-14.41-7.08h-1.27v9.92h1.36v-7.35c1.25-1.21 2-1.67 2.88-1.67a1.42 1.42 0 0 1 1.36 1 5.12 5.12 0 0 1 .11 1.46v6.51h1.29v-6.5a4.45 4.45 0 0 0 -.4-2.46 2.44 2.44 0 0 0 -2.07-1.13 4.2 4.2 0 0 0 -3.24 1.75v-1.57zm-9.71 0h-1.36v9.92h1.36v-7.35c1.25-1.21 2-1.67 2.88-1.67a1.42 1.42 0 0 1 1.36 1 5.18 5.18 0 0 1 .1 1.46v6.51h1.36v-6.5a4.46 4.46 0 0 0 -.4-2.46 2.44 2.44 0 0 0 -2.07-1.13 4.2 4.2 0 0 0 -3.24 1.75v-1.57zm-7.29.94c1.69 0 2.65 1.46 2.65 4s-.94 4-2.61 4-2.61-1.42-2.61-4.07a5.36 5.36 0 0 1 .61-2.84 2.37 2.37 0 0 1 2-1.15m.08-1.13c-2.51 0-4 1.94-4 5.26 0 3.13 1.48 5.05 3.92 5.05s3.93-1.86 3.93-5.05a8.59 8.59 0 0 0 -.44-2.86 3.61 3.61 0 0 0 -3.44-2.4m-5.68.06c-.73-2.8-2.19-4.15-4.45-4.15-3.24 0-5.09 2.73-5.09 7.52 0 4.36 1.86 6.93 5 6.93 2.38 0 4.09-1.54 4.72-4.28l-1.42-.31a4.38 4.38 0 0 1 -.48 1.44 3 3 0 0 1 -2.8 1.92 3.4 3.4 0 0 1 -3.17-2.61 10.22 10.22 0 0 1 -.42-3.19c0-3.94 1.3-6.18 3.59-6.18 1.57 0 2.59 1.11 3.09 3.28z"/><path d="m177.94 70a4.12 4.12 0 0 0 -4.13-3.38 3.55 3.55 0 0 0 -3.81 3.63 3.48 3.48 0 0 0 1.29 2.8 12.6 12.6 0 0 0 2.84 1.27 7 7 0 0 1 2 1 2.74 2.74 0 0 1 1 2.11 2.93 2.93 0 0 1 -3.13 2.84c-1.84 0-3-1-3.65-3.07l-.92.33c.69 2.34 2.26 3.61 4.47 3.61 2.53 0 4.26-1.57 4.26-3.84a3.56 3.56 0 0 0 -1.48-3 8.43 8.43 0 0 0 -2.51-1.15c-2.28-.77-3.11-1.59-3.11-3a2.64 2.64 0 0 1 2.8-2.65c1.57 0 2.61.92 3.15 2.78zm-20-2.23h1a6.74 6.74 0 0 1 3.51.56c1.54.81 2.36 2.72 2.36 5.47a8 8 0 0 1 -1.11 4.43c-.88 1.25-2.13 1.75-4.45 1.75h-1.27v-12.17zm-1.09-.77v13.88h2.36c2.21 0 3.76-.46 4.72-1.44a7.94 7.94 0 0 0 1.86-5.62c0-2.71-.82-4.78-2.3-5.85-1.13-.81-2.17-1-5-1h-1.65zm-5.55 0h-1.07v13.88h1.07zm-11.73 8.29 1.69-6.14c.25-.92.27-1 .38-1.36.1.33.27 1 .38 1.32l1.71 6.18zm-.25.86h4.63l1.29 4.78h1.17l-4.07-13.93h-1.34l-4.07 13.93h1.07z"/><path d="m134.54 65.99h-.85l-6.81 14.15h.86z"/><path d="m115.68 67h-1.11l4.14 13.93h1.19l4.1-13.93h-1.11l-2.76 9.92q-.5 1.94-.75 3h-.06a25.82 25.82 0 0 0 -.75-3zm-5 0h-1.07v13.88h1.07zm-14.52 7h6.84v6.91h1.06v-13.91h-1.06v6.16h-6.84v-6.16h-1.07v13.88h1.07z"/><path d="m177 46.7h-1.4v13.92h1.4zm-8.29 11c-1 1.36-1.92 2-2.92 2a1.61 1.61 0 0 1 -1.57-1.75c0-.92.44-1.46 1.59-2a21.68 21.68 0 0 1 2.9-.94zm-4.49-4.47a2.65 2.65 0 0 1 2.46-1.59 1.88 1.88 0 0 1 1.82 1 3.1 3.1 0 0 1 .21 1.3c-1.54.38-1.92.5-2.76.75-2.17.71-3 1.67-3 3.32a2.62 2.62 0 0 0 2.73 2.82c1.23 0 1.94-.42 3.07-1.8.06 1 .08 1.15.15 1.59h1.48a10.44 10.44 0 0 1 -.38-2.62v-3.9c0-1.42-.23-2.15-.88-2.74a3.77 3.77 0 0 0 -2.53-.86 3.81 3.81 0 0 0 -3.51 2zm-11.94-2.53h-1.36v9.92h1.36v-7.31c1.25-1.21 2-1.67 2.88-1.67a1.42 1.42 0 0 1 1.36 1 5.19 5.19 0 0 1 .1 1.46v6.51h1.36v-6.5a4.44 4.44 0 0 0 -.4-2.46 2.44 2.44 0 0 0 -2.07-1.13 4.19 4.19 0 0 0 -3.24 1.75v-1.56zm-10.28.94c1.69 0 2.65 1.46 2.65 4s-.94 4-2.61 4-2.61-1.42-2.61-4.07a5.36 5.36 0 0 1 .61-2.84 2.37 2.37 0 0 1 2-1.15m.08-1.13c-2.51 0-4 1.94-4 5.26 0 3.13 1.48 5.05 3.93 5.05s3.95-1.76 3.95-4.98a8.58 8.58 0 0 0 -.44-2.86 3.61 3.61 0 0 0 -3.45-2.4m-8.89-3.26h-1.36v1.52h1.36zm0 3.45h-1.36v9.92h1.36zm-10.65 9.29a22.63 22.63 0 0 1 2.5.19c1 .15 1.48.52 1.48 1.17 0 1-1.13 1.54-3.18 1.54-1.84 0-2.69-.42-2.69-1.36 0-.63.37-1 1.4-1.36zm.69-8.31a2.17 2.17 0 0 1 2.25 2.3 2.14 2.14 0 0 1 -2.21 2.34 2.11 2.11 0 0 1 -2.15-2.33 2.16 2.16 0 0 1 2.11-2.36m4.49-1.31a3.29 3.29 0 0 0 -2.28.88 3.38 3.38 0 0 0 -2.17-.69 3.31 3.31 0 0 0 -3.47 3.4 3.27 3.27 0 0 0 1.4 2.76c-1 .59-1.42 1-1.42 1.65a1.46 1.46 0 0 0 1.42 1.34c-1.29.48-1.86 1.09-1.86 2.07 0 1.4 1.52 2.26 4 2.26 2.82 0 4.51-1 4.51-2.78a2 2 0 0 0 -.83-1.69 5.45 5.45 0 0 0 -2.9-.71l-2.15-.18c-.65-.1-.92-.29-.92-.63a1 1 0 0 1 .58-.79l.15-.15a3.16 3.16 0 0 0 1.5.33 3.36 3.36 0 0 0 3.52-3.4 3.66 3.66 0 0 0 -.75-2.19 3.37 3.37 0 0 1 1.48-.33h.19zm-18.88 4.38a3.69 3.69 0 0 1 .42-1.75 2.28 2.28 0 0 1 2-1.32c1.34 0 2.19 1.21 2.19 3.07h-4.64zm5.3 3.07c-.86 1.44-1.48 1.92-2.57 1.92-1.67 0-2.74-1.48-2.74-3.84h6.14c0-3.46-1.29-5.34-3.61-5.34s-3.88 2-3.88 5.07 1.59 5.24 4.07 5.24a4 4 0 0 0 3.59-2.4zm-17.7-4.78v-5h1.53a9.5 9.5 0 0 1 2.4.17 2.2 2.2 0 0 1 1.69 2.34 2.36 2.36 0 0 1 -1.25 2.21 5.54 5.54 0 0 1 -2.48.31h-1.9zm-1.47-6.3v13.92h1.5v-6.35h.31 2.46.21l2.52 6.35h1.63l-2.69-6.68a3.54 3.54 0 0 0 2.65-3.51 3.49 3.49 0 0 0 -2.23-3.38 7.94 7.94 0 0 0 -2.88-.35z"/><path d="m90.37 95.78c.08 2.06-1.79 2.84-3.13 3.62l-1.64.91a2.12 2.12 0 0 1 -.58.27 2 2 0 0 1 -.64-.79c-.57-.85-1.21-1.61-1.79-2.4-.83.51-1.68.9-2.55 1.49a1.18 1.18 0 0 0 -.67.67.63.63 0 0 0 .49.58c.64.12 1.33-.55 1.79-.82a1.79 1.79 0 0 1 .59-.31 2.71 2.71 0 0 1 .88 1 9.25 9.25 0 0 1 .82 1.09 6.57 6.57 0 0 1 -1.43.85 4.82 4.82 0 0 1 -3.22.54 4 4 0 0 1 -2.43-2.06 3 3 0 0 1 1.24-3.67c.61-.46 1.32-.81 2-1.22 1.25-.77 2.64-1.58 4-2.37a5.6 5.6 0 0 1 2.4-.88 3.18 3.18 0 0 1 2.52.88 8.87 8.87 0 0 1 .64.91 2.83 2.83 0 0 1 .71 1.71zm-2.86 0a.69.69 0 0 0 -.78-.78 9.06 9.06 0 0 0 -1.88 1.12 5 5 0 0 0 .73.94c.54-.37 1.7-.76 1.94-1.25z"/><path d="m85.76 89.13a2.7 2.7 0 0 1 -.24 1.37 5.07 5.07 0 0 1 -2.18 2.09 2.38 2.38 0 0 1 -.94.49 1.89 1.89 0 0 1 -.46-.52 17.79 17.79 0 0 1 -1.18-1.73 8.51 8.51 0 0 1 1.18-.76 1.64 1.64 0 0 0 1-.91.68.68 0 0 0 -.67-.64 2.59 2.59 0 0 0 -1 .52c-1.94 1.13-3.83 2.22-5.8 3.49a1.49 1.49 0 0 0 -.76.76.74.74 0 0 0 .55.67 1.59 1.59 0 0 0 .85-.34l1.45-.88a1.86 1.86 0 0 1 .73-.43 3.12 3.12 0 0 1 .88 1.09c.15.19.26.33.42.55a1 1 0 0 1 .37.6 1.29 1.29 0 0 1 -.52.36c-.46.29-1.18.74-1.64 1a4.48 4.48 0 0 1 -3.79.33 4 4 0 0 1 -2.15-3.13c0-2.16 2.4-3.16 3.82-4.1.81-.53 1.7-1 2.49-1.49a13.81 13.81 0 0 1 2.55-1.43 3.69 3.69 0 0 1 3.77.7c.16.2.35.51.55.79a3 3 0 0 1 .72 1.55z"/><path d="m84.76 103a2.66 2.66 0 0 1 -.48.79 1.4 1.4 0 0 1 -.21 0 1.34 1.34 0 0 1 -.7 1.09 1.88 1.88 0 0 1 -1.12-.46 5.38 5.38 0 0 1 -.79-.45 2.66 2.66 0 0 1 .55-.79 2.42 2.42 0 0 1 .73.36c.27.14.94.56.94.12a1.11 1.11 0 0 0 -.64-.45 3.4 3.4 0 0 1 -.7-.4 1.76 1.76 0 0 1 .56-.81c.67.31 1.24.68 1.86 1z"/><path d="m82.75 105.31v.36a2.54 2.54 0 0 1 -1 1.43 1.05 1.05 0 0 1 -1.12-.33c-.39-.25-.86-.37-.57-1.09a2.08 2.08 0 0 1 1.43-1.18 2 2 0 0 1 .73.33 1.6 1.6 0 0 1 .53.48zm-.91 1a.51.51 0 0 0 .21-.27c-.31-.14-1.11-1-1.37-.46a4.29 4.29 0 0 0 1.16.73z"/><path d="m82 58.73a20.67 20.67 0 0 1 -.12 3.16 6.08 6.08 0 0 1 -.76 2.95 5.79 5.79 0 0 1 .12 3.82 5.21 5.21 0 0 1 -.88 2 2 2 0 0 1 -1.73.76 4.71 4.71 0 0 1 -1.43-.52c-.85-.35-1.9-.78-2.73-1.15-1.13-.5-2.31-.93-2.46-2.37a4.75 4.75 0 0 1 .85-2.91c.65-1.15 2.09-2.8 3.89-2.18a17.18 17.18 0 0 1 2.25 1.09 31.14 31.14 0 0 1 -1.5 4.22 3 3 0 0 0 1 .52 2.51 2.51 0 0 0 1.09.39.85.85 0 0 0 .41-1.12c-.21-.44-1-.47-1.27-.79.28-1 .59-1.87.85-2.85a3.35 3.35 0 0 1 .85.37 10.7 10.7 0 0 0 .39-1.46.94.94 0 0 1 .18-.3 23.74 23.74 0 0 0 .31-5c0-.22 0-.23.09-.24h.09c.08.63.16 1.31.21 1.88a2.15 2.15 0 0 1 .12-.79c.18.03.18.36.18.52zm-6.07 8.2a7.28 7.28 0 0 0 .57-1.25 2.6 2.6 0 0 0 -1.58-.54.88.88 0 0 0 -.54.94 1.25 1.25 0 0 0 .7.51 2.21 2.21 0 0 0 .84.34z"/><path d="m82.14 83.69a10.81 10.81 0 0 1 -1.31.79 1.05 1.05 0 0 1 -.45.21 1.45 1.45 0 0 1 -.49-.52c-.43-.57-.81-1.18-1.21-1.73a5.88 5.88 0 0 1 1.76-1 18.68 18.68 0 0 1 1.7 2.25z"/><path d="m80.84 60.74a9 9 0 0 1 -.3 1.91.44.44 0 0 1 -.37-.09c-.55-1 .05-2.38.21-3.76.08-.7.1-1.41.15-2.07 0-.39 0-.77 0-1.13a1.56 1.56 0 0 1 0-.58h.07c.14 0 .16.33.18.41a24.32 24.32 0 0 1 -.03 4.57 3.42 3.42 0 0 0 .09.74z"/><path d="m81.08 108a3 3 0 0 1 -.6.85c-.26-.13-.58-.23-.85-.4a.88.88 0 0 0 -.15-.15c-.57-.2-1.23 0-1.88-.21a4.74 4.74 0 0 1 .58-.82c.37 0 .55.16.91.15a6.15 6.15 0 0 0 -.48-.67 1.8 1.8 0 0 1 .67-.79 12.63 12.63 0 0 1 .85 1.43c.33.19.61.44.95.61z"/><path d="m80 54a21 21 0 0 1 -.73 7.78 3.1 3.1 0 0 1 -.67-.3 28.59 28.59 0 0 0 1.13-8.29s0 0 0 0a.72.72 0 0 0 0-.14c.09 0 .09-.05.18 0 .09.32.09.56.09.95z"/><path d="m79.26 84.51a1.73 1.73 0 0 1 .4.61 5 5 0 0 1 -1.18.79c-.87.53-1.63.92-2.46 1.46-1.18.76-2.43 1.47-3.61 2.25-.78.52-1.55 1.06-2.4 1.52-.49-.54-.84-1-1.34-1.67a1.58 1.58 0 0 1 -.39-.61 3.65 3.65 0 0 1 1.18-.76c2.78-1.7 5.49-3.55 8.32-5.19.32-.19.45.2.64.46z"/><path d="m79.17 51.26a8.4 8.4 0 0 1 .28 2.46c-.71-.1-.1-1.14-.49-1.55a.29.29 0 0 0 -.15.27c-.21 1.28.46 2.76.36 4.25a12.14 12.14 0 0 1 -.17 1.74 7.25 7.25 0 0 1 -.54 1.67c-.2.42-.5 1.16-1.19.94a1.11 1.11 0 0 1 -.52-1.19 10.39 10.39 0 0 1 .73-2.73 2.11 2.11 0 0 1 .58.3 4.48 4.48 0 0 0 -.18 1.64.76.76 0 0 0 .39-.58 3.93 3.93 0 0 0 .09-1.27 23 23 0 0 1 0-3.52 26.5 26.5 0 0 1 .17-2.69c.05-.22.06-.5.4-.39a4.23 4.23 0 0 1 .24.65z"/><path d="m79 110.08a1.23 1.23 0 0 1 .37.55 1.83 1.83 0 0 1 -1 .46l-1 .33c-1 .32-1.64.57-2.52.82a1.76 1.76 0 0 1 -1.09-.46 1.92 1.92 0 0 1 -.61-1 1.43 1.43 0 0 1 .64-.42 2 2 0 0 0 .4.33 2.28 2.28 0 0 0 .81-.69c.74-.72 1.6-1.69 2.25-2.25a2.8 2.8 0 0 1 .85 1.18 1.26 1.26 0 0 1 -.52.43c-.5.39-1.12.92-1.52 1.27.58-.24 1.22-.57 1.88-.85a1.68 1.68 0 0 1 .64-.24 1.4 1.4 0 0 1 .42.54z"/><path d="m77.32 104.43c.47-.62 1.87.3 1.64 1.27-.28.56-.62 0-.79-.3a.6.6 0 0 1 .15-.3.22.22 0 0 0 -.27-.15c-.25.39.21 1.31-.24 1.58a1.35 1.35 0 0 1 -1.64-1.37.8.8 0 0 1 .43-.33 1.32 1.32 0 0 1 .42.58 1.22 1.22 0 0 1 -.15.24.3.3 0 0 0 .18.24.29.29 0 0 0 .21-.15 2.24 2.24 0 0 1 .06-1.31z"/><path d="m78.68 73.34c.69 1.51-.29 3.15-.85 4.22a.21.21 0 0 1 -.15 0 3.22 3.22 0 0 1 .85 1.94 3 3 0 0 1 -1 2.06c-1.86 1.4-4.23 2.64-6.31 4a4.81 4.81 0 0 1 -3.83 1.15 3.37 3.37 0 0 1 -1.88-1.09 4.6 4.6 0 0 1 -1.18-1.76c-.74-2.7 2-3.68 3.52-4.65l2-1.25c.68-.41 1.33-.84 2-1.25a5.13 5.13 0 0 1 2.86-.94c.34 0 .56.15.94.15a3.73 3.73 0 0 1 1.55.94c-.18-.29-.38-.56-.58-.85.33-.67-.35-1-.82-1.12a3.73 3.73 0 0 0 -.45-.6 1.63 1.63 0 0 1 -.35-.62 4 4 0 0 1 .52-1 7 7 0 0 1 .55-1c1.05.41 2.16.69 2.61 1.67zm-3.46 6.38a.64.64 0 0 0 -.52-1.16 9.5 9.5 0 0 0 -1.94 1.16c-1.14.71-2.55 1.65-3.83 2.37-.4.23-1.73.88-1.76 1.34a.77.77 0 0 0 .55.67 1.44 1.44 0 0 0 1-.36c1.05-.61 2-1.28 3.06-1.85 1.22-.67 2.22-1.6 3.44-2.18z"/><path d="m78.2 50.29a8 8 0 0 1 -.06 2.61.21.21 0 0 1 -.21 0 5.68 5.68 0 0 0 -.76 2.28 38.14 38.14 0 0 1 -1.67 4.77 2.12 2.12 0 0 1 -.85-.43 36.48 36.48 0 0 0 2.88-10.17c0-.07 0-.06.06-.06.58.13.23 1.21.36 1.64a.93.93 0 0 1 .25-.64z"/><path d="m76.62 102.43a1.44 1.44 0 0 1 1 1.27c-.08.62-.73.28-.82-.15a2.89 2.89 0 0 1 .12-.3.19.19 0 0 0 -.21-.15c-.29.26 0 .81-.06 1.25-.58 1.1-1.9-.18-1.88-.85a.5.5 0 0 1 .39-.45 1.1 1.1 0 0 1 .49.51.38.38 0 0 1 -.18.27c0 .12.16.27.27.21.33-.45-.12-.88.12-1.34a.73.73 0 0 1 .76-.27z"/><path d="m77 49.59a13.63 13.63 0 0 1 -1 4.92c-.45-.14-.79-.39-1.21-.55a19.69 19.69 0 0 0 -.94 2.34.74.74 0 0 0 -.12.79 1.21 1.21 0 0 0 .67-.88c.16-.36.29-.76.45-1.09a2.66 2.66 0 0 1 .82.42c-.43 1.19-.81 2.61-1.76 3.31a1.05 1.05 0 0 1 -1.58-.37 1.88 1.88 0 0 1 -.06-.7 6 6 0 0 1 .7-2.25c.15-.35.34-.7.49-1.06.47-1.13 1-2.54 1.46-3.71a5.71 5.71 0 0 1 1.18-2.56c.59-.48.9.8.9 1.39zm-1.2 2.59a5 5 0 0 0 .42-2 .7.7 0 0 1 -.09-.06 4.67 4.67 0 0 0 -.7 1.88.46.46 0 0 0 .37.18z"/><path d="m76.89 45.49a.23.23 0 0 1 0 .15 5.26 5.26 0 0 1 -1.34-1.09 2.27 2.27 0 0 1 -.67-.49c.18-.95.12-2.19.21-3h.09a.66.66 0 0 1 .09.15c.11.61.51 1.1.71 1.81a7.5 7.5 0 0 1 .51 1.35s.36 1.05.4 1.12z"/><path d="m76.62 106.77a2.66 2.66 0 0 1 .39.52 4.1 4.1 0 0 1 -.76.55 1.61 1.61 0 0 1 .12.24c-.17.26-.69.66-.91.24a14 14 0 0 0 -2.13 1.37v.36c-.26.14-.46.33-.73.45-.32-.35-1.07-1.1-.67-1.7a5.33 5.33 0 0 1 1.27-.82c.52-.31 1-.64 1.34-.85a.74.74 0 0 1 -.12-.34c.22-.13.67-.49.91-.15a4.09 4.09 0 0 1 .82-.4 1.12 1.12 0 0 1 .47.53z"/><path d="m76.16 101.58c.11.64-.42.74-.82 1a7.69 7.69 0 0 1 -.82-.94.79.79 0 0 0 -.51.33c0 .13.13.11.18.18a1.54 1.54 0 0 1 .36-.15 1.15 1.15 0 0 1 .52.7.66.66 0 0 1 -.79.15c-.38-.11-1.26-1.06-.88-1.64a9.92 9.92 0 0 1 1.31-.76 1.64 1.64 0 0 1 1.45 1.13zm-.7-.21c-.06-.24-.32-.17-.49-.06a.51.51 0 0 0 .21.3.94.94 0 0 0 .29-.25z"/><path d="m75 104.31a3.63 3.63 0 0 1 .79 1.06 1.21 1.21 0 0 1 -.61.39 3.32 3.32 0 0 1 -.85-1.06.91.91 0 0 1 .67-.39z"/><path d="m74.74 47.32a3.52 3.52 0 0 1 .73.37 38.68 38.68 0 0 1 -4.8 10 3.13 3.13 0 0 1 -1.27-.58 86.85 86.85 0 0 0 4.1-10.51 1.86 1.86 0 0 1 .82.43 47.8 47.8 0 0 1 -2.06 6 20 20 0 0 0 1.36-2.73c.38-.99.73-2.05 1.12-2.98z"/><path d="m74.43 105.37a1.05 1.05 0 0 1 .37.57 2.88 2.88 0 0 1 -.91.58c-.79.48-1.43.89-2.3 1.4a1.43 1.43 0 0 1 -.46.27 1.2 1.2 0 0 1 -.46-.52 2.11 2.11 0 0 1 -.36-.58c1.06-.8 2.33-1.44 3.55-2.19a.16.16 0 0 1 .12-.06 1.7 1.7 0 0 1 .45.53z"/><path d="m74 99a.83.83 0 0 1 .7 1c-.62.34-1.21.71-1.85 1a1.83 1.83 0 0 1 -.55-.67c.42-.41 1.09-.57 1.52-1a1.24 1.24 0 0 0 -.15-.18c-.64.17-1 .61-1.64.79a2.21 2.21 0 0 1 -.52-.64 13.78 13.78 0 0 1 2.06-1.19 4.31 4.31 0 0 1 .55.61.47.47 0 0 1 -.12.28z"/><path d="m74.62 40.15a3.37 3.37 0 0 1 0 2.24c-.58.22-1-.17-1.55-.54-.79-.5-1.78-.73-1.73-2 0-.7.4-1.85 1.07-1.91s.8.54 1.24.79a9 9 0 0 1 0 1 3.76 3.76 0 0 0 -.12.85 1.53 1.53 0 0 0 .82.58c.31-.43-.24-.69-.43-.91a2.22 2.22 0 0 1 .12-1 2.54 2.54 0 0 1 .58.9zm-1.73 0c0-.17.08-.34.12-.52-.19-.22-.7-.52-.76-.09a.72.72 0 0 0 .63.61z"/><path d="m73.77 72.55a18 18 0 0 1 1.33 1.82c-2.48 1.07-5 2.16-7.41 3.22a.55.55 0 0 1 -.24 0 8 8 0 0 1 -1.43.64c-1.21.46-2.37.95-3.7 1.43a2.75 2.75 0 0 1 -.73.27 2.28 2.28 0 0 1 -.59-.7c-.22-.28-.39-.53-.55-.76a8.65 8.65 0 0 1 -1.06-1.58c3.85-2.76 7.45-5.77 11.14-8.68a1.2 1.2 0 0 1 .55.61c.33.44.62.78.94 1.24a3.1 3.1 0 0 1 .43.67 3.19 3.19 0 0 1 -.88.67c-2 1.5-4.38 3-6.34 4.46 2-.78 4-1.93 6-2.94.3-.15.7-.28 1-.45a3.71 3.71 0 0 1 1-.49 1.17 1.17 0 0 1 .54.57z"/><path d="m73.73 38c-.47-.42-1-.8-1.49-1.19 0-.4.1-.75.15-1.12a2 2 0 0 0 .06-.58.42.42 0 0 1 .21 0 .48.48 0 0 0 .09.18.43.43 0 0 1 .06.21 10.64 10.64 0 0 0 .52 1.27 1.65 1.65 0 0 0 .09.15 4.28 4.28 0 0 1 .31 1.08z"/><path d="m74.07 70.79a2.51 2.51 0 0 1 -.48.88 7.43 7.43 0 0 1 -1.13-1.43v-.09a5.34 5.34 0 0 1 1.61.64z"/><path d="m73.31 96.93a1.43 1.43 0 0 1 .52.64 11.35 11.35 0 0 1 -1.94 1.12 2.42 2.42 0 0 1 -.67.33.91.91 0 0 1 -.46-.79.73.73 0 0 1 -.61-1 2.83 2.83 0 0 1 .7-.45 1.37 1.37 0 0 1 1.46-.27 1.11 1.11 0 0 1 .33.73 3.44 3.44 0 0 1 .67-.31zm-1.61.79c.27-.14.61-.18.58-.42a.24.24 0 0 0 -.28-.13 5.69 5.69 0 0 0 -1.15.7c.22.36.58-.01.85-.15z"/><path d="m73.95 43.73a15.91 15.91 0 0 1 -.55 1.88 2 2 0 0 1 -.85-.43c.17-.63.44-1.2.64-1.88a1.65 1.65 0 0 1 .76.43z"/><path d="m72 102.79c.78 0 1.67 1 1.12 1.67a4.06 4.06 0 0 1 -.82.52c-.8.49-1.8 1-2.55 1.46a7.78 7.78 0 0 1 -.82-1.06 6.42 6.42 0 0 1 1.43-.91l.7-.45a1.09 1.09 0 0 0 .64-.52c0-.57-.8-.07-1 .06l-1.43.82a1.6 1.6 0 0 1 -.76.36 1.45 1.45 0 0 1 -.42-.49 3 3 0 0 1 -.37-.55 2.85 2.85 0 0 1 .7-.51c1-.56 2-1.11 3-1.67a5.33 5.33 0 0 1 .82 1 .67.67 0 0 1 -.24.27z"/><path d="m72.25 46a2.7 2.7 0 0 1 .85.39 39.64 39.64 0 0 1 -2.19 5.22c-.79 1.71-1.72 3.34-2.67 5a3.57 3.57 0 0 1 -1.06-.48c1.28-2.47 2.7-4.85 3.89-7.44.39-.92.78-1.82 1.18-2.69z"/><path d="m71.88 42.58a2.29 2.29 0 0 1 .82.43 71.3 71.3 0 0 1 -6.16 12.76 3.06 3.06 0 0 1 -1.09-.52 2.1 2.1 0 0 1 .3-.7c-.21.29-1.4 1-1.58.15a1.77 1.77 0 0 1 .27-1.21 20.59 20.59 0 0 1 1.49-2.76c1-1.62 1.64-3.12 2.58-4.8a3.31 3.31 0 0 1 1.15-1.37c.85-.27.8.79.67 1.31.67-.96.94-2.23 1.55-3.29zm-2.79 6a3 3 0 0 0 .51-1.58c-.06 0-.07 0-.12 0a2.16 2.16 0 0 0 -.61.79c-.41.74-.82 1.63-1.21 2.37s-.9 1.55-1.31 2.34a1.07 1.07 0 0 0 -.21.88.63.63 0 0 0 .46-.24 9.64 9.64 0 0 0 .88-1.43c.59-1.1 1.12-2.09 1.61-3.12z"/><path d="m71 34.18a1.13 1.13 0 0 1 .73 1.3 2.13 2.13 0 0 1 -.73-.61 1.2 1.2 0 0 1 -.52-1.09.84.84 0 0 1 .52.4z"/><path d="m71.73 34.44a1.51 1.51 0 0 1 -.73-.57 1.29 1.29 0 0 1 -.49-1.24.43.43 0 0 1 .31.12 2.74 2.74 0 0 0 -.09-1c0-.22 0-.37 0-.58a1.87 1.87 0 0 1 .73 1 4.85 4.85 0 0 1 .24 1.31 2.32 2.32 0 0 1 .03.96z"/><path d="m70.79 94.87c.41.16 1.09.74.67 1.18a2.67 2.67 0 0 1 -.58.27 4.33 4.33 0 0 1 -1.33.67 3.83 3.83 0 0 1 -.46-.64c.41-.44 1.13-.57 1.55-1-.15-.42-.56 0-.82.15a8.24 8.24 0 0 0 -.94.49 1.07 1.07 0 0 1 -.58-.73c.62-.44 1.36-.76 2-1.15a1.91 1.91 0 0 1 .55.61c.04.08.03.16-.06.15z"/><path d="m71.67 35.75a5.64 5.64 0 0 1 -.25 1.31c-.6-.21-.55-2.06.25-1.31z"/><path d="m71.4 37.23a3.18 3.18 0 0 1 0 .37c-.26 0-.31-.33-.27-.52a.51.51 0 0 1 .27.15z"/><path d="m71.27 37.69a.62.62 0 0 1 -.09.55c-.04-.11-.18-.59.09-.55z"/><path d="m71.76 100.54a2.82 2.82 0 0 1 -.88.57c-.58.34-1.24.68-1.85 1a2.27 2.27 0 0 1 -1.73.58 2.75 2.75 0 0 1 -1.25-1.12 1.08 1.08 0 0 1 -.09-1.55 3.92 3.92 0 0 1 .85 1 2.44 2.44 0 0 1 -.06.27.52.52 0 0 0 .27.3 2.06 2.06 0 0 0 .73-.36c-.68-.19-1.58-1-1-1.73a4.82 4.82 0 0 1 .94-.5c.53-.28 1.32-1 2.25-.73a1.13 1.13 0 0 1 .67 1.37c.49-.38.88.6 1.15.9zm-2.49-.12a1.28 1.28 0 0 0 .79-.7c-.33-.47-.92.1-1.34.3a1.48 1.48 0 0 0 -.76.52c.2.55.91.11 1.31-.12z"/><path d="m70.76 59.46a12.11 12.11 0 0 1 1.7.79 30.78 30.78 0 0 1 -2.34 4.22c-1-.32-1.76-.89-2.73-1.25-.1-.12-.19-.26-.3-.36a1.76 1.76 0 0 1 -.64 1.14c.28.06.45-.44.82-.4a2.38 2.38 0 0 1 .82 1.06 1.66 1.66 0 0 1 -.58.43c-1.76 1.06-3.42 2-5.44 3.13-.84.47-1.62.92-2.46 1.33a9.9 9.9 0 0 1 -2.61 1.15 3.44 3.44 0 0 1 -.85 0 1.73 1.73 0 0 1 -1.43-2 2.13 2.13 0 0 1 .45-.7 7.92 7.92 0 0 1 .83-.67 3.94 3.94 0 0 1 .88 1.18 2.84 2.84 0 0 0 -.46.52c.32.4.86 0 1.19-.15a11.11 11.11 0 0 0 1.09-.58c-.82.22-1.89-.29-1.37-1.25a3.06 3.06 0 0 1 .82-.82 9.63 9.63 0 0 1 1.06-.58c1.41-.79 2.83-1.55 4.22-2.34a4.52 4.52 0 0 1 3.28-.91 14.74 14.74 0 0 0 -1.55-2.13 1.63 1.63 0 0 1 -.55 1.58 9.18 9.18 0 0 1 -2.15 1.46c-.77.4-1.54.88-2.31 1.27-1.19.61-2.31 1.27-3.52 1.85a6.24 6.24 0 0 1 -1.25.55 6.58 6.58 0 0 1 -.73-1.15 1 1 0 0 1 .49-.27c-.77 0-1.61-.32-1.43-1.31a5 5 0 0 1 2.29-1.69 6.76 6.76 0 0 1 2.55-.88 3.55 3.55 0 0 1 1.16.06 4.19 4.19 0 0 0 1.52.37 2.48 2.48 0 0 0 1-.37 1.28 1.28 0 0 0 .77-.64c0-.42-.65-.17-.91 0a1.93 1.93 0 0 1 -.88.46 1.17 1.17 0 0 1 -.41-.56 2.71 2.71 0 0 1 -.4-.55 2.82 2.82 0 0 1 .94-.58 5.27 5.27 0 0 1 2.19-.64 1.64 1.64 0 0 1 1.3.48 1.39 1.39 0 0 1 .52.15c.5-.54.77-1.31 1.25-1.88a12 12 0 0 1 1.82.85c-.29.75-.79 1.28-1.12 2 .64.37 1.36.66 2 1 .61-.71.93-1.64 1.46-2.37zm-5.62 4.89a2.45 2.45 0 0 0 -1.61.64l-2.64 1.46a2.31 2.31 0 0 0 -1.15.91.58.58 0 0 0 .7 0 5.31 5.31 0 0 0 .64-.3c.84-.46 1.66-.86 2.46-1.34a3.13 3.13 0 0 0 1.6-1.37zm-5.65-1.12a3.93 3.93 0 0 0 -1 0 8 8 0 0 0 -1.61.76 1.34 1.34 0 0 0 -1 .76c.31.31.75-.11 1.13-.12.83-.53 1.74-.89 2.48-1.4z"/><path d="m70.27 36.69a5.22 5.22 0 0 1 -.06 1.73c-.73-.3-1.36-.7-2.16-.94a7.27 7.27 0 0 0 -.12 1.64c.66.3 1.42.51 2 .85a7.62 7.62 0 0 1 -.09 1.67c-.71-.17-1.25-.51-1.94-.7a8.6 8.6 0 0 0 -.12 1.76 14 14 0 0 0 1.55.61 6.22 6.22 0 0 1 -.67 1.43c-1-.25-2-.43-2.95-.73 0-.87 0-1.75.12-2.58s0-1.7 0-2.49c.08-1 0-2.65.12-3.79a.25.25 0 0 1 0-.09 13.36 13.36 0 0 1 4.32 1.63z"/><path d="m70.55 93.41a.64.64 0 0 1 -.3.21 1.65 1.65 0 0 1 -.55-.7.36.36 0 0 1 .43-.21 2.32 2.32 0 0 1 .42.7z"/><path d="m69.51 93a1.22 1.22 0 0 1 .52.67 1.23 1.23 0 0 1 -.58.39c-.47.28-1 .54-1.49.79a2.67 2.67 0 0 1 -.58-.67 8.35 8.35 0 0 1 1.49-.91 1.41 1.41 0 0 1 .64-.27z"/><path d="m69.94 35a4.19 4.19 0 0 1 -.06 1.31 22.55 22.55 0 0 0 -3-1.28c0-1.81 0-3.78 0-5.4 0-.37 0-.71 0-1a2 2 0 0 1 .09-.42h.03a8.94 8.94 0 0 1 2.73 1.67 2 2 0 0 1 .09 1.34c-.58-.14-.83-.77-1.4-.82-.08.35 0 .78-.06 1a10.19 10.19 0 0 0 1.33.79 5.18 5.18 0 0 1 0 1.3c-.5-.15-.82-.48-1.3-.64a6.88 6.88 0 0 0 -.06 1.31c.48.33 1.05.59 1.61.84z"/><path d="m69.33 66a2.08 2.08 0 0 1 .58 1.21 2.49 2.49 0 0 1 -.91 1.39 15.7 15.7 0 0 1 -2 1.33c-.35.21-.62.42-1 .64a5.59 5.59 0 0 1 -1.06.55 2 2 0 0 1 -.67-.76 4.58 4.58 0 0 0 -.61-.79c-.6.3-1.28.64-1.88 1a1.57 1.57 0 0 0 -.91.82c.37.33.76-.06 1.13-.24l.55-.3a1.53 1.53 0 0 1 .58-.24 1.12 1.12 0 0 1 .46.51 2.09 2.09 0 0 1 .39.58 7.4 7.4 0 0 1 -3.71 1.49 1.75 1.75 0 0 1 -1.63-1.19c-.22-1 .62-1.44 1-1.95 1.81-1 4.11-2.39 6.1-3.46a5.92 5.92 0 0 1 2.43-.88 1.89 1.89 0 0 1 1.16.29zm-1.58 1.61a.4.4 0 0 0 -.55-.15 7 7 0 0 0 -.79.46 3.2 3.2 0 0 0 -.79.48 3 3 0 0 0 .3.49 5 5 0 0 0 1.83-1.26z"/><path d="m68.33 90.46a1.71 1.71 0 0 1 .58.73 1.39 1.39 0 0 1 -.61.43l-.67.38a10.39 10.39 0 0 0 1.12 0 2.74 2.74 0 0 1 .49.73 5.88 5.88 0 0 1 -1.12.12c-.36.29-.58.73-.94 1a1.93 1.93 0 0 1 -.58-.64 5.71 5.71 0 0 1 .7-1 5.7 5.7 0 0 1 -1 .49 1.35 1.35 0 0 1 -.55-.73c.8-.55 1.73-.97 2.58-1.51z"/><path d="m69.39 97.14a1.29 1.29 0 0 1 -.61.39 3.23 3.23 0 0 1 -.88-1.09 2.91 2.91 0 0 1 .61-.39 3.78 3.78 0 0 1 .88 1.09z"/><path d="m68 97.08a3 3 0 0 1 .39.58 3.37 3.37 0 0 1 -.94.58c-.94.51-1.87 1.11-2.89 1.55a3.4 3.4 0 0 1 -.82-1.09c1.06-.61 2.57-1.5 3.67-2.07a.83.83 0 0 1 .59.45z"/><path d="m67.66 94.83a2.94 2.94 0 0 1 .39.58c-1.13.82-2.82 1.54-4.19 2.34a1.69 1.69 0 0 1 -.61.3 1.35 1.35 0 0 1 -.49-.52 2.33 2.33 0 0 1 -.4-.61c0-.16.18-.07.18-.18a2.38 2.38 0 0 1 -.7-.33 15.33 15.33 0 0 0 1.24 1.59 1 1 0 0 1 .33.79 2.82 2.82 0 0 1 -.55 1.06 3.6 3.6 0 0 1 -2.15 1.73 5.33 5.33 0 0 1 -4.13-1c-.51-.33-1.12-.63-1.73-1s-1.19-.67-1.73-1c-1.47-.89-3.25-1.66-3.43-3.61a2.65 2.65 0 0 1 0-.51 3.65 3.65 0 0 1 2.76-3 4.86 4.86 0 0 1 3.07.58c.49.27.93.56 1.43.88a23.68 23.68 0 0 1 -1.58 2.19 6.36 6.36 0 0 1 -1.12-.61 1.85 1.85 0 0 0 -1.34-.5.68.68 0 0 0 -.49.82 3.8 3.8 0 0 0 1.58 1.18c1.72 1.07 3.78 2.18 5.37 3.1a2.46 2.46 0 0 0 .61.12.89.89 0 0 0 .67-.61.84.84 0 0 0 -.31-.61c-.56-.49-1.65-.9-2.19-1.28.44-.85 1.07-1.52 1.55-2.34a4.66 4.66 0 0 1 .39.27 12.82 12.82 0 0 1 1.31 1.18c-.15-1.11.75-1.29 1.67-1.76.67-.35 1.46-1.07 2.28-.52a1.4 1.4 0 0 1 .58 1.33 1.62 1.62 0 0 0 .61-.3 1.78 1.78 0 0 1 .64-.31 1.25 1.25 0 0 1 .48.56zm-3.58 1.17c.32-.16 1.25-.5 1.21-.88a.4.4 0 0 0 -.29-.31 7.06 7.06 0 0 0 -1.19.61 2.31 2.31 0 0 0 -1 .7c.25.54.84.05 1.27-.12z"/><path d="m66.57 89.67a1.83 1.83 0 0 1 -.73 1.88c-.32.21-.75.37-1.12.58a9.79 9.79 0 0 1 -1.12.58c-.6-.53-.93-1.31-1.52-1.85-.38.2-.84.38-1.25.61-.22.12-.92.67-.3.82a1 1 0 0 0 .72-.29 2 2 0 0 1 .67-.3.69.69 0 0 1 .33.37 3.45 3.45 0 0 1 .67 1c-.78.67-2.72 1.09-3.52.15a2.56 2.56 0 0 1 .18.43c-2.19-1.35-4.38-2.65-6.58-4.07a18.4 18.4 0 0 1 1.49-2.25 9.57 9.57 0 0 1 1.12.76 1.68 1.68 0 0 1 0-1.13 2.13 2.13 0 0 1 .61-.52 1.37 1.37 0 0 1 .55.64 3.81 3.81 0 0 1 .49.7c-.24.15-.34.58 0 .67s1.13-.54 1.4-.61a1.86 1.86 0 0 1 -1.13-.4 1.91 1.91 0 0 1 -.33-.58c-.22-.81.68-1.39 1.31-1.7l1.28-.64a8.41 8.41 0 0 1 2.67-1.16c1-.12 2.05 1 1.28 1.86a4.87 4.87 0 0 1 .64-.22 4.34 4.34 0 0 1 1 1.25c-1.44.92-3.34 1.83-5 2.7a12.06 12.06 0 0 1 -1.7.85 2.19 2.19 0 0 1 -2-.27c.59.92 1.32 1.85 2 2.76a1.75 1.75 0 0 1 .39-1.79c1.12-.64 2.65-1.47 3.86-2a3 3 0 0 1 1.58-.39 2.46 2.46 0 0 1 2.06 1.56zm-1.67.33a.37.37 0 0 0 -.39-.39 4.36 4.36 0 0 0 -1.09.58 3.17 3.17 0 0 0 .43.52 3.49 3.49 0 0 0 1.05-.71zm-2.28-4.19a1 1 0 0 0 .24-.36.33.33 0 0 0 -.45-.24 15.58 15.58 0 0 0 -1.67.85c-.48.36-1.27.41-1.49 1a.6.6 0 0 0 .58.18 6.1 6.1 0 0 0 1.43-.7 6.67 6.67 0 0 0 1.36-.72z"/><path d="m66.23 28.37c.28.88.56 3-.51 3.43a4.64 4.64 0 0 1 -1.72-.09c-.07.88 0 1.76-.09 2.7-.58 0-1-.13-1.55-.15 0-1.46 0-3.15.06-4.77a22.52 22.52 0 0 1 0-2.31.2.2 0 0 1 .09-.06c1.41.14 3.1.24 3.72 1.25zm-1.58 2a1.31 1.31 0 0 0 -.15-1.64 1.09 1.09 0 0 1 -.42-.06 12.45 12.45 0 0 0 -.08 1.67 1.51 1.51 0 0 0 .66.06z"/><path d="m65.78 35c-.56 2.85-1.12 5.74-1.7 8.75-.81 0-1.65-.19-2.49-.21a9.22 9.22 0 0 1 -.36-1.73c-.29-2.44-.71-4.83-1-7.32.73 0 1.45-.06 2.18 0a3.46 3.46 0 0 1 .09 1.25c.07 1.6.33 3.16.39 4.76.33-1.9.46-3.89.76-5.83a5.06 5.06 0 0 1 2.13.33z"/><path d="m64.78 56.67a12.79 12.79 0 0 1 -.88 1.55.2.2 0 0 1 -.18-.06c-.78.56-1.76 1-2.7 1.58a2.85 2.85 0 0 1 -.64.33c-.27 0-.37-.48-.61-.49a4.32 4.32 0 0 0 -2 .73c-1.38.73-2.62 1.36-4.1 2.07a2.24 2.24 0 0 1 -.85.36 1.52 1.52 0 0 1 -.42-.61 1.6 1.6 0 0 1 -.33-.7 2.13 2.13 0 0 1 .8-.43c.88-.44 1.71-.86 2.58-1.24 2.21-1.15 4.42-2.3 6.59-3.49a1.65 1.65 0 0 1 .46.55 1.17 1.17 0 0 1 .36.6 1.56 1.56 0 0 1 -.64.43 2.46 2.46 0 0 0 -.64.4c.6-.15 1.45-.55 2.07-.15-.12-.22-.35-.51-.58-.82-.38-.52-.74-1-.15-1.43a11.25 11.25 0 0 1 1.86.82z"/><path d="m62.56 81.26a1.55 1.55 0 0 1 .44.74.76.76 0 0 1 -.43.27l-4 2.09c-1 .54-1.9.93-3 1.49a3.64 3.64 0 0 1 -1 .49 1.6 1.6 0 0 1 -.57-.74 1.66 1.66 0 0 1 -.46-.76.78.78 0 0 1 .46-.24 2.58 2.58 0 0 1 -1-.36 13.61 13.61 0 0 1 .94 1.64 1.5 1.5 0 0 0 -.27.24 2.93 2.93 0 0 1 -.43 0c0-.11-.93-.64-1-.76a.56.56 0 0 0 0-.34.57.57 0 0 0 -.24-.23c-2-1.12-4.09-2.13-6.1-3.22a1.82 1.82 0 0 1 .48-.82 36.34 36.34 0 0 1 3.31 1.82c-.87-.72-2-1.46-3-2.15a2 2 0 0 1 .49-.85c1.82 1.28 3.56 2.63 5.31 4-.07-1.15 1-1.53 1.85-1.94s1.71-.86 2.52-1.25a6.23 6.23 0 0 1 1.34-.52c1.27-.22 2.2.82 1.58 1.88.79-.34 1.48-.79 2.28-1.12a5.33 5.33 0 0 1 .5.64zm-4.1 1.15a.77.77 0 0 0 .31-.52.36.36 0 0 0 -.37-.21 4.53 4.53 0 0 0 -1.18.55c-.62.31-1.33.62-1.91.91a1.37 1.37 0 0 0 -.79.58c.19.6 1 .14 1.4-.06.86-.39 1.82-.86 2.54-1.24z"/><path d="m61.77 30.68c0 .59.05 1.23 0 1.76a2.16 2.16 0 0 1 -2.52 2 1.48 1.48 0 0 1 -1.46-1.37c-.05-.51 0-1.38 0-1.85 0-1.54 0-3.2 1.22-3.79a4 4 0 0 1 1.25-.21 1.47 1.47 0 0 1 .67.06c1.07.53.83 2.04.84 3.4zm-1.58 1.7c0-.88 0-2.17 0-3.07a2.14 2.14 0 0 0 -.09-.61c-.25-.45-.71 0-.76.33a19.36 19.36 0 0 0 0 2.94c0 .54-.13 1.47.64 1.12a1.89 1.89 0 0 0 .21-.71z"/><path d="m61.38 55.12c.17.26.27.45.39.64a4.78 4.78 0 0 1 -1.18.73c-2.84 1.55-5.75 3-8.77 4.49a1.9 1.9 0 0 1 -.43-.61 2 2 0 0 1 -.3-.7 1.26 1.26 0 0 1 .73-.43c-.93.11-1.76-.27-1.55-1.3a3.91 3.91 0 0 1 2.1-1.55c1.92-.93 4.05-2.12 5.86-2.95a11.28 11.28 0 0 1 1.4-.79 2.77 2.77 0 0 1 .49.64 1.25 1.25 0 0 1 .37.64 2.59 2.59 0 0 1 -.91.58c-.7.34-1.29.65-1.95 1-.94.51-1.94 1.06-2.88 1.52a4.56 4.56 0 0 0 -1.82 1.12c.25.43.72.08 1 0 1.05-.43 1.94-1 3-1.49s1.95-1 3-1.55a4 4 0 0 1 1-.52 1.43 1.43 0 0 1 .45.53z"/><path d="m59.92 103.37a1.15 1.15 0 0 1 -.43 1 .62.62 0 0 1 -.49-.27.41.41 0 0 1 .09-.24c-.81-.44-1.87-.64-2.7-1.06a1.21 1.21 0 0 1 .49-.67c.51.19.92.46 1.43.64-.42-.29-.8-.62-1.22-.91a1.11 1.11 0 0 1 .48-.67 18.11 18.11 0 0 1 2.35 2.18z"/><path d="m59.83 38v5.53c-.64 0-1.39.15-2 .15-.15-2.83-.14-5.72-.12-8.83a18 18 0 0 1 2-.37 1.59 1.59 0 0 1 .09.88c.02.75.03 1.71.03 2.64z"/><path d="m58.61 104.4a.57.57 0 0 1 .67.22c-.18.34-.4.84-.91.67s-1.19-.84-1.64-1a.59.59 0 0 1 -.67-.18c0-.1 0-.09.06-.15a4 4 0 0 0 -.46-.33.73.73 0 0 1 .58-.64c.14 0 .19.18.36.21a.6.6 0 0 1 .64.18.26.26 0 0 1 0 .18c.42.3.92.54 1.37.84z"/><path d="m58.46 50.47a1.29 1.29 0 0 1 .31 1.09 3 3 0 0 1 -1.31 1.64 14.54 14.54 0 0 1 -1.76 1c-.84.42-1.79.85-2.61 1.27a8.21 8.21 0 0 1 -2.07 1 1.76 1.76 0 0 1 -2.22-1.06c-.4-1.75.9-2.65 2.19-3.22.54-.24 1.11-.56 1.64-.85s1.13-.57 1.64-.85a5.85 5.85 0 0 1 2.34-.82 1.9 1.9 0 0 1 1.85.8zm-3.25 2.09c.27-.14 1.44-.6 1.4-1a.32.32 0 0 0 -.43-.21 3.1 3.1 0 0 0 -.76.37c-.28.14-.56.26-.76.37-1.23.67-2.54 1.22-3.67 1.91a.75.75 0 0 0 -.55.58.68.68 0 0 0 .85 0c1.34-.65 2.62-1.33 3.92-2.01z"/><path d="m58.37 105.8a2.16 2.16 0 0 1 -.49.67c-.87-.46-1.65-1-2.49-1.52a1.57 1.57 0 0 1 .49-.67 22.74 22.74 0 0 1 2.49 1.52z"/><path d="m57.61 77.56a1.9 1.9 0 0 1 -.43 1.73c-.5.32-1.26.71-1.91 1a1.79 1.79 0 0 1 -.61.21 1.87 1.87 0 0 1 -.42-.5c-.38-.55-.71-1.1-1.06-1.64-.31.14-.58.25-.94.43a1.54 1.54 0 0 0 -.79.55.41.41 0 0 0 .33.39 5.35 5.35 0 0 0 1.22-.41 7.71 7.71 0 0 1 1 1.52 3.14 3.14 0 0 1 -2 .6 2.71 2.71 0 0 1 -2.18-3.16 2.54 2.54 0 0 1 .79-.85c.57-.19 1.22-.51 1.91-.82a7.43 7.43 0 0 1 2.34-.91 2.34 2.34 0 0 1 2.25 1.09 2.81 2.81 0 0 1 .5.77zm-1.67.24a.51.51 0 0 0 -.27-.46 4.16 4.16 0 0 0 -1.19.43 1.91 1.91 0 0 0 .37.64 3.1 3.1 0 0 0 1.09-.61z"/><path d="m57.64 106.77a1.05 1.05 0 0 1 -.52.67 3 3 0 0 1 -1-.61 1.17 1.17 0 0 0 -1-.39 1.94 1.94 0 0 0 .88.64c.32.22.61.46.91.67a1.16 1.16 0 0 1 -.49.64 4.43 4.43 0 0 1 -1.24-.73 13.09 13.09 0 0 1 -1.18-.79.71.71 0 0 1 .58-.61.68.68 0 0 1 .94-.79c.65.33 1.61.95 2.12 1.3z"/><path d="m57.31 42.13a9.48 9.48 0 0 1 .06 1.64 14.94 14.94 0 0 0 -2.43.49 7.44 7.44 0 0 1 -1-1.88c-.19-.41-.42-.82-.55-1.18a8.86 8.86 0 0 1 -.12-2.49c0-.71.06-1.39.09-2.15a5.8 5.8 0 0 1 1.76-.85c0 2.17.07 4.53.12 6.8a17.71 17.71 0 0 1 2.07-.38z"/><path d="m57.25 28.16c0 2.46-.08 4 0 6.59-.41.12-.9.28-1.4.39-.08-.86 0-1.85-.06-2.64a3 3 0 0 0 -.73.37v2.58a4.3 4.3 0 0 1 -1.31.61c0-1.37.08-3 .21-4.46a5.54 5.54 0 0 1 .18-1.43 2.16 2.16 0 0 1 .49-.48 1 1 0 0 1 .58-.4c0 .63-.06 1.47-.09 2.19a1.69 1.69 0 0 0 .73-.33c0-.83 0-1.56.06-2.34a2.9 2.9 0 0 1 1.34-.65z"/><path d="m55.67 46a2.29 2.29 0 0 1 .79 1.52 3.25 3.25 0 0 1 -1.61 2.1c-.19.12-.47.21-.73.33a2.19 2.19 0 0 1 -.73.33 1.33 1.33 0 0 1 -.39-.62 1.64 1.64 0 0 1 -.33-.7 2.24 2.24 0 0 1 .91-.58 1.26 1.26 0 0 0 .79-.67.4.4 0 0 0 -.52-.15 7.06 7.06 0 0 0 -1.37.7c-.89.47-1.75.94-2.64 1.46-.39.23-1 .42-.94 1 .75.05 1.37-.69 2-.85a1.45 1.45 0 0 1 .43.67c.11.23.18.5.27.76a2.11 2.11 0 0 1 -.88.49c-.58.28-1.54 1.08-2.55.67a2.07 2.07 0 0 1 -.76-1.7c.09-1.65 1.49-2.38 2.67-3.07.51-.3 1-.58 1.49-.82a7.55 7.55 0 0 1 2.28-1.06 2.74 2.74 0 0 1 1.82.19z"/><path d="m56.12 100.76a1.35 1.35 0 0 1 .64.33c-.45.72-1.15 1.57-1.73 2.4a2 2 0 0 1 -.61.76 1 1 0 0 1 -.64-.42c.22-.57.48-1.12.67-1.73-.42.44-.7 1-1.12 1.46a1.06 1.06 0 0 1 -.58-.3 2 2 0 0 1 .33-.64c.64-.82 1.26-1.62 1.85-2.49a0 0 0 0 0 .06 0 3.66 3.66 0 0 1 .64.31 6.88 6.88 0 0 1 -.61 1.76 14 14 0 0 0 1.1-1.44z"/><path d="m55.82 71.91a7.13 7.13 0 0 1 1.09 1.52 15.61 15.61 0 0 1 -2 1c-2 1-4.06 2-6.16 2.85a6.59 6.59 0 0 1 -.94-1.67c2.7-1.23 5.44-2.39 8.01-3.7z"/><path d="m55.7 108.32a.75.75 0 0 1 .24.85 1.22 1.22 0 0 1 -1.3.88.9.9 0 0 1 .7-.79.58.58 0 0 0 -.39-.34.71.71 0 0 1 -1 .76 9 9 0 0 1 -1.49-1 .64.64 0 0 1 .46-1 .9.9 0 0 1 .43-.76 2.64 2.64 0 0 1 .6.33l.58.36a9.13 9.13 0 0 1 1.17.71zm-1.88.18a.73.73 0 0 0 .67.3 1.32 1.32 0 0 0 -1.27-.76 1.33 1.33 0 0 0 .6.46z"/><path d="m54.79 104.58c.12-.42.52-1 .91-.43a1.54 1.54 0 0 1 -.39.64.92.92 0 0 1 -.52-.21z"/><path d="m54.51 66.93a1.19 1.19 0 0 1 .24.49.39.39 0 0 1 -.46.24c-.32-.07-.4-.78-.67-.91a.52.52 0 0 0 -.36.21c.19.35.74 1 0 1.06a5.42 5.42 0 0 1 -.61-.82c-.15.06-.28.15-.42.21 0 .29.6.69.55 1a.55.55 0 0 1 -.43.27 3.25 3.25 0 0 1 -.64-.88 6.24 6.24 0 0 1 -.51-1 2.18 2.18 0 0 1 .8-.42l1.15-.58a.78.78 0 0 1 .46-.18 2.19 2.19 0 0 1 .61.88c.09.18.2.29.29.43z"/><path d="m54.79 110.72a2.44 2.44 0 0 1 -.49.67c-.87-.45-1.57-1.06-2.4-1.55a1.06 1.06 0 0 1 .45-.7 4 4 0 0 1 1.25.76c.48.33.89.56 1.19.82z"/><path d="m54.24 104.8a.85.85 0 0 1 -.24.79 1.18 1.18 0 0 1 -.61-.33.94.94 0 0 1 .15-.33.47.47 0 0 0 -.21-.18c-.54.22.28 1 .18 1.55a3.39 3.39 0 0 1 -.21.4c-.81.68-2.38-.46-1.49-1.28a1.42 1.42 0 0 1 .61.33 2.13 2.13 0 0 1 -.15.36c0 .25.39.21.45 0a2.6 2.6 0 0 0 -.36-1.06c-.16-1.27 1.64-.91 1.88-.25z"/><path d="m54.06 42.82c.16.47.47.78.61 1.28a3 3 0 0 1 -.79.49c0 .12 0 .15.06.3a1.71 1.71 0 0 1 -.82.48.42.42 0 0 1 -.21-.24c-.77.38-1.49.82-2.22 1.24a.5.5 0 0 0 0 .33 2.85 2.85 0 0 1 -.73.46 3 3 0 0 1 -.43-1.46c-.55.32-1 .75-1.58 1a7.47 7.47 0 0 1 .31-3.83c.08-.31.16-.65.21-.82.21-.47.69-1.72.85-1.94.27.05 0 .26 0 .39s0 .55 0 .82a11.53 11.53 0 0 0 .49 3.76 1.08 1.08 0 0 0 .54-.33 19.87 19.87 0 0 0 1.88-1.13 1.78 1.78 0 0 0 -.09-.24 1.27 1.27 0 0 1 .88-.49 1.94 1.94 0 0 1 .09.24 2.86 2.86 0 0 1 .95-.31z"/><path d="m53.33 99.18a2.45 2.45 0 0 1 .88.43 36.76 36.76 0 0 1 -1.76 3.39 1.32 1.32 0 0 1 -.64-.34 1.6 1.6 0 0 1 .24-.55.44.44 0 0 0 -.27-.24 3.32 3.32 0 0 0 -.52.45 1.79 1.79 0 0 1 -.57-.33 2.28 2.28 0 0 1 .55-.7c.52-.48 1-1 1.52-1.58a5.13 5.13 0 0 0 .57-.53zm-.24 1.18a6.68 6.68 0 0 0 -.76 1 .18.18 0 0 0 .18.06 5.4 5.4 0 0 0 .58-1.06z"/><path d="m53.33 111.23a2.06 2.06 0 0 1 .7.54 2.87 2.87 0 0 1 -.4.64.32.32 0 0 1 -.21 0v.31a1.32 1.32 0 0 1 -.43.51 1.74 1.74 0 0 1 -1.28-.51 3.54 3.54 0 0 1 -1.15-1 .85.85 0 0 1 .64-.76 4.7 4.7 0 0 1 -.64-.45 1 1 0 0 1 .45-.67 1.81 1.81 0 0 1 .79.49c.58.28.96.54 1.53.9zm-.43 1.12c.22-.18 0-.33-.27-.45a5.22 5.22 0 0 0 -1-.67.32.32 0 0 0 -.18.09 5.27 5.27 0 0 0 1.46 1.04z"/><path d="m53.42 31.89a1.12 1.12 0 0 1 -.52.88 1.59 1.59 0 0 1 -.49.46 3.39 3.39 0 0 1 .15-.58c.44-.08.44-.65.86-.76z"/><path d="m53.51 31.25a1.36 1.36 0 0 1 -.67 1 2 2 0 0 1 .67-1z"/><path d="m53.3 32.5a5.3 5.3 0 0 1 -.06.91 3.54 3.54 0 0 1 -.33.3 2.46 2.46 0 0 1 -.7.64 1.3 1.3 0 0 1 .18-.76c.09 0 .06.1.09.15.52-.18.29-1.09.82-1.24z"/><path d="m53.18 33.9c0 .8-.63.89-.94 1.34-.24-.7.47-1.09.94-1.34z"/><path d="m53 40.67a1.38 1.38 0 0 1 .06 1.91c-.37.3-.89.47-1.4.79l-1.15.73a1.39 1.39 0 0 1 -.64.31c-.08-.43-.21-.82-.27-1.28a10.26 10.26 0 0 1 1.7-1.21c.29-.19 1-.55.67-.91a23.85 23.85 0 0 0 -2.46 1.52 5.1 5.1 0 0 1 -.06-1.27 7.28 7.28 0 0 1 .94-.88c.31-.25.65-.54 1-.79s.47-.37.67-.49c0 0 .2-.05.27-.09a4.81 4.81 0 0 1 .49 1.24 1.68 1.68 0 0 1 -.21.24 2.15 2.15 0 0 1 .39.18z"/><path d="m52.33 63.5a2.22 2.22 0 0 1 .79 1.58.61.61 0 0 1 -.61.58 1.68 1.68 0 0 1 -.51-.82 3.11 3.11 0 0 1 .33-.25.32.32 0 0 0 -.15-.33 5.77 5.77 0 0 0 -1.46.67.54.54 0 0 0 .18.33c.24 0 .32-.18.49-.15a1.54 1.54 0 0 1 .51.82.85.85 0 0 1 -1.19.06c-.29-.24-1.06-1.5-.51-2a5.09 5.09 0 0 1 1.28-.58.89.89 0 0 1 .85.09z"/><path d="m53.12 34.72v.46a3.72 3.72 0 0 1 -1 .76c0-.25 0-.34 0-.58a3.51 3.51 0 0 1 1-.64z"/><path d="m53 35.84a1.14 1.14 0 0 1 -.76 1.4c-.19-.45.32-.46.37-.79a2.67 2.67 0 0 0 -.43.15c-.1-.51.35-.72.82-.76z"/><path d="m53 37.69v.39a2.43 2.43 0 0 1 -.55.31.65.65 0 0 1 -.06-.39 1.44 1.44 0 0 1 .61-.31z"/><path d="m52.81 70.61a13.19 13.19 0 0 1 1 1.58 27.09 27.09 0 0 1 -2.92.88c-.09 0-.09 0-.18 0a29.79 29.79 0 0 1 -3.76.88 18.71 18.71 0 0 1 -.95-1.8 1.83 1.83 0 0 1 .73-.55c.76-.46 1.6-.93 2.34-1.46-1.16.34-2.27.74-3.43 1.09a8 8 0 0 1 -.82-1.88c1.58-1.36 3.3-2.6 5-3.86a8.4 8.4 0 0 1 .79 1.27 1.45 1.45 0 0 1 .21.45 2.15 2.15 0 0 1 -.91.67 7.58 7.58 0 0 1 -1 .58 12.86 12.86 0 0 1 -1.43.88 20.67 20.67 0 0 0 2.88-.88 2.43 2.43 0 0 1 1-.27 2.06 2.06 0 0 1 .55.88 1.35 1.35 0 0 1 .37.64 1.33 1.33 0 0 1 -.61.43 3 3 0 0 0 -.61.39 11.4 11.4 0 0 0 -1.18.61c-.34.26-.8.42-1.14.69 1.31-.3 2.7-.83 4.07-1.22z"/><path d="m52.94 38.51a10.87 10.87 0 0 1 0 1.27 2.26 2.26 0 0 1 -.39-1.12.91.91 0 0 1 .39-.15z"/><path d="m52.6 98.72a1.76 1.76 0 0 1 -.37.58c-.6.81-1.21 1.69-1.79 2.49a.78.78 0 0 1 -.61-.24 1.93 1.93 0 0 1 .52-.91c.19-.27.37-.55.58-.82a5.89 5.89 0 0 0 -.76.73c-.3.34-.72 1.07-1.12.48.23-.64.6-1.14.85-1.76-.45.45-.73 1.07-1.15 1.55a.89.89 0 0 1 -.61-.3 33.73 33.73 0 0 1 2.19-3.16 3.59 3.59 0 0 1 1 .55 9.77 9.77 0 0 1 -.64 1.27 8.35 8.35 0 0 1 1-1 2.25 2.25 0 0 1 .91.54z"/><path d="m52.81 103.88a.8.8 0 0 1 -.27.43 1.66 1.66 0 0 1 -.39-.15c-.46.53-.85 1.14-1.27 1.7a1.28 1.28 0 0 1 -.64-.42c.39-.59.8-1.06 1.19-1.7a.87.87 0 0 1 -.31-.3c.24-.89 1.27.3 1.69.44z"/><path d="m52.45 88.82a1.09 1.09 0 0 1 -1.06 1.37 7.2 7.2 0 0 1 -1.18-.7 1.09 1.09 0 0 1 .33-.61 10.59 10.59 0 0 0 1.31.67.53.53 0 0 0 .09-.12 7.79 7.79 0 0 0 -1.15-.79 1.43 1.43 0 0 1 .33-.58s.13 0 .21 0a4.8 4.8 0 0 1 1.12.76z"/><path d="m52.14 107.25a1.73 1.73 0 0 1 -.88.64c-.11.34-.14.77-.27 1.09a.81.81 0 0 1 -.49-.3c0-.23.11-.29.09-.52-.17.19-.71.43-.91 0a4.9 4.9 0 0 1 1-.73c.09-.29.11-.66.21-.94a1 1 0 0 1 .52.3 2.17 2.17 0 0 1 -.09.4.59.59 0 0 1 .82.06z"/><path d="m52.18 109a1.38 1.38 0 0 1 -.43.7.92.92 0 0 1 -.46-.24 2.23 2.23 0 0 1 .37-.67.66.66 0 0 1 .52.21z"/><path d="m51.72 35.63c.31 1 .55 2.49-.06 3.22a3.87 3.87 0 0 1 -1.06.76c-.12-.43-.09-1.66-.15-1.73a1.08 1.08 0 0 1 .09-.42 9.22 9.22 0 0 1 .46-.95 4.51 4.51 0 0 1 .52-.82.25.25 0 0 1 .2-.06zm-.67 2.1a.45.45 0 0 0 .3-.64.57.57 0 0 0 -.3.63z"/><path d="m51.35 85.06c.34.18.69.37 1 .57a.9.9 0 0 1 -1.21.73 3.33 3.33 0 0 1 -.76-.52c-.19-.15-.49-.27-.73-.43-.65-.41-1.54-.93-2.1-1.33-.41.31-.78-.29-1.15-.39a.66.66 0 0 1 0-.27c-.31-.26-.73-.4-1-.67a1.31 1.31 0 0 1 .49-.75c.37-.07.72.48 1.06.58a.62.62 0 0 0 .21-.12 7.51 7.51 0 0 1 1 .61.44.44 0 0 1 -.06.21c.9.61 1.9 1.21 2.9 1.81a1 1 0 0 0 .35-.03z"/><path d="m51.3 61.8c.22-.09.51.61.61.85a12.34 12.34 0 0 1 -2.34 1.13 2.53 2.53 0 0 1 -.45-.85.45.45 0 0 1 .36-.21c.57-.28 1.33-.72 1.82-.92z"/><path d="m51.33 90.61a1.17 1.17 0 0 1 -.91 1.24 1.32 1.32 0 0 1 -.67-.27 1.9 1.9 0 0 1 -.52-.43 1.35 1.35 0 0 1 .3-.94 1 1 0 0 1 .73-.36 1.89 1.89 0 0 1 1.07.76zm-1.58.06c.3.13.75.73 1 .4a2 2 0 0 0 -.91-.58.75.75 0 0 0 -.09.19z"/><path d="m51.08 102.88a1.4 1.4 0 0 1 -.37.58c-.37.5-.83 1.19-1.16 1.58a1 1 0 0 1 -.6-.33 3.61 3.61 0 0 1 .54-.91.35.35 0 0 0 -.24-.15c-.25.23-.4.57-.64.82a1.59 1.59 0 0 1 -.64-.3 1.08 1.08 0 0 1 .33-.58 20.45 20.45 0 0 1 1.18-1.67 1.14 1.14 0 0 1 .61.39 2.68 2.68 0 0 1 -.49.76.47.47 0 0 0 .18.18 5.79 5.79 0 0 0 .64-.73.8.8 0 0 1 .66.36z"/><path d="m51.3 61.59a1.09 1.09 0 0 1 -.46.21c-.19-.1-.17-.41-.36-.52l-.88.42a1.87 1.87 0 0 1 -.88.33 4.37 4.37 0 0 1 -.39-.82 11.32 11.32 0 0 1 1.67-.93c0-.2-.19-.31-.24-.52a.78.78 0 0 1 .49-.24 17 17 0 0 1 1.05 2.07z"/><path d="m51.2 87a2.61 2.61 0 0 1 -.46.73 6.71 6.71 0 0 1 -1.73-1c-1.13-.72-2.3-1.35-3.4-2.13a2.57 2.57 0 0 1 .46-.76 19.92 19.92 0 0 1 2.61 1.55c.89.61 1.74 1.09 2.52 1.61z"/><path d="m50.69 106.37a.46.46 0 0 1 -.18.27 1.32 1.32 0 0 1 -.55-.24.46.46 0 0 0 -.21.21c.12.14.3.2.43.33a.49.49 0 0 1 -.18.3.86.86 0 0 1 -.52-.21.82.82 0 0 0 -.21.27c.1.21.38.25.49.46-.28.62-.9-.18-1.24-.33a8.64 8.64 0 0 1 1.12-1.7 2.44 2.44 0 0 1 1.05.64z"/><path d="m50.38 38.66c0 .79.09 1.5-.61 1.61a1.65 1.65 0 0 1 .23-1.43.23.23 0 0 1 .11-.14.45.45 0 0 1 .27-.04z"/><path d="m49.32 87.37a1.6 1.6 0 0 1 .82 1.58c-.4 1.12-2.38.18-2.83-.36a1.41 1.41 0 0 1 .39-.64 3.15 3.15 0 0 0 1.06.36c-.24-.77-1.37-.57-2.37-.7a4.9 4.9 0 0 1 -2.64-1.31 1.44 1.44 0 0 1 -.49-.82 2.75 2.75 0 0 1 .55-.91 3 3 0 0 1 2.12.76 1.19 1.19 0 0 1 -.39.7c-.38 0-.53-.32-.91-.36-.11.24.2.3.27.45a9.57 9.57 0 0 0 2.28.24 5.41 5.41 0 0 1 2.14 1.01z"/><path d="m50.38 92.25a.51.51 0 0 1 -.94.24.23.23 0 0 0 -.21.18 5.24 5.24 0 0 0 .52.4c-.17 1.23-1.45-.18-1.88-.37.38-.44.72-1.58 1.55-1.09a.58.58 0 0 1 .06.3.91.91 0 0 1 .9.34zm-1.52.21a.3.3 0 0 0 .14-.21.19.19 0 0 0 -.36.09.28.28 0 0 0 .23.13z"/><path d="m49.9 58.82a.62.62 0 0 1 -.51.82 1.61 1.61 0 0 1 -.4-.82c0-.11.19-.16.21-.27a.39.39 0 0 0 -.21-.4c-.23.42 0 1.3-.18 1.79-.74.86-1.46-.58-1.55-1.37-.05-.49.06-.89.43-.94a1.8 1.8 0 0 1 .39.91c0 .13-.2.06-.21.18a.47.47 0 0 0 .18.45c.34-.26.07-1 .16-1.49.11-.65.83-.54 1.15-.15a3.32 3.32 0 0 1 .54 1.29z"/><path d="m49.17 78.77c.14.24.57.5.3.79a8.23 8.23 0 0 1 -1.34-.88c0-.32.26-.95.58-.79.16.24.29.6.46.88z"/><path d="m49.9 97.05a15.88 15.88 0 0 1 -1.3 2 2.08 2.08 0 0 1 -.88.91.93.93 0 0 1 -1.27-.85 3.78 3.78 0 0 1 .82-1.49c.39-.58.77-1 1.06-1.46a1.29 1.29 0 0 1 .61.33 1.71 1.71 0 0 1 -.39.73 15 15 0 0 0 -1.31 1.94c.33.23.45-.25.58-.43.32-.44.66-.85 1-1.36a1.52 1.52 0 0 1 .52-.64 1.35 1.35 0 0 1 .56.32z"/><path d="m47.83 105.56c.1-1 2.06-.29 1.28.57a.87.87 0 0 1 -.49-.21.48.48 0 0 0 .06-.3.17.17 0 0 0 -.18-.06c-.11.41.6 1.19 0 1.52s-1.65-.47-1.09-1.09a.61.61 0 0 1 .48.24 1.89 1.89 0 0 1 -.06.3.17.17 0 0 0 .21.09c.22-.37-.25-.62-.21-1.06z"/><path d="m49.08 64a1.78 1.78 0 0 1 -.85 1.82 21.91 21.91 0 0 0 -2.19 1 5.84 5.84 0 0 1 -.7.36 1.62 1.62 0 0 1 -1.91-1.3c-.29-.93-.43-2.4.24-3a6.79 6.79 0 0 1 1.43-.88c.72-.37 1.25-.95 2.34-.73a3.88 3.88 0 0 1 1.64 2.73zm-1.43-.36a.43.43 0 0 0 -.37-.43 6.38 6.38 0 0 0 -1.49.7 8.65 8.65 0 0 0 -1.52.85.71.71 0 0 0 .12.54c.18 0 .35-.08.46-.09.79-.43 1.62-.83 2.46-1.22a1 1 0 0 0 .34-.4z"/><path d="m48.8 90.43a1.83 1.83 0 0 1 -.45.76c-2.16-1.19-4.22-2.56-6.35-3.85a1.23 1.23 0 0 1 .49-.73 1 1 0 0 1 .58.3c0-.17-.61-.54-.24-.85a13.45 13.45 0 0 1 1.91 1.12 1.21 1.21 0 0 1 -.09.4 7.18 7.18 0 0 0 2.35 1.64c.59.41 1.23.78 1.8 1.21z"/><path d="m48.53 55.64c.13.29.28.57.39.88a5.81 5.81 0 0 1 -1.4.85.67.67 0 0 1 -.6-.09c-.46-.35-.87-1.85-.27-2.34a7.29 7.29 0 0 1 .88-.48.74.74 0 0 1 .47-.22 1.86 1.86 0 0 1 .4.91 1.22 1.22 0 0 1 -.61.37c-.38.2-1.07.42-.76.88.53-.2.97-.57 1.5-.76z"/><path d="m48.93 101.76a1.22 1.22 0 0 1 -.37.67 2 2 0 0 1 -.54-.33 1 1 0 0 1 .15-.4c-.47-.47-.84.61-1.12.94a.41.41 0 0 0 -.09.3c.2.23.38 0 .49-.18a.93.93 0 0 0 -.12-.18 1.39 1.39 0 0 1 .24-.43 3 3 0 0 1 .82.49 1.41 1.41 0 0 1 -.36.64 1.38 1.38 0 0 1 -.46.55.55.55 0 0 1 -.55-.39.68.68 0 0 1 -.82-.82 3.63 3.63 0 0 1 .52-.73 1.23 1.23 0 0 1 1.22-.91 1.3 1.3 0 0 1 .99.78z"/><path d="m48.62 94.68a.92.92 0 0 1 -.3.58 5.59 5.59 0 0 1 -1.55-.91 3.42 3.42 0 0 1 .85-1.18.57.57 0 0 1 .85.42 1.52 1.52 0 0 1 -.36.76 5.54 5.54 0 0 0 .51.33zm-.85-.55a.47.47 0 0 0 .12-.27c-.15-.15-.39-.14-.39.12.1.02.18.11.27.16z"/><path d="m47.53 52.93a1.52 1.52 0 0 1 .34 1c-.27.13-.49.22-.79.4a1.5 1.5 0 0 1 -.76.39c-.59-.07-.81-2.23-.12-2.43h.09a6.9 6.9 0 0 1 .21.79c0 .32-.45.29-.3.58.51-.17.8-.55 1.33-.73z"/><path d="m47.56 91.35a1 1 0 0 1 -1.19 1.52 4.83 4.83 0 0 1 -1-.36c-.66-.35-1.54-1-2.46-1.55s-2.11-1.2-2-1.94a2.68 2.68 0 0 1 .64-1c1.58 0 2.54 1 3.68 1.67a11.83 11.83 0 0 1 -.67 1.06 9.44 9.44 0 0 0 .88.61 1.58 1.58 0 0 0 1 .36 2.91 2.91 0 0 0 -1.12-.88 1.73 1.73 0 0 1 .46-.79 4.66 4.66 0 0 1 1.78 1.3zm-4.25-1.35a.8.8 0 0 1 .15-.18 1.85 1.85 0 0 0 -1.19-.64 2.11 2.11 0 0 0 1.04.82z"/><path d="m47.32 95.53a1.52 1.52 0 0 1 .64.33 32.38 32.38 0 0 1 -2.21 3.19 1.7 1.7 0 0 1 -.61-.33c.22-.5.59-.84.85-1.3a.39.39 0 0 0 -.21-.18c-.4.36-.59.94-1 1.28a2 2 0 0 1 -.54-.37 38.06 38.06 0 0 1 2.14-3.15 1.38 1.38 0 0 1 .64.37 5.75 5.75 0 0 1 -.58.88c-.16.22-.29.31 0 .43a13.45 13.45 0 0 0 .88-1.15z"/><path d="m47.07 100.48a3.43 3.43 0 0 1 -.73 1.12c-.3.43-.54.79-.76 1.06a1.39 1.39 0 0 1 -.64-.36c.43-.79 1-1.44 1.49-2.19a.8.8 0 0 1 .64.37z"/><path d="m46.94 46.59a1.62 1.62 0 0 1 -.15 1.18 2.43 2.43 0 0 1 -.55.61.73.73 0 0 1 -.33 0 1.8 1.8 0 0 1 .31-1.06s.31-.85.72-.73z"/><path d="m46 57.58a1.82 1.82 0 0 1 .85 2.52 1.85 1.85 0 0 1 -.76.52c-.54.35-1.12.62-1.67.94a12.37 12.37 0 0 1 -1.67.91 11.06 11.06 0 0 1 -.3-1.76 14.39 14.39 0 0 1 2.4-1.55c.31-.18.87-.55.43-1a17.3 17.3 0 0 0 -2.83 1.7c-.16-.11-.05-.25-.06-.42a4.73 4.73 0 0 1 -.06-1.27 3 3 0 0 1 .7-.67 25.73 25.73 0 0 1 2.7-1.91h.18a4.74 4.74 0 0 0 .25.85c.13.49.37 1-.16 1.14z"/><path d="m46 49.68c.1.62.07 1.18.18 1.79a14.15 14.15 0 0 0 -2.09 1.82c.41 0 .78-.16 1.3-.15.1.59.21 1.19.31 1.91-.58.13-1.17 0-1.73.15-.4.63-.83 1.19-1.18 1.76a1.13 1.13 0 0 1 -.43.55c-.15-1.68.76-2.66 1.34-3.8a1.51 1.51 0 0 1 -.39.21 3.66 3.66 0 0 1 .48-1.1l.07-.17a7.45 7.45 0 0 1 2-3h.14z"/><path d="m46.38 94a3.51 3.51 0 0 1 -.54.85 2.91 2.91 0 0 1 -1.25-.6c-1.84-.83-3.55-1.8-5.31-2.7a1.71 1.71 0 0 1 .46-.79c1.09.42 1.92 1.09 2.94 1.58-.86-.68-1.85-1.23-2.7-1.91a2 2 0 0 1 .49-.73 5.39 5.39 0 0 1 1.33.91c1.26 1 2.64 1.83 3.86 2.88a2.25 2.25 0 0 1 .72.51z"/><path d="m45.86 99.88a.73.73 0 0 1 -.73.88 1.68 1.68 0 0 1 -.57 1.27 1.85 1.85 0 0 1 -.61-.3 2.7 2.7 0 0 1 .52-.91.58.58 0 0 0 -.18-.24 7.24 7.24 0 0 0 -.67.88 1.28 1.28 0 0 1 -.67-.33 18.39 18.39 0 0 1 1.52-2.22 3.67 3.67 0 0 1 1.39.97zm-.79 0c-.19-.36-.41 0-.51.25.19.28.44.03.51-.22z"/><path d="m44.95 83.12a2.22 2.22 0 0 1 .82.52 2.13 2.13 0 0 1 -.48.76 3.94 3.94 0 0 1 -.94-.52 1 1 0 0 1 .6-.76z"/><path d="m45.28 95.57a1.88 1.88 0 0 1 -.52.73c-1.69-1-3.31-2-4.95-3.07a1.59 1.59 0 0 1 .48-.73 6 6 0 0 1 1.19.67l1.15.7c.91.54 1.77 1.13 2.65 1.7z"/><path d="m44.49 96.69a1.43 1.43 0 0 1 -.45.7.33.33 0 0 1 -.27-.09c.46.8-.42 1.1-1.13.79-1.21-.68-2.33-1.45-3.55-2.13a3.59 3.59 0 0 1 -.61-.88c0-.35.28-.59.79-.54-.45-.33-1-.6-1.4-.94a2.05 2.05 0 0 1 .49-.76c1.72.94 3.59 2.28 5.4 3.34a1.86 1.86 0 0 1 .73.51zm-2.28 0a.88.88 0 0 0 .73.27 13.09 13.09 0 0 0 -2.28-1.67 4.13 4.13 0 0 0 -.66-.21.16.16 0 0 0 -.09 0v.12a2.7 2.7 0 0 0 .55.46c.54.34 1.2.71 1.76 1.06z"/><path d="m40 92.22a1.54 1.54 0 0 1 -.46.79 5.4 5.4 0 0 1 -.85-.49 1 1 0 0 1 .46-.79 2.69 2.69 0 0 1 .85.49z"/><path d="m53 86.73c-.06 0-.1-.12-.15-.15a.72.72 0 0 0 -.91.24 3.08 3.08 0 0 0 -.58 1 1.81 1.81 0 0 0 .73.52 1.87 1.87 0 0 0 .85.4 4 4 0 0 0 .43-.61 1.58 1.58 0 0 0 .39-.67 1 1 0 0 0 -.76-.73zm-.18 1.07-.65-.29c.18-.21.56-.41.71-.24a.57.57 0 0 1 -.06.53z"/></g></svg>