<svg viewBox="0 0 216 144" xmlns="http://www.w3.org/2000/svg"><g fill="#4f2682"><path d="m150.44 49.53.1.57a5.67 5.67 0 0 1 1.34-.72c1.07-.42 2.26-.72 2.63-.9.17-.08.37-.06.11.26a12 12 0 0 0 -.64 2.68 4.24 4.24 0 0 1 -1.48 2.58 7.69 7.69 0 0 1 1.42-.17c.85.08.83 0 .57.49a7.17 7.17 0 0 1 -1.79 2.59 2.65 2.65 0 0 1 1 .32 7.91 7.91 0 0 0 1.3.77c.15 0 .27.1.13.31s-.28.56-.46.84a6.56 6.56 0 0 0 1.64.24c.81 0 .59.1.07.46a11.47 11.47 0 0 1 -4 1.66c-1.58.2-2.45.31-3 0s-.88-.5-1.14-.61a4.21 4.21 0 0 1 -.52-.21 15.81 15.81 0 0 1 .61 7.67 14.11 14.11 0 0 1 -.34 1.59c0 .11.28.37-.31.35s-1-.2-.72-.73a4.35 4.35 0 0 0 .47-.93c0-.13.15-.13.19-.27a14.24 14.24 0 0 0 -.36-8 2.23 2.23 0 0 1 -.59 1.29c-.18 1.14-1.49 1.75-1.88 2a2 2 0 0 1 -.81.2c-.24.11-1.23.68-1.58.83s-.37.07-.33-.11l.06-.23a5.16 5.16 0 0 1 -1.18.54c-.24.07-.61 0-.77.09s-1.62.51-1.9.59-.24-.13-.12-.34a15.85 15.85 0 0 0 .93-2.1 6.4 6.4 0 0 1 1.46-2.13 16.7 16.7 0 0 1 -1.78 0 9.37 9.37 0 0 1 -2-.63c-.14 0-.16-.1-.09-.18l.48-.5a10.94 10.94 0 0 1 -2.32-1.47c-.46-.33-1.44-1.53-1.86-1.9-.15-.14-.12-.26.15-.33s1.84-.83 2.17-.92a8.82 8.82 0 0 1 2.49-.27l-.79-.43c-.16-.1 0-.14.07-.15a4.29 4.29 0 0 1 2.68 0 2.06 2.06 0 0 1 -.35-.8 3.61 3.61 0 0 1 -1-2c0-.18 0-.19.18-.13a5.23 5.23 0 0 0 .92.24 4.4 4.4 0 0 1 -.48-4c.06-.15 0-.21.2-.15l1 .33a6.12 6.12 0 0 1 .17-2.74 11 11 0 0 0 .37-1.69c0-.15.11-.19.22 0a8.84 8.84 0 0 0 1.16 1.16 4.41 4.41 0 0 1 1.38 1.56 4.32 4.32 0 0 0 .29-1c0-.14.14 0 .23.1a9.49 9.49 0 0 1 1.4 2.34 3.76 3.76 0 0 1 .34-.5c.06-.07.08-.11.2 0s.27.21.45.39a3.6 3.6 0 0 0 .25-.28c.07-.11.14-.07.26.24a9.54 9.54 0 0 1 .61 2.69c.21.15.41.55.12 1.86a8.82 8.82 0 0 1 2.57-2.5c.14.01.16-.06.2.19z"/><path d="m101.49 87.48-2.09 2.09h-9.83l-2.17-2.09v-34.71h4.02v-15.14h-26.49v15.14h4.03v41.25l10.71 10.69h29.55l10.71-10.75v-41.19h4.03v-15.14h-26.5v15.14h4.03z"/><path d="m60.84 33.54v23.32h4v38.86l13.16 13.09h32.95l13.05-13.16v-38.79h4v-23.32zm64.62 20.73h-4v40.3l-11.59 11.64h-30.87l-11.54-11.57v-40.37h-4v-18.14h29.46v18.14h-4v32.58l1.28 1.23h8.6l1.2-1.22v-32.59h-4v-18.14h29.49v18.14zm-28.06 2.59v28.62h-5.91v-28.62z"/></g></svg>