<svg viewBox="0 0 216 144" xmlns="http://www.w3.org/2000/svg"><g fill="#231f20"><path d="m145.18 17.43h-78.45v106.24h82.09v-106.24h-3.63zm.22 102.57h-75v-29.46h75zm0-32.92h-75v-66.02h75v66.06z"/><path d="m86.44 94.5a.44.44 0 0 1 .49.6l-4.64 20.9a.57.57 0 0 1 -.6.49h-2.74a.57.57 0 0 1 -.6-.49l-4.62-20.9a.44.44 0 0 1 .49-.6h2.61a.57.57 0 0 1 .6.49l2.88 14.71 2.92-14.7a.57.57 0 0 1 .6-.49h2.61"/><path d="m99.55 97.68a.4.4 0 0 1 -.44.47h-6.86v5.49h5.24a.41.41 0 0 1 .44.47v2.72a.41.41 0 0 1 -.44.47h-5.24v5.54h6.86a.37.37 0 0 1 .44.44v2.72a.38.38 0 0 1 -.44.44h-10.11a.4.4 0 0 1 -.4-.44v-21.06a.4.4 0 0 1 .4-.44h10.1a.38.38 0 0 1 .44.44v2.74"/><path d="m108.47 105.48a1 1 0 0 0 1.1-1.1v-5.16a1 1 0 0 0 -1.1-1.1h-2.72v7.35h2.72zm4.83-.33c0 1.84-.69 3-2 3.62l1.89 7.19a.35.35 0 0 1 -.38.49h-2.81a.43.43 0 0 1 -.47-.38l-1.84-7h-1.89v6.93a.4.4 0 0 1 -.44.44h-2.85a.4.4 0 0 1 -.51-.44v-21.06a.4.4 0 0 1 .44-.44h6.89c2.58 0 4 1.37 4 4v6.7z"/><path d="m116 98.45c0-2.58 1.37-4 4-4h3.62c2.55 0 4 1.37 4 4v2.85a.4.4 0 0 1 -.44.44h-2.74a.39.39 0 0 1 -.44-.44v-2.08a1 1 0 0 0 -1.1-1.1h-2a1 1 0 0 0 -1.1 1.1v12.51a1 1 0 0 0 1.1 1.1h2a1 1 0 0 0 1.1-1.1v-3.68h-1.43a.39.39 0 0 1 -.44-.44v-2.74a.38.38 0 0 1 .44-.44h4.61a.39.39 0 0 1 .44.44v7.63c0 2.58-1.4 4-4 4h-3.62c-2.58 0-4-1.37-4-4v-14"/><path d="m141.26 97.68a.4.4 0 0 1 -.44.47h-6.82v5.49h5.24a.41.41 0 0 1 .44.47v2.72a.41.41 0 0 1 -.44.47h-5.24v5.54h6.86a.37.37 0 0 1 .44.44v2.72a.38.38 0 0 1 -.44.44h-10.1a.4.4 0 0 1 -.41-.44v-21.06a.4.4 0 0 1 .41-.44h10.1a.38.38 0 0 1 .44.44v2.74"/><path d="m112.62 67.49-9.13 9.13-9.13-9.13 9.13-9.13z"/><path d="m103 57.88-9.12 9.12-9.13-9.13 9.13-9.13z"/><path d="m93.4 48.27-9.13 9.13-9.13-9.13 9.13-9.13z"/><path d="m122.15 58-9.15 9.09-9.11-9.09 9.11-9.18z"/><path d="m131.69 48.42-9.13 9.13-9.13-9.13 9.13-9.13z"/><path d="m141.22 38.89-9.13 9.11-9.09-9.11 9.13-9.13 9.13 9.13"/></g></svg>