<svg viewBox="0 0 405.8 69.6" xmlns="http://www.w3.org/2000/svg"><path d="m60.3 20.9 4 6.9 8-13.9-8-13.9" fill="#15893e"/><path d="m32.1 0 4.1 34.8 12 20.9v-27.9" fill="#15893e"/><path d="m36.2 34.8-20.1-34.8h-16.1l40.2 69.6 8-13.9m0-55.7h-16.1l16.1 27.8 8 14 8.1-14-4-6.9" fill="#add819"/><path d="m80.3 0h-16l8 13.9" fill="#acd036"/><path d="m32.1 0 16.1 55.7v-27.9m16.1 0 8-13.9-8-13.9" fill="#137734"/><path d="m80.3 0h-16l8 13.9" fill="#add819"/><path d="m48.2 55.7-32.1-55.7h-16.1" fill="#9bd61a"/><path d="m48.2 55.7-47.7-55.7h-.5" fill="#d5f953"/><path d="m32.1 0 32.2 27.8-16.1-27.8" fill="#9bd61a"/><path d="m32.1 0 16.1 33v-5.2m22.9-11.8 1.2-2.1-8-13.9" fill="#0b561d" opacity=".68"/><path d="m0 0 40.2 69.6v-.1m-8.1-69.5 24.1 41.8.1-.2" fill="#749e0d"/><path d="m80.3 0h-15.2l9.7 9.7" fill="#9bd61a"/><path d="m72.4 13.8-8.1-13.8 8 13.9" fill="#749e0d"/><path d="m32.1 0 32.2 27.8-31.8-27.8m32.2 0h-.4l10.5 9.7" fill="#d5f953"/><path d="m32.1 0 16.1 55.7v-1.1m16.1-26.8.3-.4-.3-27.4" fill="#0b561d"/><path d="m48.2 55.7-47.7-55.7h.5m32 0 31.3 27.8-31.8-27.8m32.2 0h.4l9.7 9.7" fill="#8eba13"/><path d="m32.1 0 16.1 55.7-.7-1.3m16.8-26.6-.3-.5.3-27.3" fill="#10a032"/><path d="m126.4 21h3.1l9.1 27.8 9.5-27.7h3.9l-11.9 33.5h-3.2l-9.1-27-9.2 27h-3.1l-11.9-33.5h4.1l9.5 27.7zm47 4.9-11.8 28.6h-4.2l14.3-33.5h3.3l14.3 33.5h-4zm51.3 28.4-9.6-12.9h-9.5v12.9h-3.7v-33.2h14.3c7.3 0 12 3.9 12 9.9 0 5.6-3.8 8.8-9 9.7l10.2 13.6zm-8.8-29.8h-10.3v13.5h10.2c5 0 8.5-2.6 8.5-6.9 0-4.1-3.1-6.6-8.4-6.6zm38 18.1h-8.1v11.7h-3.7v-33.2h12.4c7.5 0 12.4 4 12.4 10.6.1 7.2-5.9 10.9-13 10.9zm.4-18.1h-8.4v14.6h8.2c5.5 0 9.1-2.9 9.1-7.4 0-4.7-3.6-7.2-8.9-7.2zm36.2 1.4-11.8 28.6h-4.2l14.3-33.5h3.3l14.3 33.5h-4zm32.5-4.8v33.2h-3.7v-33.2zm40.1 0h3.7v33.2h-3l-21.5-27.3v27.2h-3.7v-33.1h3.5l20.9 26.6v-26.6zm31.5 33.2h-3.8v-29.8h-11.2v-3.5h26.1v3.5h-11.2v29.8z" fill="#fff"/></svg>